TiroDevaSanskrit-Italic.ufo
<glyph name="dCandrabinduInverted" format="2">
  <unicode hex="0900"/>
  <outline>
    <contour>
      <point x="140" y="765" type="line"/>
      <point x="111" y="860"/>
      <point x="58" y="930"/>
      <point x="-37" y="930" type="curve" smooth="yes"/>
      <point x="-121" y="930"/>
      <point x="-179" y="877"/>
      <point x="-228" y="788" type="curve"/>
      <point x="-166" y="734" type="line"/>
      <point x="-129" y="804"/>
      <point x="-85" y="865"/>
      <point x="-19" y="865" type="curve" smooth="yes"/>
      <point x="28" y="865"/>
      <point x="75" y="833"/>
      <point x="106" y="748" type="curve"/>
    </contour>
    <contour>
      <point x="-43" y="672" type="line"/>
      <point x="28" y="735" type="line"/>
      <point x="-29" y="800" type="line"/>
      <point x="-101" y="739" type="line"/>
    </contour>
  </outline>
</glyph>
<glyph name="dCandrabindu" format="2">
  <unicode hex="0901"/>
  <outline>
    <contour>
      <point x="-214" y="838" type="line"/>
      <point x="-188" y="739"/>
      <point x="-138" y="672"/>
      <point x="-40" y="672" type="curve" smooth="yes"/>
      <point x="47" y="672"/>
      <point x="115" y="725"/>
      <point x="154" y="812" type="curve"/>
      <point x="88" y="866" type="line"/>
      <point x="62" y="801"/>
      <point x="12" y="737"/>
      <point x="-57" y="737" type="curve" smooth="yes"/>
      <point x="-106" y="737"/>
      <point x="-154" y="763"/>
      <point x="-183" y="854" type="curve"/>
    </contour>
    <contour>
      <point x="-47" y="802" type="line"/>
      <point x="24" y="865" type="line"/>
      <point x="-33" y="930" type="line"/>
      <point x="-105" y="869" type="line"/>
    </contour>
  </outline>
</glyph>
<glyph name="dVisarga" format="2">
  <unicode hex="0903"/>
  <outline>
    <contour>
      <point x="169" y="485" type="line"/>
      <point x="81" y="410" type="line"/>
      <point x="144" y="336" type="line"/>
      <point x="233" y="408" type="line"/>
    </contour>
    <contour>
      <point x="116" y="213" type="line"/>
      <point x="28" y="138" type="line"/>
      <point x="91" y="64" type="line"/>
      <point x="180" y="136" type="line"/>
    </contour>
  </outline>
</glyph>
<glyph name="dCa" format="2">
  <advance width="676"/>
  <unicode hex="091A"/>
  <outline>
    <contour>
      <point x="344" y="128" type="curve" smooth="yes"/>
      <point x="408" y="128"/>
      <point x="459" y="156"/>
      <point x="509" y="195" type="curve"/>
      <point x="532" y="301" type="line"/>
      <point x="418" y="215"/>
      <point x="356" y="192"/>
      <point x="305" y="192" type="curve" smooth="yes"/>
      <point x="261" y="192"/>
      <point x="224" y="213"/>
      <point x="224" y="266" type="curve" smooth="yes"/>
      <point x="224" y="354"/>
      <point x="329" y="373"/>
      <point x="426" y="373" type="curve"/>
      <point x="431" y="398" type="line"/>
      <point x="222" y="398" type="line"/>
      <point x="174" y="364"/>
      <point x="158" y="332"/>
      <point x="158" y="287" type="curve" smooth="yes"/>
      <point x="158" y="219"/>
      <point x="221" y="128"/>
    </contour>
    <contour>
      <point x="206" y="370" type="line"/>
      <point x="313" y="388" type="line"/>
      <point x="426" y="373" type="line"/>
      <point x="440" y="373"/>
      <point x="446" y="373"/>
      <point x="468" y="372" type="curve"/>
      <point x="470" y="382" type="line"/>
      <point x="439" y="446" type="line"/>
      <point x="65" y="446" type="line"/>
      <point x="63" y="436" type="line"/>
      <point x="95" y="370" type="line"/>
    </contour>
    <contour>
      <point x="538" y="-10" type="line"/>
      <point x="651" y="581" type="line"/>
      <point x="567" y="581" type="line"/>
      <point x="461" y="52" type="line"/>
      <point x="528" y="-10" type="line"/>
    </contour>
    <contour>
      <point x="761" y="545" type="line"/>
      <point x="763" y="555" type="line"/>
      <point x="732" y="620" type="line"/>
      <point x="34" y="620" type="line"/>
      <point x="32" y="610" type="line"/>
      <point x="63" y="545" type="line"/>
    </contour>
  </outline>
</glyph>
<glyph name="dNya" format="2">
  <advance width="775"/>
  <unicode hex="091E"/>
  <outline>
    <contour>
      <point x="310" y="117" type="curve" smooth="yes"/>
      <point x="395" y="117"/>
      <point x="494" y="163"/>
      <point x="494" y="287" type="curve" smooth="yes"/>
      <point x="494" y="375"/>
      <point x="432" y="470"/>
      <point x="339" y="470" type="curve" smooth="yes"/>
      <point x="301" y="470"/>
      <point x="265" y="460"/>
      <point x="221" y="437" type="curve"/>
      <point x="249" y="360" type="line"/>
      <point x="289" y="377"/>
      <point x="330" y="394"/>
      <point x="365" y="394" type="curve" smooth="yes"/>
      <point x="402" y="394"/>
      <point x="436" y="380"/>
      <point x="436" y="324" type="curve" smooth="yes"/>
      <point x="436" y="260"/>
      <point x="390" y="193"/>
      <point x="293" y="193" type="curve" smooth="yes"/>
      <point x="190" y="193"/>
      <point x="136" y="278"/>
      <point x="92" y="393" type="curve"/>
      <point x="53" y="372" type="line"/>
      <point x="123" y="192"/>
      <point x="193" y="117"/>
    </contour>
    <contour>
      <point x="570" y="217" type="curve" smooth="yes"/>
      <point x="587" y="217"/>
      <point x="606" y="222"/>
      <point x="626" y="232" type="curve"/>
      <point x="638" y="341" type="line"/>
      <point x="601" y="307"/>
      <point x="575" y="295"/>
      <point x="541" y="295" type="curve" smooth="yes"/>
      <point x="513" y="295"/>
      <point x="500" y="305"/>
      <point x="485" y="314" type="curve"/>
      <point x="476" y="249" type="line"/>
      <point x="493" y="257" type="line"/>
      <point x="506" y="241"/>
      <point x="534" y="217"/>
    </contour>
    <contour>
      <point x="637" y="-10" type="line"/>
      <point x="750" y="581" type="line"/>
      <point x="666" y="581" type="line"/>
      <point x="560" y="52" type="line"/>
      <point x="627" y="-10" type="line"/>
    </contour>
    <contour>
      <point x="860" y="545" type="line"/>
      <point x="862" y="555" type="line"/>
      <point x="831" y="620" type="line"/>
      <point x="34" y="620" type="line"/>
      <point x="32" y="610" type="line"/>
      <point x="63" y="545" type="line"/>
    </contour>
  </outline>
</glyph>
<glyph name="dDda" format="2">
  <advance width="577"/>
  <unicode hex="0921"/>
  <outline>
    <contour>
      <point x="326" y="7" type="curve" smooth="yes"/>
      <point x="442" y="7"/>
      <point x="516" y="66"/>
      <point x="516" y="152" type="curve" smooth="yes"/>
      <point x="516" y="224"/>
      <point x="457" y="298"/>
      <point x="406" y="298" type="curve" smooth="yes"/>
      <point x="368" y="298"/>
      <point x="265" y="273"/>
      <point x="242" y="273" type="curve" smooth="yes"/>
      <point x="221" y="273"/>
      <point x="200" y="293"/>
      <point x="200" y="326" type="curve" smooth="yes"/>
      <point x="200" y="366"/>
      <point x="227" y="385"/>
      <point x="283" y="385" type="curve" smooth="yes"/>
      <point x="486" y="385" type="line"/>
      <point x="500" y="393" type="line"/>
      <point x="510" y="445"/>
      <point x="523" y="517"/>
      <point x="533" y="571" type="curve"/>
      <point x="452" y="571" type="line"/>
      <point x="430" y="460" type="line"/>
      <point x="280" y="460" type="line" smooth="yes"/>
      <point x="178" y="460"/>
      <point x="135" y="419"/>
      <point x="135" y="359" type="curve" smooth="yes"/>
      <point x="135" y="280"/>
      <point x="201" y="199"/>
      <point x="261" y="199" type="curve" smooth="yes"/>
      <point x="295" y="199"/>
      <point x="385" y="223"/>
      <point x="424" y="223" type="curve" smooth="yes"/>
      <point x="445" y="223"/>
      <point x="456" y="209"/>
      <point x="456" y="191" type="curve" smooth="yes"/>
      <point x="456" y="159"/>
      <point x="426" y="82"/>
      <point x="302" y="82" type="curve" smooth="yes"/>
      <point x="163" y="82"/>
      <point x="103" y="175"/>
      <point x="69" y="281" type="curve"/>
      <point x="30" y="260" type="line"/>
      <point x="75" y="97"/>
      <point x="177" y="7"/>
    </contour>
    <contour>
      <point x="662" y="545" type="line"/>
      <point x="664" y="555" type="line"/>
      <point x="632" y="620" type="line"/>
      <point x="33" y="620" type="line"/>
      <point x="31" y="610" type="line"/>
      <point x="63" y="545" type="line"/>
    </contour>
  </outline>
</glyph>
<glyph name="dNna" format="2">
  <advance width="713"/>
  <unicode hex="0923"/>
  <outline>
    <contour>
      <point x="266" y="158" type="curve" smooth="yes"/>
      <point x="358" y="158"/>
      <point x="409" y="211"/>
      <point x="429" y="317" type="curve" smooth="yes"/>
      <point x="480" y="582" type="line"/>
      <point x="397" y="582" type="line"/>
      <point x="349" y="337" type="line" smooth="yes"/>
      <point x="332" y="248"/>
      <point x="288" y="223"/>
      <point x="244" y="223" type="curve" smooth="yes"/>
      <point x="194" y="223"/>
      <point x="171" y="251"/>
      <point x="171" y="286" type="curve" smooth="yes"/>
      <point x="171" y="294"/>
      <point x="172" y="304"/>
      <point x="174" y="315" type="curve" smooth="yes"/>
      <point x="224" y="582" type="line"/>
      <point x="139" y="582" type="line"/>
      <point x="127" y="520"/>
      <point x="110" y="439"/>
      <point x="100" y="386" type="curve" smooth="yes"/>
      <point x="95" y="359"/>
      <point x="90" y="338"/>
      <point x="90" y="327" type="curve" smooth="yes"/>
      <point x="90" y="259"/>
      <point x="169" y="158"/>
    </contour>
    <contour>
      <point x="575" y="-10" type="line"/>
      <point x="689" y="582" type="line"/>
      <point x="605" y="582" type="line"/>
      <point x="498" y="52" type="line"/>
      <point x="565" y="-10" type="line"/>
    </contour>
    <contour>
      <point x="798" y="545" type="line"/>
      <point x="800" y="555" type="line"/>
      <point x="769" y="620" type="line"/>
      <point x="34" y="620" type="line"/>
      <point x="32" y="610" type="line"/>
      <point x="63" y="545" type="line"/>
    </contour>
  </outline>
</glyph>
<glyph name="dDha" format="2">
  <advance width="654"/>
  <unicode hex="0927"/>
  <outline>
    <contour>
      <point x="247" y="417" type="curve" smooth="yes"/>
      <point x="209" y="417"/>
      <point x="172" y="437"/>
      <point x="172" y="486" type="curve" smooth="yes"/>
      <point x="172" y="534"/>
      <point x="206" y="564"/>
      <point x="254" y="564" type="curve" smooth="yes"/>
      <point x="297" y="564"/>
      <point x="327" y="545"/>
      <point x="334" y="491" type="curve"/>
      <point x="343" y="491" type="line"/>
      <point x="349" y="503"/>
      <point x="353" y="519"/>
      <point x="353" y="537" type="curve" smooth="yes"/>
      <point x="353" y="583"/>
      <point x="314" y="633"/>
      <point x="236" y="633" type="curve" smooth="yes"/>
      <point x="161" y="633"/>
      <point x="105" y="591"/>
      <point x="105" y="514" type="curve" smooth="yes"/>
      <point x="105" y="457"/>
      <point x="136" y="404"/>
      <point x="217" y="360" type="curve"/>
      <point x="202" y="395" type="line"/>
      <point x="151" y="364"/>
      <point x="135" y="332"/>
      <point x="135" y="284" type="curve" smooth="yes"/>
      <point x="135" y="219"/>
      <point x="198" y="119"/>
      <point x="317" y="119" type="curve" smooth="yes"/>
      <point x="372" y="119"/>
      <point x="434" y="136"/>
      <point x="491" y="177" type="curve"/>
      <point x="506" y="285" type="line"/>
      <point x="422" y="214"/>
      <point x="342" y="184"/>
      <point x="289" y="184" type="curve" smooth="yes"/>
      <point x="238" y="184"/>
      <point x="200" y="210"/>
      <point x="200" y="252" type="curve" smooth="yes"/>
      <point x="200" y="301"/>
      <point x="250" y="347"/>
      <point x="411" y="363" type="curve"/>
      <point x="389" y="441" type="line"/>
      <point x="328" y="435"/>
      <point x="285" y="417"/>
    </contour>
    <contour>
      <point x="739" y="545" type="line"/>
      <point x="741" y="555" type="line"/>
      <point x="710" y="620" type="line"/>
      <point x="421" y="620" type="line"/>
      <point x="419" y="610" type="line"/>
      <point x="450" y="545" type="line"/>
    </contour>
    <contour>
      <point x="516" y="-10" type="line"/>
      <point x="629" y="581" type="line"/>
      <point x="546" y="581" type="line"/>
      <point x="439" y="51" type="line"/>
      <point x="506" y="-10" type="line"/>
    </contour>
  </outline>
</glyph>
<glyph name="dMa" format="2">
  <advance width="612"/>
  <unicode hex="092E"/>
  <outline>
    <contour>
      <point x="90" y="310" type="line" smooth="yes"/>
      <point x="69" y="310"/>
      <point x="59" y="296"/>
      <point x="59" y="280" type="curve" smooth="yes"/>
      <point x="59" y="235"/>
      <point x="137" y="138"/>
      <point x="172" y="138" type="curve" smooth="yes"/>
      <point x="187" y="138"/>
      <point x="197" y="146"/>
      <point x="200" y="163" type="curve" smooth="yes"/>
      <point x="279" y="581" type="line"/>
      <point x="197" y="581" type="line"/>
      <point x="129" y="235" type="line"/>
      <point x="469" y="235" type="line"/>
      <point x="485" y="310" type="line"/>
    </contour>
    <contour>
      <point x="474" y="-10" type="line"/>
      <point x="587" y="581" type="line"/>
      <point x="503" y="581" type="line"/>
      <point x="397" y="52" type="line"/>
      <point x="464" y="-10" type="line"/>
    </contour>
    <contour>
      <point x="697" y="545" type="line"/>
      <point x="699" y="555" type="line"/>
      <point x="668" y="620" type="line"/>
      <point x="34" y="620" type="line"/>
      <point x="32" y="610" type="line"/>
      <point x="63" y="545" type="line"/>
    </contour>
  </outline>
</glyph>
<glyph name="dYa" format="2">
  <advance width="582"/>
  <unicode hex="092F"/>
  <outline>
    <contour>
      <point x="274" y="136" type="curve" smooth="yes"/>
      <point x="315" y="136"/>
      <point x="371" y="151"/>
      <point x="423" y="193" type="curve"/>
      <point x="440" y="296" type="line"/>
      <point x="358" y="231"/>
      <point x="304" y="199"/>
      <point x="244" y="199" type="curve" smooth="yes"/>
      <point x="174" y="199"/>
      <point x="137" y="235"/>
      <point x="137" y="286" type="curve" smooth="yes"/>
      <point x="137" y="292"/>
      <point x="137" y="297"/>
      <point x="138" y="303" type="curve"/>
      <point x="254" y="334"/>
      <point x="299" y="379"/>
      <point x="299" y="441" type="curve" smooth="yes"/>
      <point x="299" y="474"/>
      <point x="287" y="524"/>
      <point x="261" y="572" type="curve"/>
      <point x="204" y="572" type="line"/>
      <point x="227" y="538"/>
      <point x="235" y="499"/>
      <point x="235" y="477" type="curve" smooth="yes"/>
      <point x="235" y="424"/>
      <point x="183" y="399"/>
      <point x="64" y="371" type="curve"/>
      <point x="62" y="239"/>
      <point x="155" y="136"/>
    </contour>
    <contour>
      <point x="444" y="-10" type="line"/>
      <point x="556" y="572" type="line"/>
      <point x="472" y="572" type="line"/>
      <point x="367" y="52" type="line"/>
      <point x="434" y="-10" type="line"/>
    </contour>
    <contour>
      <point x="667" y="545" type="line"/>
      <point x="669" y="555" type="line"/>
      <point x="638" y="620" type="line"/>
      <point x="34" y="620" type="line"/>
      <point x="32" y="610" type="line"/>
      <point x="63" y="545" type="line"/>
    </contour>
  </outline>
</glyph>
<glyph name="dSignAa" format="2">
  <advance width="267"/>
  <unicode hex="093E"/>
  <outline>
    <contour>
      <point x="352" y="545" type="line"/>
      <point x="354" y="555" type="line"/>
      <point x="323" y="620" type="line"/>
      <point x="34" y="620" type="line"/>
      <point x="32" y="610" type="line"/>
      <point x="63" y="545" type="line"/>
    </contour>
    <contour>
      <point x="158" y="581" type="line"/>
      <point x="51" y="47" type="line"/>
      <point x="119" y="-15" type="line"/>
      <point x="129" y="-15" type="line"/>
      <point x="242" y="581" type="line"/>
    </contour>
  </outline>
</glyph>
<glyph name="dSignU" format="2">
  <unicode hex="0941"/>
  <outline>
    <contour>
      <point x="-275" y="-142" type="line"/>
      <point x="-249" y="-120"/>
      <point x="-211" y="-91"/>
      <point x="-178" y="-91" type="curve" smooth="yes"/>
      <point x="-152" y="-91"/>
      <point x="-134" y="-103"/>
      <point x="-134" y="-131" type="curve" smooth="yes"/>
      <point x="-134" y="-172"/>
      <point x="-173" y="-211"/>
      <point x="-249" y="-211" type="curve" smooth="yes"/>
      <point x="-334" y="-211"/>
      <point x="-387" y="-162"/>
      <point x="-458" y="-37" type="curve"/>
      <point x="-465" y="-37" type="line"/>
      <point x="-505" y="-77" type="line"/>
      <point x="-468" y="-139"/>
      <point x="-354" y="-279"/>
      <point x="-219" y="-279" type="curve" smooth="yes"/>
      <point x="-139" y="-279"/>
      <point x="-78" y="-230"/>
      <point x="-78" y="-158" type="curve" smooth="yes"/>
      <point x="-78" y="-82"/>
      <point x="-138" y="-29"/>
      <point x="-208" y="-29" type="curve" smooth="yes"/>
      <point x="-250" y="-29"/>
      <point x="-284" y="-45"/>
      <point x="-320" y="-77" type="curve"/>
    </contour>
  </outline>
</glyph>
<glyph name="dSignUu" format="2">
  <unicode hex="0942"/>
  <outline>
    <contour>
      <point x="26" y="-286" type="line"/>
      <point x="68" y="-247" type="line"/>
      <point x="19" y="-170"/>
      <point x="-102" y="-29"/>
      <point x="-223" y="-29" type="curve" smooth="yes"/>
      <point x="-305" y="-29"/>
      <point x="-351" y="-82"/>
      <point x="-351" y="-149" type="curve" smooth="yes"/>
      <point x="-351" y="-217"/>
      <point x="-303" y="-280"/>
      <point x="-219" y="-280" type="curve" smooth="yes"/>
      <point x="-187" y="-280"/>
      <point x="-143" y="-267"/>
      <point x="-117" y="-241" type="curve"/>
      <point x="-156" y="-173" type="line"/>
      <point x="-174" y="-191"/>
      <point x="-211" y="-218"/>
      <point x="-249" y="-218" type="curve" smooth="yes"/>
      <point x="-279" y="-218"/>
      <point x="-295" y="-199"/>
      <point x="-295" y="-172" type="curve" smooth="yes"/>
      <point x="-295" y="-132"/>
      <point x="-259" y="-97"/>
      <point x="-200" y="-97" type="curve" smooth="yes"/>
      <point x="-84" y="-97"/>
      <point x="-9" y="-232"/>
      <point x="19" y="-286" type="curve"/>
    </contour>
  </outline>
  <guideline angle="0" x="0" y="-271"/>
</glyph>
<glyph name="dSignVocalicRr" format="2">
  <unicode hex="0944"/>
  <outline>
    <contour>
      <point x="-155" y="-393" type="curve" smooth="yes"/>
      <point x="-91" y="-393"/>
      <point x="-31" y="-369"/>
      <point x="-8" y="-351" type="curve"/>
      <point x="-44" y="-290" type="line"/>
      <point x="-82" y="-314"/>
      <point x="-128" y="-332"/>
      <point x="-173" y="-332" type="curve" smooth="yes"/>
      <point x="-213" y="-332"/>
      <point x="-238" y="-322"/>
      <point x="-238" y="-297" type="curve" smooth="yes"/>
      <point x="-238" y="-263"/>
      <point x="-194" y="-237"/>
      <point x="-77" y="-222" type="curve"/>
      <point x="-76" y="-216" type="line"/>
      <point x="-110" y="-157" type="line"/>
      <point x="-209" y="-168"/>
      <point x="-297" y="-204"/>
      <point x="-297" y="-278" type="curve" smooth="yes"/>
      <point x="-297" y="-342"/>
      <point x="-230" y="-393"/>
    </contour>
    <contour>
      <point x="-236" y="-210" type="line"/>
      <point x="-274" y="-205"/>
      <point x="-289" y="-189"/>
      <point x="-289" y="-165" type="curve" smooth="yes"/>
      <point x="-289" y="-136"/>
      <point x="-261" y="-93"/>
      <point x="-140" y="-85" type="curve"/>
      <point x="-139" y="-79" type="line"/>
      <point x="-173" y="-19" type="line"/>
      <point x="-276" y="-29"/>
      <point x="-348" y="-65"/>
      <point x="-348" y="-141" type="curve" smooth="yes"/>
      <point x="-348" y="-177"/>
      <point x="-329" y="-221"/>
      <point x="-271" y="-239" type="curve"/>
    </contour>
  </outline>
  <guideline angle="127.438" x="-150" y="0"/>
</glyph>
<glyph name="dSignE" format="2">
  <unicode hex="0947"/>
  <outline>
    <contour>
      <point x="-363" y="893" type="line"/>
      <point x="-335" y="810" type="line"/>
      <point x="-302" y="816"/>
      <point x="-263" y="821"/>
      <point x="-241" y="821" type="curve" smooth="yes"/>
      <point x="-180" y="821"/>
      <point x="-149" y="773"/>
      <point x="-82" y="608" type="curve"/>
      <point x="-31" y="608" type="line"/>
      <point x="-106" y="788"/>
      <point x="-163" y="911"/>
      <point x="-265" y="911" type="curve" smooth="yes"/>
      <point x="-277" y="911"/>
      <point x="-314" y="908"/>
      <point x="-361" y="900" type="curve"/>
    </contour>
  </outline>
</glyph>
<glyph name="dSignAi" format="2">
  <unicode hex="0948"/>
  <outline>
    <contour>
      <point x="-27" y="608" type="line"/>
      <point x="-92" y="859"/>
      <point x="-134" y="964"/>
      <point x="-245" y="964" type="curve" smooth="yes"/>
      <point x="-269" y="964"/>
      <point x="-299" y="960"/>
      <point x="-334" y="954" type="curve"/>
      <point x="-336" y="947" type="line"/>
      <point x="-309" y="869" type="line"/>
      <point x="-284" y="874"/>
      <point x="-258" y="879"/>
      <point x="-230" y="879" type="curve" smooth="yes"/>
      <point x="-156" y="879"/>
      <point x="-134" y="855"/>
      <point x="-63" y="608" type="curve"/>
    </contour>
    <contour>
      <point x="-53" y="608" type="line"/>
      <point x="-57" y="620" type="line"/>
      <point x="-70" y="620" type="line"/>
      <point x="-151" y="760"/>
      <point x="-197" y="809"/>
      <point x="-276" y="809" type="curve" smooth="yes"/>
      <point x="-293" y="809"/>
      <point x="-313" y="806"/>
      <point x="-374" y="795" type="curve"/>
      <point x="-376" y="788" type="line"/>
      <point x="-349" y="711" type="line"/>
      <point x="-310" y="719"/>
      <point x="-284" y="724"/>
      <point x="-252" y="724" type="curve" smooth="yes"/>
      <point x="-205" y="724"/>
      <point x="-165" y="715"/>
      <point x="-106" y="608" type="curve"/>
    </contour>
  </outline>
</glyph>
<glyph name="dOm" format="2">
  <advance width="986"/>
  <unicode hex="0950"/>
  <outline>
    <component base="dCandrabindu" xOffset="684" yOffset="-105"/>
    <contour>
      <point x="793" y="138" type="curve" smooth="yes"/>
      <point x="876" y="138"/>
      <point x="957" y="199"/>
      <point x="957" y="312" type="curve" smooth="yes"/>
      <point x="957" y="400"/>
      <point x="887" y="466"/>
      <point x="814" y="466" type="curve" smooth="yes"/>
      <point x="678" y="466"/>
      <point x="640" y="285"/>
      <point x="523" y="285" type="curve" smooth="yes"/>
      <point x="475" y="285"/>
      <point x="445" y="314"/>
      <point x="423" y="354" type="curve"/>
      <point x="377" y="332" type="line"/>
      <point x="458" y="236" type="line"/>
      <point x="478" y="245" type="line"/>
      <point x="498" y="230"/>
      <point x="531" y="218"/>
      <point x="561" y="218" type="curve" smooth="yes"/>
      <point x="687" y="218"/>
      <point x="732" y="405"/>
      <point x="841" y="405" type="curve" smooth="yes"/>
      <point x="879" y="405"/>
      <point x="901" y="381"/>
      <point x="901" y="337" type="curve" smooth="yes"/>
      <point x="901" y="264"/>
      <point x="828" y="212"/>
      <point x="770" y="212" type="curve" smooth="yes"/>
      <point x="737" y="212"/>
      <point x="689" y="237"/>
      <point x="681" y="301" type="curve"/>
      <point x="644" y="269" type="line"/>
      <point x="684" y="159"/>
      <point x="738" y="138"/>
    </contour>
    <contour>
      <point x="288" y="29" type="curve" smooth="yes"/>
      <point x="395" y="29"/>
      <point x="476" y="98"/>
      <point x="476" y="200" type="curve" smooth="yes"/>
      <point x="476" y="283"/>
      <point x="408" y="387"/>
      <point x="322" y="387" type="curve" smooth="yes"/>
      <point x="277" y="387"/>
      <point x="239" y="371"/>
      <point x="199" y="348" type="curve"/>
      <point x="227" y="275" type="line"/>
      <point x="261" y="293"/>
      <point x="308" y="309"/>
      <point x="344" y="309" type="curve" smooth="yes"/>
      <point x="383" y="309"/>
      <point x="413" y="288"/>
      <point x="413" y="239" type="curve" smooth="yes"/>
      <point x="413" y="163"/>
      <point x="340" y="102"/>
      <point x="262" y="102" type="curve" smooth="yes"/>
      <point x="157" y="102"/>
      <point x="118" y="218"/>
      <point x="88" y="305" type="curve"/>
      <point x="49" y="285" type="line"/>
      <point x="93" y="147"/>
      <point x="156" y="29"/>
    </contour>
    <contour>
      <point x="406" y="325" type="line"/>
      <point x="452" y="358"/>
      <point x="473" y="398"/>
      <point x="473" y="453" type="curve" smooth="yes"/>
      <point x="473" y="519"/>
      <point x="426" y="620"/>
      <point x="323" y="620" type="curve" smooth="yes"/>
      <point x="279" y="620"/>
      <point x="226" y="604"/>
      <point x="161" y="570" type="curve"/>
      <point x="190" y="495" type="line"/>
      <point x="252" y="530"/>
      <point x="319" y="548"/>
      <point x="357" y="548" type="curve" smooth="yes"/>
      <point x="399" y="548"/>
      <point x="416" y="526"/>
      <point x="416" y="495" type="curve" smooth="yes"/>
      <point x="416" y="453"/>
      <point x="382" y="406"/>
      <point x="323" y="377" type="curve"/>
    </contour>
  </outline>
</glyph>
<glyph name="dSignVocalicLl" format="2">
  <unicode hex="0963"/>
  <outline>
    <contour>
      <point x="-200" y="-372" type="line"/>
      <point x="-231" y="-359"/>
      <point x="-241" y="-347"/>
      <point x="-241" y="-333" type="curve" smooth="yes"/>
      <point x="-241" y="-282"/>
      <point x="-101" y="-255"/>
      <point x="-101" y="-147" type="curve" smooth="yes"/>
      <point x="-101" y="-79"/>
      <point x="-158" y="-29"/>
      <point x="-217" y="-29" type="curve" smooth="yes"/>
      <point x="-285" y="-29"/>
      <point x="-356" y="-111"/>
      <point x="-397" y="-181" type="curve"/>
      <point x="-335" y="-216" type="line"/>
      <point x="-278" y="-129"/>
      <point x="-233" y="-89"/>
      <point x="-190" y="-89" type="curve" smooth="yes"/>
      <point x="-166" y="-89"/>
      <point x="-154" y="-102"/>
      <point x="-154" y="-122" type="curve" smooth="yes"/>
      <point x="-154" y="-193"/>
      <point x="-297" y="-234"/>
      <point x="-297" y="-309" type="curve" smooth="yes"/>
      <point x="-297" y="-340"/>
      <point x="-273" y="-375"/>
      <point x="-221" y="-402" type="curve"/>
    </contour>
    <contour>
      <point x="-429" y="-366" type="line"/>
      <point x="-388" y="-337" type="line"/>
      <point x="-458" y="-275"/>
      <point x="-480" y="-241"/>
      <point x="-480" y="-190" type="curve" smooth="yes"/>
      <point x="-480" y="-128"/>
      <point x="-436" y="-85"/>
      <point x="-383" y="-85" type="curve" smooth="yes"/>
      <point x="-362" y="-85"/>
      <point x="-341" y="-93"/>
      <point x="-330" y="-106" type="curve"/>
      <point x="-302" y="-81" type="line"/>
      <point x="-325" y="-51"/>
      <point x="-371" y="-23"/>
      <point x="-417" y="-23" type="curve" smooth="yes"/>
      <point x="-489" y="-23"/>
      <point x="-542" y="-79"/>
      <point x="-542" y="-155" type="curve" smooth="yes"/>
      <point x="-542" y="-227"/>
      <point x="-498" y="-291"/>
      <point x="-436" y="-366" type="curve"/>
    </contour>
    <contour>
      <point x="-139" y="-501" type="curve" smooth="yes"/>
      <point x="-104" y="-501"/>
      <point x="-63" y="-485"/>
      <point x="-19" y="-436" type="curve"/>
      <point x="-59" y="-386" type="line"/>
      <point x="-98" y="-430"/>
      <point x="-134" y="-457"/>
      <point x="-166" y="-457" type="curve" smooth="yes"/>
      <point x="-178" y="-457"/>
      <point x="-188" y="-453"/>
      <point x="-188" y="-439" type="curve" smooth="yes"/>
      <point x="-188" y="-417"/>
      <point x="-155" y="-383"/>
      <point x="-86" y="-347" type="curve"/>
      <point x="-124" y="-297" type="line"/>
      <point x="-183" y="-325"/>
      <point x="-241" y="-367"/>
      <point x="-241" y="-415" type="curve" smooth="yes"/>
      <point x="-241" y="-471"/>
      <point x="-187" y="-501"/>
    </contour>
  </outline>
</glyph>
<glyph name="dDot" format="2">
  <advance width="259"/>
  <unicode hex="0971"/>
  <outline>
    <contour>
      <point x="204" y="652" type="line"/>
      <point x="124" y="583" type="line"/>
      <point x="183" y="514" type="line"/>
      <point x="263" y="581" type="line"/>
    </contour>
  </outline>
  <guideline angle="0" x="0" y="582"/>
</glyph>
<glyph name="SvastiRight" format="2">
  <advance width="826"/>
  <unicode hex="0FD5"/>
  <outline>
    <contour>
      <point x="660" y="275" type="line"/>
      <point x="466" y="275" type="line"/>
      <point x="466" y="7" type="line"/>
      <point x="149" y="7" type="line"/>
      <point x="115" y="72" type="line"/>
      <point x="115" y="82" type="line"/>
      <point x="390" y="82" type="line"/>
      <point x="390" y="275" type="line"/>
      <point x="122" y="275" type="line"/>
      <point x="122" y="592" type="line"/>
      <point x="187" y="626" type="line"/>
      <point x="197" y="626" type="line"/>
      <point x="197" y="351" type="line"/>
      <point x="390" y="351" type="line"/>
      <point x="390" y="620" type="line"/>
      <point x="707" y="620" type="line"/>
      <point x="741" y="555" type="line"/>
      <point x="741" y="545" type="line"/>
      <point x="466" y="545" type="line"/>
      <point x="466" y="351" type="line"/>
      <point x="735" y="351" type="line"/>
      <point x="735" y="34" type="line"/>
      <point x="670" y="0" type="line"/>
      <point x="660" y="0" type="line"/>
    </contour>
  </outline>
  <guideline angle="0" x="0" y="313"/>
  <guideline angle="90" x="409" y="0"/>
</glyph>
<glyph name="SvastiRightDots" format="2">
  <advance width="826"/>
  <unicode hex="0FD7"/>
  <outline>
    <contour>
      <point x="617" y="448" type="line"/>
      <point x="563" y="394" type="line"/>
      <point x="509" y="448" type="line"/>
      <point x="563" y="502" type="line"/>
    </contour>
    <contour>
      <point x="617" y="178" type="line"/>
      <point x="563" y="125" type="line"/>
      <point x="509" y="178" type="line"/>
      <point x="563" y="232" type="line"/>
    </contour>
    <contour>
      <point x="346" y="448" type="line"/>
      <point x="293" y="394" type="line"/>
      <point x="239" y="448" type="line"/>
      <point x="293" y="502" type="line"/>
    </contour>
    <contour>
      <point x="346" y="178" type="line"/>
      <point x="293" y="125" type="line"/>
      <point x="239" y="178" type="line"/>
      <point x="293" y="232" type="line"/>
    </contour>
    <contour>
      <point x="660" y="275" type="line"/>
      <point x="466" y="275" type="line"/>
      <point x="466" y="7" type="line"/>
      <point x="149" y="7" type="line"/>
      <point x="115" y="72" type="line"/>
      <point x="115" y="82" type="line"/>
      <point x="390" y="82" type="line"/>
      <point x="390" y="275" type="line"/>
      <point x="122" y="275" type="line"/>
      <point x="122" y="592" type="line"/>
      <point x="187" y="626" type="line"/>
      <point x="197" y="626" type="line"/>
      <point x="197" y="351" type="line"/>
      <point x="390" y="351" type="line"/>
      <point x="390" y="620" type="line"/>
      <point x="707" y="620" type="line"/>
      <point x="741" y="555" type="line"/>
      <point x="741" y="545" type="line"/>
      <point x="466" y="545" type="line"/>
      <point x="466" y="351" type="line"/>
      <point x="735" y="351" type="line"/>
      <point x="735" y="34" type="line"/>
      <point x="670" y="0" type="line"/>
      <point x="660" y="0" type="line"/>
    </contour>
  </outline>
  <guideline angle="0" x="0" y="306"/>
  <guideline angle="0" x="0" y="448"/>
  <guideline angle="0" x="0" y="178"/>
  <guideline angle="90" x="413" y="0"/>
  <guideline angle="90" x="278" y="0"/>
  <guideline angle="90" x="548" y="0"/>
</glyph>
<glyph name="vKarshana" format="2">
  <unicode hex="1CD0"/>
  <outline>
    <contour>
      <point x="-229" y="718" type="line"/>
      <point x="-182" y="666" type="line"/>
      <point x="-5" y="805" type="line"/>
      <point x="89" y="674" type="line"/>
      <point x="93" y="674" type="line"/>
      <point x="129" y="703" type="line"/>
      <point x="-9" y="890" type="line"/>
      <point x="-13" y="890" type="line"/>
      <point x="-226" y="726" type="line"/>
    </contour>
  </outline>
</glyph>
<glyph name="vShara" format="2">
  <unicode hex="1CD1"/>
  <outline>
    <contour>
      <point x="-220" y="782" type="line"/>
      <point x="-181" y="742" type="line"/>
      <point x="1" y="888" type="line"/>
      <point x="99" y="745" type="line"/>
      <point x="103" y="745" type="line"/>
      <point x="139" y="773" type="line"/>
      <point x="5" y="960" type="line"/>
      <point x="1" y="960" type="line"/>
      <point x="-217" y="790" type="line"/>
    </contour>
    <contour>
      <point x="-36" y="843" type="line"/>
      <point x="-71" y="662" type="line"/>
      <point x="-25" y="662" type="line"/>
      <point x="10" y="843" type="line"/>
    </contour>
  </outline>
  <guideline angle="0" x="0" y="712"/>
</glyph>
<glyph name="vPrenkha" format="2">
  <unicode hex="1CD2"/>
  <outline>
    <contour>
      <point x="-188" y="780" type="line"/>
      <point x="-198" y="728" type="line"/>
      <point x="121" y="728" type="line"/>
      <point x="131" y="780" type="line"/>
    </contour>
  </outline>
</glyph>
<glyph name="vSvaritaYajurMidline" format="2">
  <unicode hex="1CD4"/>
  <outline>
    <contour>
      <point x="-278" y="283" type="line"/>
      <point x="59" y="283" type="line"/>
      <point x="60" y="288" type="line"/>
      <point x="30" y="346" type="line"/>
      <point x="-307" y="346" type="line"/>
      <point x="-308" y="341" type="line"/>
    </contour>
  </outline>
  <guideline angle="117.348" x="208" y="0"/>
</glyph>
<glyph name="vSvaritaYajurIndependent" format="2">
  <unicode hex="1CD6"/>
  <outline>
    <contour>
      <point x="-508" y="-265" type="line"/>
      <point x="-164" y="-265" type="line"/>
      <point x="-154" y="-213" type="line"/>
      <point x="-450" y="-213" type="line"/>
      <point x="-418" y="-50" type="line"/>
      <point x="-466" y="-50" type="line"/>
    </contour>
  </outline>
</glyph>
<glyph name="vSvaritaYajurKathaka" format="2">
  <unicode hex="1CD7"/>
  <outline>
    <contour>
      <point x="-130" y="-37" type="line"/>
      <point x="-139" y="30" type="line"/>
      <point x="-149" y="31"/>
      <point x="-153" y="31"/>
      <point x="-168" y="31" type="curve" smooth="yes"/>
      <point x="-315" y="31"/>
      <point x="-361" y="-47"/>
      <point x="-361" y="-101" type="curve" smooth="yes"/>
      <point x="-361" y="-164"/>
      <point x="-317" y="-237"/>
      <point x="-159" y="-237" type="curve" smooth="yes"/>
      <point x="-122" y="-237"/>
      <point x="-73" y="-234"/>
      <point x="-16" y="-224" type="curve"/>
      <point x="-23" y="-170" type="line"/>
      <point x="-28" y="-165" type="line"/>
      <point x="-108" y="-181"/>
      <point x="-143" y="-184"/>
      <point x="-176" y="-184" type="curve" smooth="yes"/>
      <point x="-258" y="-184"/>
      <point x="-302" y="-166"/>
      <point x="-302" y="-120" type="curve" smooth="yes"/>
      <point x="-302" y="-77"/>
      <point x="-256" y="-44"/>
      <point x="-174" y="-44" type="curve" smooth="yes"/>
      <point x="-161" y="-44"/>
      <point x="-143" y="-45"/>
      <point x="-134" y="-46" type="curve"/>
    </contour>
  </outline>
</glyph>
<glyph name="vCandraBelow" format="2">
  <unicode hex="1CD8"/>
  <outline>
    <contour>
      <point x="-508" y="-68" type="line"/>
      <point x="-470" y="-152"/>
      <point x="-396" y="-209"/>
      <point x="-293" y="-209" type="curve" smooth="yes"/>
      <point x="-206" y="-209"/>
      <point x="-131" y="-177"/>
      <point x="-71" y="-89" type="curve"/>
      <point x="-133" y="-36" type="line"/>
      <point x="-169" y="-87"/>
      <point x="-233" y="-142"/>
      <point x="-317" y="-142" type="curve" smooth="yes"/>
      <point x="-375" y="-142"/>
      <point x="-432" y="-116"/>
      <point x="-475" y="-44" type="curve"/>
    </contour>
  </outline>
  <guideline angle="90" x="-87" y="0"/>
</glyph>
<glyph name="vSvaritaYajurKathakaSchroeder" format="2">
  <unicode hex="1CD9"/>
  <outline>
    <contour>
      <point x="-379" y="-208" type="line"/>
      <point x="-327" y="-256" type="line"/>
      <point x="-173" y="-115" type="line"/>
      <point x="-51" y="-251" type="line"/>
      <point x="-47" y="-251" type="line"/>
      <point x="-13" y="-222" type="line"/>
      <point x="-186" y="-36" type="line"/>
      <point x="-190" y="-36" type="line"/>
      <point x="-376" y="-200" type="line"/>
    </contour>
  </outline>
</glyph>
<glyph name="vAnudattaKathaka" format="2">
  <unicode hex="1CDC"/>
  <outline>
    <contour>
      <point x="-213" y="-50" type="line"/>
      <point x="-261" y="-295" type="line"/>
      <point x="-213" y="-295" type="line"/>
      <point x="-165" y="-50" type="line"/>
    </contour>
  </outline>
</glyph>
<glyph name="vDotBelow" format="2">
  <unicode hex="1CDD"/>
  <outline>
    <contour>
      <point x="-203" y="-100" type="line"/>
      <point x="-276" y="-164" type="line"/>
      <point x="-221" y="-228" type="line"/>
      <point x="-148" y="-166" type="line"/>
    </contour>
  </outline>
</glyph>
<glyph name="vVisargaSvaritacomb" format="2">
  <unicode hex="1CE2"/>
  <outline>
    <contour>
      <point x="212" y="239" type="line"/>
      <point x="214" y="249" type="line"/>
      <point x="184" y="310" type="line"/>
      <point x="-213" y="310" type="line"/>
      <point x="-215" y="300" type="line"/>
      <point x="-185" y="239" type="line"/>
    </contour>
  </outline>
  <guideline angle="0" x="0" y="274"/>
</glyph>
<glyph name="vVisargaUdattacomb" format="2">
  <unicode hex="1CE3"/>
  <outline>
    <contour>
      <point x="-113" y="319" type="line"/>
      <point x="-78" y="246" type="line"/>
      <point x="-49" y="238"/>
      <point x="-19" y="236"/>
      <point x="5" y="236" type="curve" smooth="yes"/>
      <point x="148" y="236"/>
      <point x="229" y="307"/>
      <point x="229" y="411" type="curve" smooth="yes"/>
      <point x="229" y="503"/>
      <point x="165" y="603"/>
      <point x="115" y="675" type="curve"/>
      <point x="84" y="650" type="line"/>
      <point x="141" y="569"/>
      <point x="174" y="506"/>
      <point x="174" y="448" type="curve" smooth="yes"/>
      <point x="174" y="371"/>
      <point x="116" y="310"/>
      <point x="-4" y="310" type="curve" smooth="yes"/>
      <point x="-38" y="310"/>
      <point x="-75" y="315"/>
      <point x="-110" y="323" type="curve"/>
    </contour>
  </outline>
</glyph>
<glyph name="vVisargaUdattaTailcomb" format="2">
  <unicode hex="1CE7"/>
  <outline>
    <contour>
      <point x="381" y="668" type="line"/>
      <point x="343" y="755"/>
      <point x="288" y="788"/>
      <point x="225" y="788" type="curve" smooth="yes"/>
      <point x="150" y="788"/>
      <point x="103" y="734"/>
      <point x="103" y="669" type="curve" smooth="yes"/>
      <point x="103" y="583"/>
      <point x="174" y="547"/>
      <point x="174" y="449" type="curve" smooth="yes"/>
      <point x="174" y="364"/>
      <point x="110" y="310"/>
      <point x="-3" y="310" type="curve" smooth="yes"/>
      <point x="-45" y="310"/>
      <point x="-78" y="315"/>
      <point x="-113" y="323" type="curve"/>
      <point x="-116" y="319" type="line"/>
      <point x="-74" y="246" type="line"/>
      <point x="-48" y="239"/>
      <point x="-19" y="236"/>
      <point x="12" y="236" type="curve" smooth="yes"/>
      <point x="136" y="236"/>
      <point x="230" y="293"/>
      <point x="230" y="409" type="curve" smooth="yes"/>
      <point x="230" y="510"/>
      <point x="160" y="577"/>
      <point x="160" y="639" type="curve" smooth="yes"/>
      <point x="160" y="687"/>
      <point x="199" y="724"/>
      <point x="252" y="724" type="curve" smooth="yes"/>
      <point x="286" y="724"/>
      <point x="325" y="710"/>
      <point x="353" y="652" type="curve"/>
    </contour>
  </outline>
</glyph>
<glyph name="vAnusvaraAntargomukha" format="2">
  <advance width="785"/>
  <unicode hex="1CE9"/>
  <outline>
    <contour>
      <point x="138" y="318" type="line"/>
      <point x="336" y="335"/>
      <point x="436" y="396"/>
      <point x="436" y="500" type="curve" smooth="yes"/>
      <point x="436" y="565"/>
      <point x="390" y="630"/>
      <point x="314" y="630" type="curve" smooth="yes"/>
      <point x="199" y="630"/>
      <point x="97" y="513"/>
      <point x="97" y="325" type="curve" smooth="yes"/>
      <point x="97" y="141"/>
      <point x="213" y="7"/>
      <point x="400" y="7" type="curve" smooth="yes"/>
      <point x="607" y="7"/>
      <point x="765" y="156"/>
      <point x="765" y="400" type="curve" smooth="yes"/>
      <point x="765" y="550"/>
      <point x="697" y="633"/>
      <point x="608" y="633" type="curve" smooth="yes"/>
      <point x="537" y="633"/>
      <point x="484" y="586"/>
      <point x="484" y="517" type="curve" smooth="yes"/>
      <point x="484" y="426"/>
      <point x="579" y="364"/>
      <point x="693" y="340" type="curve"/>
      <point x="712" y="379" type="line"/>
      <point x="616" y="399"/>
      <point x="565" y="432"/>
      <point x="565" y="490" type="curve" smooth="yes"/>
      <point x="565" y="535"/>
      <point x="590" y="566"/>
      <point x="632" y="566" type="curve" smooth="yes"/>
      <point x="665" y="566"/>
      <point x="704" y="547"/>
      <point x="704" y="444" type="curve" smooth="yes"/>
      <point x="704" y="224"/>
      <point x="550" y="74"/>
      <point x="369" y="74" type="curve" smooth="yes"/>
      <point x="244" y="74"/>
      <point x="158" y="142"/>
      <point x="158" y="297" type="curve" smooth="yes"/>
      <point x="158" y="446"/>
      <point x="241" y="559"/>
      <point x="338" y="559" type="curve" smooth="yes"/>
      <point x="378" y="559"/>
      <point x="389" y="540"/>
      <point x="389" y="516" type="curve" smooth="yes"/>
      <point x="389" y="458"/>
      <point x="290" y="407"/>
      <point x="159" y="400" type="curve"/>
    </contour>
  </outline>
  <guideline angle="0" x="0" y="373"/>
</glyph>
<glyph name="vAnusvaraVamagomukha" format="2">
  <advance width="811"/>
  <unicode hex="1CEB"/>
  <outline>
    <contour>
      <point x="427" y="7" type="curve" smooth="yes"/>
      <point x="647" y="7"/>
      <point x="790" y="171"/>
      <point x="790" y="403" type="curve" smooth="yes"/>
      <point x="790" y="549"/>
      <point x="716" y="633"/>
      <point x="627" y="633" type="curve" smooth="yes"/>
      <point x="561" y="633"/>
      <point x="510" y="588"/>
      <point x="510" y="514" type="curve" smooth="yes"/>
      <point x="510" y="425"/>
      <point x="604" y="364"/>
      <point x="729" y="339" type="curve"/>
      <point x="737" y="379" type="line"/>
      <point x="641" y="399"/>
      <point x="590" y="432"/>
      <point x="590" y="495" type="curve" smooth="yes"/>
      <point x="590" y="543"/>
      <point x="624" y="566"/>
      <point x="659" y="566" type="curve" smooth="yes"/>
      <point x="689" y="566"/>
      <point x="730" y="544"/>
      <point x="730" y="450" type="curve" smooth="yes"/>
      <point x="730" y="146"/>
      <point x="505" y="73"/>
      <point x="393" y="73" type="curve" smooth="yes"/>
      <point x="264" y="73"/>
      <point x="207" y="131"/>
      <point x="190" y="215" type="curve"/>
      <point x="338" y="260"/>
      <point x="432" y="325"/>
      <point x="432" y="451" type="curve" smooth="yes"/>
      <point x="432" y="547"/>
      <point x="373" y="633"/>
      <point x="271" y="633" type="curve" smooth="yes"/>
      <point x="188" y="633"/>
      <point x="131" y="577"/>
      <point x="131" y="495" type="curve" smooth="yes"/>
      <point x="131" y="442"/>
      <point x="161" y="394"/>
      <point x="220" y="394" type="curve" smooth="yes"/>
      <point x="228" y="394"/>
      <point x="232" y="394"/>
      <point x="240" y="396" type="curve"/>
      <point x="242" y="407" type="line"/>
      <point x="222" y="418"/>
      <point x="203" y="442"/>
      <point x="203" y="473" type="curve" smooth="yes"/>
      <point x="203" y="527"/>
      <point x="251" y="566"/>
      <point x="303" y="566" type="curve" smooth="yes"/>
      <point x="340" y="566"/>
      <point x="371" y="547"/>
      <point x="371" y="488" type="curve" smooth="yes"/>
      <point x="371" y="382"/>
      <point x="279" y="337"/>
      <point x="123" y="285" type="curve"/>
      <point x="130" y="132"/>
      <point x="231" y="7"/>
    </contour>
  </outline>
</glyph>
<glyph name="vAnusvaraLondHexiform" format="2">
  <advance width="640"/>
  <unicode hex="1CEE"/>
  <outline>
    <contour>
      <point x="376" y="-4" type="curve" smooth="yes"/>
      <point x="469" y="-4"/>
      <point x="522" y="47"/>
      <point x="522" y="95" type="curve" smooth="yes"/>
      <point x="522" y="137"/>
      <point x="465" y="177"/>
      <point x="426" y="177" type="curve" smooth="yes"/>
      <point x="395" y="177"/>
      <point x="384" y="162"/>
      <point x="384" y="133" type="curve" smooth="yes"/>
      <point x="384" y="119"/>
      <point x="388" y="96"/>
      <point x="395" y="77" type="curve"/>
      <point x="377" y="66"/>
      <point x="353" y="62"/>
      <point x="333" y="62" type="curve" smooth="yes"/>
      <point x="273" y="62"/>
      <point x="218" y="99"/>
      <point x="218" y="172" type="curve" smooth="yes"/>
      <point x="218" y="278"/>
      <point x="307" y="299"/>
      <point x="400" y="299" type="curve" smooth="yes"/>
      <point x="432" y="299"/>
      <point x="463" y="296"/>
      <point x="488" y="292" type="curve"/>
      <point x="490" y="302" type="line"/>
      <point x="469" y="370" type="line"/>
      <point x="441" y="374"/>
      <point x="413" y="375"/>
      <point x="394" y="375" type="curve" smooth="yes"/>
      <point x="244" y="375"/>
      <point x="152" y="324"/>
      <point x="152" y="217" type="curve" smooth="yes"/>
      <point x="152" y="116"/>
      <point x="247" y="-4"/>
    </contour>
    <contour>
      <point x="282" y="351" type="line"/>
      <point x="231" y="371"/>
      <point x="204" y="412"/>
      <point x="204" y="454" type="curve" smooth="yes"/>
      <point x="204" y="541"/>
      <point x="293" y="557"/>
      <point x="371" y="557" type="curve" smooth="yes"/>
      <point x="416" y="557"/>
      <point x="450" y="550"/>
      <point x="476" y="544" type="curve"/>
      <point x="478" y="554" type="line"/>
      <point x="457" y="623" type="line"/>
      <point x="429" y="629"/>
      <point x="399" y="633"/>
      <point x="359" y="633" type="curve" smooth="yes"/>
      <point x="252" y="633"/>
      <point x="137" y="604"/>
      <point x="137" y="492" type="curve" smooth="yes"/>
      <point x="137" y="433"/>
      <point x="174" y="367"/>
      <point x="232" y="326" type="curve"/>
    </contour>
    <contour>
      <point x="646" y="333" type="line"/>
      <point x="592" y="397" type="line"/>
      <point x="521" y="335" type="line"/>
      <point x="574" y="273" type="line"/>
    </contour>
  </outline>
  <guideline angle="0" x="0" y="402"/>
  <guideline angle="0" x="0" y="331"/>
  <guideline angle="0" x="0" y="56"/>
</glyph>
<glyph name="vAnusvaraLong" format="2">
  <advance width="533"/>
  <unicode hex="1CEF"/>
  <outline>
    <contour>
      <point x="451" y="375" type="line"/>
      <point x="412" y="366"/>
      <point x="377" y="362"/>
      <point x="348" y="362" type="curve" smooth="yes"/>
      <point x="257" y="362"/>
      <point x="205" y="402"/>
      <point x="205" y="462" type="curve" smooth="yes"/>
      <point x="205" y="542"/>
      <point x="297" y="557"/>
      <point x="368" y="557" type="curve" smooth="yes"/>
      <point x="416" y="557"/>
      <point x="450" y="550"/>
      <point x="477" y="544" type="curve"/>
      <point x="479" y="554" type="line"/>
      <point x="453" y="623" type="line"/>
      <point x="426" y="629"/>
      <point x="397" y="633"/>
      <point x="357" y="633" type="curve" smooth="yes"/>
      <point x="250" y="633"/>
      <point x="138" y="607"/>
      <point x="138" y="498" type="curve" smooth="yes"/>
      <point x="138" y="391"/>
      <point x="250" y="287"/>
      <point x="388" y="287" type="curve" smooth="yes"/>
      <point x="408" y="287"/>
      <point x="436" y="289"/>
      <point x="460" y="294" type="curve"/>
    </contour>
    <contour>
      <point x="276" y="361" type="line"/>
      <point x="189" y="272"/>
      <point x="157" y="220"/>
      <point x="157" y="162" type="curve" smooth="yes"/>
      <point x="157" y="70"/>
      <point x="238" y="-10"/>
      <point x="318" y="-10" type="curve" smooth="yes"/>
      <point x="389" y="-10"/>
      <point x="442" y="34"/>
      <point x="442" y="100" type="curve" smooth="yes"/>
      <point x="442" y="175"/>
      <point x="356" y="241"/>
      <point x="287" y="284" type="curve"/>
      <point x="254" y="252" type="line"/>
      <point x="326" y="209"/>
      <point x="368" y="174"/>
      <point x="368" y="131" type="curve" smooth="yes"/>
      <point x="368" y="95"/>
      <point x="335" y="59"/>
      <point x="284" y="59" type="curve" smooth="yes"/>
      <point x="239" y="59"/>
      <point x="218" y="85"/>
      <point x="218" y="121" type="curve" smooth="yes"/>
      <point x="218" y="183"/>
      <point x="300" y="273"/>
      <point x="362" y="334" type="curve"/>
    </contour>
    <contour>
      <point x="414" y="461" type="line"/>
      <point x="360" y="525" type="line"/>
      <point x="289" y="463" type="line"/>
      <point x="342" y="401" type="line"/>
    </contour>
  </outline>
</glyph>
<glyph name="vAnusvaraLongRthang" format="2">
  <advance width="545"/>
  <unicode hex="1CF0"/>
  <outline>
    <contour>
      <point x="324" y="334" type="line"/>
      <point x="386" y="290"/>
      <point x="410" y="251"/>
      <point x="410" y="200" type="curve" smooth="yes"/>
      <point x="410" y="105"/>
      <point x="323" y="65"/>
      <point x="248" y="65" type="curve" smooth="yes"/>
      <point x="182" y="65"/>
      <point x="135" y="99"/>
      <point x="135" y="164" type="curve" smooth="yes"/>
      <point x="135" y="244"/>
      <point x="195" y="272"/>
      <point x="254" y="292" type="curve" smooth="yes"/>
      <point x="312" y="311"/>
      <point x="369" y="322"/>
      <point x="369" y="373" type="curve" smooth="yes"/>
      <point x="369" y="403"/>
      <point x="345" y="430"/>
      <point x="327" y="463" type="curve" smooth="yes"/>
      <point x="316" y="484"/>
      <point x="307" y="509"/>
      <point x="307" y="535" type="curve" smooth="yes"/>
      <point x="307" y="585"/>
      <point x="341" y="632"/>
      <point x="416" y="632" type="curve" smooth="yes"/>
      <point x="444" y="632"/>
      <point x="467" y="625"/>
      <point x="487" y="616" type="curve"/>
      <point x="492" y="622" type="line"/>
      <point x="484" y="676"/>
      <point x="441" y="703"/>
      <point x="382" y="703" type="curve" smooth="yes"/>
      <point x="280" y="703"/>
      <point x="240" y="629"/>
      <point x="240" y="569" type="curve" smooth="yes"/>
      <point x="240" y="519"/>
      <point x="262" y="486"/>
      <point x="276" y="460" type="curve" smooth="yes"/>
      <point x="289" y="437"/>
      <point x="301" y="418"/>
      <point x="301" y="406" type="curve" smooth="yes"/>
      <point x="301" y="384"/>
      <point x="257" y="376"/>
      <point x="210" y="362" type="curve" smooth="yes"/>
      <point x="144" y="342"/>
      <point x="68" y="311"/>
      <point x="68" y="204" type="curve" smooth="yes"/>
      <point x="68" y="98"/>
      <point x="164" y="-6"/>
      <point x="285" y="-6" type="curve" smooth="yes"/>
      <point x="383" y="-6"/>
      <point x="484" y="44"/>
      <point x="484" y="171" type="curve" smooth="yes"/>
      <point x="484" y="236"/>
      <point x="446" y="308"/>
      <point x="354" y="361" type="curve"/>
    </contour>
    <contour>
      <point x="467" y="533" type="line"/>
      <point x="413" y="597" type="line"/>
      <point x="342" y="535" type="line"/>
      <point x="395" y="473" type="line"/>
    </contour>
  </outline>
</glyph>
<glyph name="vJihvamuliya" format="2">
  <advance width="562"/>
  <unicode hex="1CF5"/>
  <outline>
    <contour>
      <point x="177" y="545" type="line"/>
      <point x="478" y="545" type="line"/>
      <point x="569" y="610" type="line"/>
      <point x="571" y="620" type="line"/>
      <point x="115" y="620" type="line"/>
      <point x="113" y="610" type="line"/>
    </contour>
    <contour>
      <point x="409" y="10" type="line"/>
      <point x="461" y="10" type="line"/>
      <point x="168" y="610" type="line"/>
      <point x="113" y="610" type="line"/>
    </contour>
    <contour>
      <point x="-1" y="10" type="line"/>
      <point x="-3" y="0" type="line"/>
      <point x="459" y="0" type="line"/>
      <point x="461" y="10" type="line"/>
      <point x="396" y="75" type="line"/>
      <point x="89" y="75" type="line"/>
    </contour>
    <contour>
      <point x="-1" y="10" type="line"/>
      <point x="70" y="10" type="line"/>
      <point x="569" y="610" type="line"/>
      <point x="500" y="610" type="line"/>
    </contour>
  </outline>
  <guideline angle="90" x="79" y="0"/>
  <guideline angle="90" x="504" y="0"/>
</glyph>
<glyph name="vRingAbove" format="2">
  <unicode hex="1CF8"/>
  <outline>
    <contour>
      <point x="-136" y="776" type="curve" smooth="yes"/>
      <point x="-136" y="719"/>
      <point x="-91" y="679"/>
      <point x="-37" y="679" type="curve" smooth="yes"/>
      <point x="24" y="679"/>
      <point x="82" y="721"/>
      <point x="82" y="793" type="curve" smooth="yes"/>
      <point x="82" y="850"/>
      <point x="38" y="892"/>
      <point x="-18" y="892" type="curve" smooth="yes"/>
      <point x="-87" y="892"/>
      <point x="-136" y="842"/>
    </contour>
    <contour>
      <point x="-95" y="777" type="curve" smooth="yes"/>
      <point x="-95" y="815"/>
      <point x="-67" y="851"/>
      <point x="-21" y="851" type="curve" smooth="yes"/>
      <point x="16" y="851"/>
      <point x="39" y="827"/>
      <point x="39" y="791" type="curve" smooth="yes"/>
      <point x="39" y="748"/>
      <point x="6" y="720"/>
      <point x="-35" y="720" type="curve" smooth="yes"/>
      <point x="-71" y="720"/>
      <point x="-95" y="741"/>
    </contour>
  </outline>
</glyph>
<glyph name="dTwocomb" format="2">
  <unicode hex="A8E2"/>
  <outline>
    <contour>
      <point x="-18" y="644" type="line"/>
      <point x="13" y="659" type="line"/>
      <point x="-40" y="773" type="line"/>
      <point x="-41" y="791" type="line"/>
      <point x="-54" y="816"/>
      <point x="-65" y="838"/>
      <point x="-80" y="838" type="curve" smooth="yes"/>
      <point x="-93" y="838"/>
      <point x="-111" y="821"/>
      <point x="-111" y="788" type="curve" smooth="yes"/>
      <point x="-111" y="761"/>
      <point x="-90" y="753"/>
      <point x="-58" y="753" type="curve" smooth="yes"/>
      <point x="-22" y="753"/>
      <point x="67" y="783"/>
      <point x="67" y="862" type="curve" smooth="yes"/>
      <point x="67" y="907"/>
      <point x="24" y="945"/>
      <point x="-19" y="945" type="curve" smooth="yes"/>
      <point x="-46" y="945"/>
      <point x="-75" y="937"/>
      <point x="-106" y="921" type="curve"/>
      <point x="-90" y="879" type="line"/>
      <point x="-59" y="896"/>
      <point x="-25" y="908"/>
      <point x="-1" y="908" type="curve" smooth="yes"/>
      <point x="20" y="908"/>
      <point x="32" y="896"/>
      <point x="32" y="878" type="curve" smooth="yes"/>
      <point x="32" y="835"/>
      <point x="-7" y="805"/>
      <point x="-73" y="800" type="curve"/>
      <point x="-23" y="644" type="line"/>
    </contour>
  </outline>
  <guideline angle="90" x="86" y="0"/>
</glyph>
<glyph name="dThreecomb" format="2">
  <unicode hex="A8E3"/>
  <outline>
    <contour>
      <point x="-46" y="638" type="line"/>
      <point x="-19" y="653" type="line"/>
      <point x="-56" y="720" type="line"/>
      <point x="-51" y="730" type="line"/>
      <point x="-77" y="777"/>
      <point x="-90" y="789"/>
      <point x="-105" y="789" type="curve" smooth="yes"/>
      <point x="-121" y="789"/>
      <point x="-130" y="775"/>
      <point x="-130" y="752" type="curve" smooth="yes"/>
      <point x="-130" y="724"/>
      <point x="-97" y="706"/>
      <point x="-48" y="706" type="curve" smooth="yes"/>
      <point x="-12" y="706"/>
      <point x="48" y="723"/>
      <point x="48" y="777" type="curve" smooth="yes"/>
      <point x="48" y="819"/>
      <point x="-1" y="859"/>
      <point x="-34" y="859" type="curve" smooth="yes"/>
      <point x="-50" y="859"/>
      <point x="-74" y="851"/>
      <point x="-89" y="843" type="curve"/>
      <point x="-75" y="806" type="line"/>
      <point x="-59" y="813"/>
      <point x="-37" y="819"/>
      <point x="-20" y="819" type="curve" smooth="yes"/>
      <point x="-3" y="819"/>
      <point x="12" y="810"/>
      <point x="12" y="792" type="curve" smooth="yes"/>
      <point x="12" y="765"/>
      <point x="-11" y="744"/>
      <point x="-69" y="746" type="curve"/>
      <point x="-79" y="714" type="line"/>
      <point x="-51" y="638" type="line"/>
    </contour>
    <contour>
      <point x="9" y="820" type="line"/>
      <point x="36" y="840"/>
      <point x="46" y="854"/>
      <point x="46" y="879" type="curve" smooth="yes"/>
      <point x="46" y="918"/>
      <point x="7" y="947"/>
      <point x="-30" y="947" type="curve" smooth="yes"/>
      <point x="-52" y="947"/>
      <point x="-78" y="938"/>
      <point x="-103" y="926" type="curve"/>
      <point x="-89" y="888" type="line"/>
      <point x="-61" y="901"/>
      <point x="-34" y="909"/>
      <point x="-14" y="909" type="curve" smooth="yes"/>
      <point x="2" y="909"/>
      <point x="13" y="904"/>
      <point x="13" y="891" type="curve" smooth="yes"/>
      <point x="13" y="874"/>
      <point x="-5" y="857"/>
      <point x="-27" y="850" type="curve"/>
    </contour>
  </outline>
  <guideline angle="90" x="96" y="0"/>
</glyph>
<glyph name="dFivecomb" format="2">
  <unicode hex="A8E5"/>
  <outline>
    <contour>
      <point x="72" y="650" type="line"/>
      <point x="30" y="817" type="line"/>
      <point x="18" y="799"/>
      <point x="-16" y="776"/>
      <point x="-44" y="776" type="curve" smooth="yes"/>
      <point x="-69" y="776"/>
      <point x="-81" y="789"/>
      <point x="-81" y="812" type="curve" smooth="yes"/>
      <point x="-81" y="832"/>
      <point x="-60" y="878"/>
      <point x="-34" y="923" type="curve"/>
      <point x="-72" y="947" type="line"/>
      <point x="-80" y="947" type="line"/>
      <point x="-100" y="905"/>
      <point x="-119" y="856"/>
      <point x="-119" y="835" type="curve" smooth="yes"/>
      <point x="-119" y="786"/>
      <point x="-68" y="736"/>
      <point x="-24" y="736" type="curve" smooth="yes"/>
      <point x="23" y="736"/>
      <point x="74" y="781"/>
      <point x="74" y="811" type="curve" smooth="yes"/>
      <point x="74" y="831"/>
      <point x="42" y="858"/>
      <point x="24" y="858" type="curve" smooth="yes"/>
      <point x="10" y="858"/>
      <point x="5" y="847"/>
      <point x="5" y="833" type="curve" smooth="yes"/>
      <point x="5" y="824"/>
      <point x="8" y="804"/>
      <point x="13" y="784" type="curve"/>
      <point x="16" y="777" type="line"/>
      <point x="38" y="641" type="line"/>
      <point x="43" y="640" type="line"/>
    </contour>
  </outline>
  <guideline angle="90" x="99" y="0"/>
</glyph>
<glyph name="dSixcomb" format="2">
  <unicode hex="A8E6"/>
  <outline>
    <contour>
      <point x="42" y="638" type="line"/>
      <point x="69" y="653" type="line"/>
      <point x="12" y="759" type="line"/>
      <point x="-2" y="749"/>
      <point x="-21" y="741"/>
      <point x="-45" y="741" type="curve" smooth="yes"/>
      <point x="-64" y="741"/>
      <point x="-81" y="746"/>
      <point x="-81" y="767" type="curve" smooth="yes"/>
      <point x="-81" y="790"/>
      <point x="-60" y="820"/>
      <point x="35" y="821" type="curve"/>
      <point x="22" y="860" type="line"/>
      <point x="-39" y="859"/>
      <point x="-116" y="844"/>
      <point x="-116" y="785" type="curve" smooth="yes"/>
      <point x="-116" y="745"/>
      <point x="-78" y="705"/>
      <point x="-23" y="705" type="curve" smooth="yes"/>
      <point x="18" y="705"/>
      <point x="58" y="725"/>
      <point x="58" y="752" type="curve" smooth="yes"/>
      <point x="58" y="772"/>
      <point x="30" y="793"/>
      <point x="10" y="793" type="curve" smooth="yes"/>
      <point x="-4" y="793"/>
      <point x="-8" y="786"/>
      <point x="-8" y="770" type="curve" smooth="yes"/>
      <point x="-8" y="754"/>
      <point x="0" y="737"/>
      <point x="4" y="726" type="curve" smooth="yes"/>
      <point x="37" y="638" type="line"/>
    </contour>
    <contour>
      <point x="-55" y="843" type="line"/>
      <point x="-65" y="849"/>
      <point x="-72" y="858"/>
      <point x="-72" y="872" type="curve" smooth="yes"/>
      <point x="-72" y="897"/>
      <point x="-39" y="904"/>
      <point x="-8" y="904" type="curve" smooth="yes"/>
      <point x="7" y="904"/>
      <point x="26" y="902"/>
      <point x="37" y="900" type="curve"/>
      <point x="31" y="942" type="line"/>
      <point x="17" y="944"/>
      <point x="-1" y="946"/>
      <point x="-17" y="946" type="curve" smooth="yes"/>
      <point x="-69" y="946"/>
      <point x="-109" y="929"/>
      <point x="-109" y="892" type="curve" smooth="yes"/>
      <point x="-109" y="869"/>
      <point x="-96" y="848"/>
      <point x="-76" y="829" type="curve"/>
    </contour>
  </outline>
  <guideline angle="0" x="0" y="153"/>
  <guideline angle="0" x="0" y="126"/>
  <guideline angle="0" x="0" y="21"/>
  <guideline angle="0" x="0" y="838"/>
  <guideline angle="0" x="0" y="801"/>
  <guideline angle="90" x="100" y="0"/>
</glyph>
<glyph name="dEightcomb" format="2">
  <unicode hex="A8E8"/>
  <outline>
    <contour>
      <point x="25" y="757" type="line"/>
      <point x="-5" y="733"/>
      <point x="-27" y="718"/>
      <point x="-52" y="718" type="curve" smooth="yes"/>
      <point x="-75" y="718"/>
      <point x="-88" y="728"/>
      <point x="-88" y="746" type="curve" smooth="yes"/>
      <point x="-88" y="772"/>
      <point x="-57" y="803"/>
      <point x="62" y="894" type="curve"/>
      <point x="48" y="939" type="line"/>
      <point x="45" y="939" type="line"/>
      <point x="-90" y="836"/>
      <point x="-123" y="800"/>
      <point x="-123" y="771" type="curve" smooth="yes"/>
      <point x="-123" y="735"/>
      <point x="-95" y="681"/>
      <point x="-34" y="681" type="curve" smooth="yes"/>
      <point x="-5" y="681"/>
      <point x="26" y="694"/>
      <point x="54" y="722" type="curve"/>
    </contour>
  </outline>
  <guideline angle="90" x="100" y="0"/>
</glyph>
<glyph name="dNinecomb" format="2">
  <unicode hex="A8E9"/>
  <outline>
    <contour>
      <point x="-29" y="780" type="line"/>
      <point x="17" y="791"/>
      <point x="68" y="819"/>
      <point x="68" y="863" type="curve" smooth="yes"/>
      <point x="68" y="899"/>
      <point x="30" y="946"/>
      <point x="-20" y="946" type="curve" smooth="yes"/>
      <point x="-67" y="946"/>
      <point x="-102" y="910"/>
      <point x="-102" y="874" type="curve" smooth="yes"/>
      <point x="-102" y="848"/>
      <point x="-87" y="826"/>
      <point x="-52" y="783" type="curve" smooth="yes"/>
      <point x="-7" y="728"/>
      <point x="0" y="713"/>
      <point x="0" y="704" type="curve" smooth="yes"/>
      <point x="0" y="693"/>
      <point x="-3" y="685"/>
      <point x="-19" y="678" type="curve"/>
      <point x="6" y="645" type="line"/>
      <point x="29" y="654"/>
      <point x="42" y="668"/>
      <point x="42" y="682" type="curve" smooth="yes"/>
      <point x="42" y="702"/>
      <point x="18" y="740"/>
      <point x="-33" y="801" type="curve" smooth="yes"/>
      <point x="-56" y="829"/>
      <point x="-62" y="838"/>
      <point x="-62" y="853" type="curve" smooth="yes"/>
      <point x="-62" y="886"/>
      <point x="-29" y="910"/>
      <point x="-3" y="910" type="curve" smooth="yes"/>
      <point x="16" y="910"/>
      <point x="28" y="899"/>
      <point x="28" y="883" type="curve" smooth="yes"/>
      <point x="28" y="851"/>
      <point x="-12" y="820"/>
      <point x="-59" y="816" type="curve"/>
    </contour>
  </outline>
</glyph>
<glyph name="dUcomb" format="2">
  <unicode hex="A8EB"/>
  <outline>
    <contour>
      <point x="-34" y="680" type="curve" smooth="yes"/>
      <point x="16" y="680"/>
      <point x="58" y="708"/>
      <point x="58" y="756" type="curve" smooth="yes"/>
      <point x="58" y="787"/>
      <point x="42" y="815"/>
      <point x="18" y="835" type="curve"/>
      <point x="-41" y="800" type="line"/>
      <point x="-30" y="800"/>
      <point x="-21" y="805"/>
      <point x="-9" y="805" type="curve" smooth="yes"/>
      <point x="9" y="805"/>
      <point x="19" y="794"/>
      <point x="19" y="773" type="curve" smooth="yes"/>
      <point x="19" y="743"/>
      <point x="-12" y="721"/>
      <point x="-41" y="721" type="curve" smooth="yes"/>
      <point x="-100" y="721"/>
      <point x="-122" y="776"/>
      <point x="-135" y="816" type="curve"/>
      <point x="-155" y="805" type="line"/>
      <point x="-134" y="739"/>
      <point x="-103" y="680"/>
    </contour>
    <contour>
      <point x="-70" y="793" type="line"/>
      <point x="3" y="804"/>
      <point x="51" y="827"/>
      <point x="51" y="878" type="curve" smooth="yes"/>
      <point x="51" y="889"/>
      <point x="48" y="900"/>
      <point x="42" y="912" type="curve"/>
      <point x="9" y="912" type="line"/>
      <point x="11" y="903"/>
      <point x="13" y="895"/>
      <point x="13" y="887" type="curve" smooth="yes"/>
      <point x="13" y="861"/>
      <point x="-5" y="847"/>
      <point x="-84" y="834" type="curve"/>
      <point x="-84" y="831" type="line"/>
    </contour>
    <contour>
      <point x="110" y="903" type="line"/>
      <point x="110" y="907" type="line"/>
      <point x="94" y="943" type="line"/>
      <point x="-154" y="943" type="line"/>
      <point x="-155" y="938" type="line"/>
      <point x="-137" y="903" type="line"/>
    </contour>
  </outline>
  <guideline angle="90" x="89" y="0"/>
</glyph>
<glyph name="dNacomb" format="2">
  <unicode hex="A8ED"/>
  <outline>
    <contour>
      <point x="-95" y="751" type="curve" smooth="yes"/>
      <point x="-80" y="751"/>
      <point x="-74" y="764"/>
      <point x="-68" y="798" type="curve"/>
      <point x="10" y="798" type="line"/>
      <point x="21" y="836" type="line"/>
      <point x="-33" y="839"/>
      <point x="-85" y="840"/>
      <point x="-101" y="840" type="curve" smooth="yes"/>
      <point x="-126" y="840"/>
      <point x="-143" y="837"/>
      <point x="-143" y="817" type="curve" smooth="yes"/>
      <point x="-143" y="791"/>
      <point x="-118" y="751"/>
    </contour>
    <contour>
      <point x="23" y="668" type="line"/>
      <point x="72" y="924" type="line"/>
      <point x="26" y="924" type="line"/>
      <point x="-19" y="700" type="line"/>
      <point x="8" y="668" type="line"/>
    </contour>
    <contour>
      <point x="122" y="903" type="line"/>
      <point x="122" y="907" type="line"/>
      <point x="105" y="943" type="line"/>
      <point x="-155" y="943" type="line"/>
      <point x="-155" y="939" type="line"/>
      <point x="-138" y="903" type="line"/>
    </contour>
  </outline>
  <guideline angle="90" x="76" y="0"/>
</glyph>
<glyph name="dVicomb" format="2">
  <unicode hex="A8F0"/>
  <outline>
    <contour>
      <point x="-112" y="934" type="line"/>
      <point x="-115" y="944"/>
      <point x="-117" y="955"/>
      <point x="-117" y="964" type="curve" smooth="yes"/>
      <point x="-117" y="990"/>
      <point x="-95" y="1016"/>
      <point x="-48" y="1016" type="curve" smooth="yes"/>
      <point x="3" y="1016"/>
      <point x="48" y="987"/>
      <point x="86" y="952" type="curve"/>
      <point x="101" y="967" type="line"/>
      <point x="42" y="1030"/>
      <point x="-10" y="1058"/>
      <point x="-61" y="1058" type="curve" smooth="yes"/>
      <point x="-125" y="1058"/>
      <point x="-155" y="1021"/>
      <point x="-155" y="981" type="curve" smooth="yes"/>
      <point x="-155" y="967"/>
      <point x="-150" y="947"/>
      <point x="-142" y="934" type="curve"/>
    </contour>
    <contour>
      <point x="-157" y="668" type="line"/>
      <point x="-108" y="924" type="line"/>
      <point x="-153" y="924" type="line"/>
      <point x="-198" y="700" type="line"/>
      <point x="-171" y="668" type="line"/>
    </contour>
    <contour>
      <point x="-24" y="730" type="curve" smooth="yes"/>
      <point x="6" y="730"/>
      <point x="31" y="746"/>
      <point x="53" y="763" type="curve"/>
      <point x="63" y="814" type="line"/>
      <point x="38" y="794"/>
      <point x="4" y="768"/>
      <point x="-27" y="768" type="curve" smooth="yes"/>
      <point x="-40" y="768"/>
      <point x="-54" y="776"/>
      <point x="-54" y="792" type="curve" smooth="yes"/>
      <point x="-54" y="815"/>
      <point x="-26" y="833"/>
      <point x="4" y="833" type="curve" smooth="yes"/>
      <point x="21" y="833"/>
      <point x="41" y="829"/>
      <point x="62" y="811" type="curve"/>
      <point x="67" y="837" type="line"/>
      <point x="51" y="859"/>
      <point x="16" y="873"/>
      <point x="-8" y="873" type="curve" smooth="yes"/>
      <point x="-52" y="873"/>
      <point x="-92" y="845"/>
      <point x="-92" y="803" type="curve" smooth="yes"/>
      <point x="-92" y="769"/>
      <point x="-62" y="730"/>
    </contour>
    <contour>
      <point x="73" y="668" type="line"/>
      <point x="122" y="925" type="line"/>
      <point x="76" y="925" type="line"/>
      <point x="32" y="700" type="line"/>
      <point x="58" y="668" type="line"/>
    </contour>
    <contour>
      <point x="172" y="903" type="line"/>
      <point x="173" y="907" type="line"/>
      <point x="156" y="943" type="line"/>
      <point x="-206" y="943" type="line"/>
      <point x="-207" y="939" type="line"/>
      <point x="-190" y="903" type="line"/>
    </contour>
  </outline>
  <guideline angle="0" x="0" y="668"/>
  <guideline angle="90" x="137" y="0"/>
  <guideline angle="90" x="45" y="0"/>
</glyph>
<glyph name="dCandrabinduVirama" format="2">
  <advance width="555"/>
  <unicode hex="A8F3"/>
  <outline>
    <contour>
      <point x="126" y="476" type="line"/>
      <point x="155" y="382"/>
      <point x="220" y="321"/>
      <point x="323" y="321" type="curve" smooth="yes"/>
      <point x="400" y="321"/>
      <point x="482" y="348"/>
      <point x="545" y="449" type="curve"/>
      <point x="485" y="504" type="line"/>
      <point x="450" y="450"/>
      <point x="397" y="386"/>
      <point x="303" y="386" type="curve" smooth="yes"/>
      <point x="255" y="386"/>
      <point x="197" y="405"/>
      <point x="160" y="494" type="curve"/>
    </contour>
    <contour>
      <point x="337" y="583" type="line"/>
      <point x="261" y="518" type="line"/>
      <point x="316" y="452" type="line"/>
      <point x="392" y="515" type="line"/>
    </contour>
    <contour>
      <point x="166" y="242" type="line"/>
      <point x="187" y="163" type="line"/>
      <point x="199" y="164"/>
      <point x="217" y="170"/>
      <point x="249" y="170" type="curve" smooth="yes"/>
      <point x="322" y="170"/>
      <point x="352" y="147"/>
      <point x="453" y="-3" type="curve"/>
      <point x="460" y="-3" type="line"/>
      <point x="497" y="31" type="line"/>
      <point x="437" y="103"/>
      <point x="364" y="185"/>
      <point x="341" y="205" type="curve" smooth="yes"/>
      <point x="306" y="236"/>
      <point x="268" y="254"/>
      <point x="224" y="254" type="curve" smooth="yes"/>
      <point x="208" y="254"/>
      <point x="191" y="252"/>
      <point x="169" y="248" type="curve"/>
    </contour>
  </outline>
</glyph>
<glyph name="dCandrabinduDblVirama" format="2">
  <advance width="565"/>
  <unicode hex="A8F4"/>
  <outline>
    <contour>
      <point x="134" y="491" type="line"/>
      <point x="163" y="397"/>
      <point x="228" y="336"/>
      <point x="331" y="336" type="curve" smooth="yes"/>
      <point x="408" y="336"/>
      <point x="490" y="363"/>
      <point x="553" y="464" type="curve"/>
      <point x="493" y="519" type="line"/>
      <point x="458" y="465"/>
      <point x="405" y="401"/>
      <point x="311" y="401" type="curve" smooth="yes"/>
      <point x="263" y="401"/>
      <point x="205" y="420"/>
      <point x="168" y="509" type="curve"/>
    </contour>
    <contour>
      <point x="344" y="593" type="line"/>
      <point x="268" y="528" type="line"/>
      <point x="323" y="462" type="line"/>
      <point x="399" y="525" type="line"/>
    </contour>
    <contour>
      <point x="117" y="-41" type="line"/>
      <point x="138" y="-120" type="line"/>
      <point x="150" y="-119"/>
      <point x="168" y="-113"/>
      <point x="200" y="-113" type="curve" smooth="yes"/>
      <point x="273" y="-113"/>
      <point x="303" y="-136"/>
      <point x="404" y="-286" type="curve"/>
      <point x="411" y="-286" type="line"/>
      <point x="448" y="-252" type="line"/>
      <point x="388" y="-180"/>
      <point x="315" y="-98"/>
      <point x="292" y="-78" type="curve" smooth="yes"/>
      <point x="257" y="-47"/>
      <point x="219" y="-29"/>
      <point x="175" y="-29" type="curve" smooth="yes"/>
      <point x="159" y="-29"/>
      <point x="142" y="-31"/>
      <point x="120" y="-35" type="curve"/>
    </contour>
    <contour>
      <point x="75" y="187" type="line"/>
      <point x="104" y="93"/>
      <point x="169" y="32"/>
      <point x="272" y="32" type="curve" smooth="yes"/>
      <point x="349" y="32"/>
      <point x="431" y="59"/>
      <point x="494" y="160" type="curve"/>
      <point x="434" y="215" type="line"/>
      <point x="399" y="161"/>
      <point x="346" y="97"/>
      <point x="252" y="97" type="curve" smooth="yes"/>
      <point x="204" y="97"/>
      <point x="146" y="116"/>
      <point x="109" y="205" type="curve"/>
    </contour>
    <contour>
      <point x="285" y="289" type="line"/>
      <point x="209" y="224" type="line"/>
      <point x="264" y="158" type="line"/>
      <point x="340" y="221" type="line"/>
    </contour>
  </outline>
</glyph>
<glyph name="dCandrabinduTwo" format="2">
  <advance width="590"/>
  <unicode hex="A8F5"/>
  <outline>
    <contour>
      <point x="315" y="-73" type="line"/>
      <point x="366" y="-48" type="line"/>
      <point x="262" y="175" type="line"/>
      <point x="273" y="180" type="line"/>
      <point x="254" y="216"/>
      <point x="229" y="251"/>
      <point x="208" y="251" type="curve" smooth="yes"/>
      <point x="186" y="251"/>
      <point x="160" y="217"/>
      <point x="160" y="166" type="curve" smooth="yes"/>
      <point x="160" y="128"/>
      <point x="187" y="109"/>
      <point x="236" y="109" type="curve" smooth="yes"/>
      <point x="348" y="109"/>
      <point x="457" y="180"/>
      <point x="457" y="288" type="curve" smooth="yes"/>
      <point x="457" y="372"/>
      <point x="391" y="429"/>
      <point x="311" y="429" type="curve" smooth="yes"/>
      <point x="268" y="429"/>
      <point x="220" y="414"/>
      <point x="168" y="389" type="curve"/>
      <point x="193" y="324" type="line"/>
      <point x="245" y="349"/>
      <point x="305" y="368"/>
      <point x="345" y="368" type="curve" smooth="yes"/>
      <point x="382" y="368"/>
      <point x="400" y="351"/>
      <point x="400" y="314" type="curve" smooth="yes"/>
      <point x="400" y="234"/>
      <point x="315" y="184"/>
      <point x="223" y="183" type="curve"/>
      <point x="306" y="-73" type="line"/>
    </contour>
    <contour>
      <point x="160" y="626" type="line"/>
      <point x="189" y="532"/>
      <point x="254" y="471"/>
      <point x="357" y="471" type="curve" smooth="yes"/>
      <point x="434" y="471"/>
      <point x="516" y="498"/>
      <point x="579" y="599" type="curve"/>
      <point x="519" y="654" type="line"/>
      <point x="484" y="600"/>
      <point x="431" y="536"/>
      <point x="337" y="536" type="curve" smooth="yes"/>
      <point x="289" y="536"/>
      <point x="231" y="555"/>
      <point x="194" y="644" type="curve"/>
    </contour>
    <contour>
      <point x="371" y="733" type="line"/>
      <point x="295" y="668" type="line"/>
      <point x="350" y="602" type="line"/>
      <point x="426" y="665" type="line"/>
    </contour>
  </outline>
</glyph>
<glyph name="dCandrabinduThree" format="2">
  <advance width="590"/>
  <unicode hex="A8F6"/>
  <outline>
    <contour>
      <point x="280" y="-83" type="line"/>
      <point x="326" y="-57" type="line"/>
      <point x="269" y="44" type="line"/>
      <point x="270" y="71" type="line"/>
      <point x="225" y="147"/>
      <point x="209" y="168"/>
      <point x="184" y="168" type="curve" smooth="yes"/>
      <point x="159" y="168"/>
      <point x="141" y="147"/>
      <point x="141" y="109" type="curve" smooth="yes"/>
      <point x="141" y="61"/>
      <point x="196" y="34"/>
      <point x="279" y="34" type="curve" smooth="yes"/>
      <point x="354" y="34"/>
      <point x="438" y="71"/>
      <point x="438" y="149" type="curve" smooth="yes"/>
      <point x="438" y="224"/>
      <point x="342" y="285"/>
      <point x="299" y="285" type="curve" smooth="yes"/>
      <point x="270" y="285"/>
      <point x="234" y="272"/>
      <point x="209" y="259" type="curve"/>
      <point x="233" y="199" type="line"/>
      <point x="257" y="210"/>
      <point x="296" y="221"/>
      <point x="324" y="221" type="curve" smooth="yes"/>
      <point x="354" y="221"/>
      <point x="377" y="207"/>
      <point x="377" y="174" type="curve" smooth="yes"/>
      <point x="377" y="125"/>
      <point x="328" y="96"/>
      <point x="258" y="96" type="curve" smooth="yes"/>
      <point x="242" y="96"/>
      <point x="224" y="98"/>
      <point x="206" y="101" type="curve"/>
      <point x="273" y="-83" type="line"/>
    </contour>
    <contour>
      <point x="376" y="227" type="line"/>
      <point x="418" y="256"/>
      <point x="435" y="273"/>
      <point x="435" y="314" type="curve" smooth="yes"/>
      <point x="435" y="388"/>
      <point x="370" y="429"/>
      <point x="309" y="429" type="curve" smooth="yes"/>
      <point x="274" y="429"/>
      <point x="229" y="418"/>
      <point x="185" y="397" type="curve"/>
      <point x="210" y="333" type="line"/>
      <point x="255" y="353"/>
      <point x="303" y="367"/>
      <point x="337" y="367" type="curve" smooth="yes"/>
      <point x="362" y="367"/>
      <point x="380" y="359"/>
      <point x="380" y="340" type="curve" smooth="yes"/>
      <point x="380" y="311"/>
      <point x="350" y="285"/>
      <point x="318" y="271" type="curve"/>
    </contour>
    <contour>
      <point x="160" y="626" type="line"/>
      <point x="189" y="532"/>
      <point x="254" y="471"/>
      <point x="357" y="471" type="curve" smooth="yes"/>
      <point x="434" y="471"/>
      <point x="516" y="498"/>
      <point x="579" y="599" type="curve"/>
      <point x="519" y="654" type="line"/>
      <point x="484" y="600"/>
      <point x="431" y="536"/>
      <point x="337" y="536" type="curve" smooth="yes"/>
      <point x="289" y="536"/>
      <point x="231" y="555"/>
      <point x="194" y="644" type="curve"/>
    </contour>
    <contour>
      <point x="371" y="733" type="line"/>
      <point x="295" y="668" type="line"/>
      <point x="350" y="602" type="line"/>
      <point x="426" y="665" type="line"/>
    </contour>
  </outline>
</glyph>
<glyph name="dCandrabinduAvagraha" format="2">
  <advance width="590"/>
  <unicode hex="A8F7"/>
  <outline>
    <contour>
      <point x="440" y="371" type="line"/>
      <point x="418" y="429" type="line"/>
      <point x="389" y="432"/>
      <point x="366" y="434"/>
      <point x="334" y="434" type="curve" smooth="yes"/>
      <point x="195" y="434"/>
      <point x="173" y="374"/>
      <point x="173" y="334" type="curve" smooth="yes"/>
      <point x="173" y="287"/>
      <point x="205" y="263"/>
      <point x="263" y="218" type="curve" smooth="yes"/>
      <point x="311" y="181"/>
      <point x="333" y="164"/>
      <point x="333" y="127" type="curve" smooth="yes"/>
      <point x="333" y="80"/>
      <point x="294" y="59"/>
      <point x="247" y="59" type="curve" smooth="yes"/>
      <point x="203" y="59"/>
      <point x="172" y="76"/>
      <point x="144" y="144" type="curve"/>
      <point x="108" y="126" type="line"/>
      <point x="129" y="69"/>
      <point x="177" y="-10"/>
      <point x="269" y="-10" type="curve" smooth="yes"/>
      <point x="346" y="-10"/>
      <point x="402" y="35"/>
      <point x="402" y="109" type="curve" smooth="yes"/>
      <point x="402" y="169"/>
      <point x="359" y="206"/>
      <point x="319" y="235" type="curve" smooth="yes"/>
      <point x="288" y="258"/>
      <point x="249" y="284"/>
      <point x="249" y="323" type="curve" smooth="yes"/>
      <point x="249" y="359"/>
      <point x="279" y="368"/>
      <point x="331" y="368" type="curve" smooth="yes"/>
      <point x="363" y="368"/>
      <point x="396" y="366"/>
      <point x="438" y="363" type="curve"/>
    </contour>
    <contour>
      <point x="160" y="626" type="line"/>
      <point x="189" y="532"/>
      <point x="254" y="471"/>
      <point x="357" y="471" type="curve" smooth="yes"/>
      <point x="434" y="471"/>
      <point x="516" y="498"/>
      <point x="579" y="599" type="curve"/>
      <point x="519" y="654" type="line"/>
      <point x="484" y="600"/>
      <point x="431" y="536"/>
      <point x="337" y="536" type="curve" smooth="yes"/>
      <point x="289" y="536"/>
      <point x="231" y="555"/>
      <point x="194" y="644" type="curve"/>
    </contour>
    <contour>
      <point x="371" y="733" type="line"/>
      <point x="295" y="668" type="line"/>
      <point x="350" y="602" type="line"/>
      <point x="426" y="665" type="line"/>
    </contour>
  </outline>
</glyph>
<glyph name="dPushpika" format="2">
  <advance width="755"/>
  <unicode hex="A8F8"/>
  <outline>
    <contour>
      <point x="594" y="-124" type="line"/>
      <point x="675" y="-58"/>
      <point x="708" y="-9"/>
      <point x="708" y="64" type="curve" smooth="yes"/>
      <point x="708" y="126"/>
      <point x="676" y="183"/>
      <point x="608" y="219" type="curve" smooth="yes"/>
      <point x="551" y="249"/>
      <point x="497" y="300"/>
      <point x="497" y="371" type="curve" smooth="yes"/>
      <point x="497" y="437"/>
      <point x="536" y="483"/>
      <point x="585" y="483" type="curve" smooth="yes"/>
      <point x="618" y="483"/>
      <point x="650" y="458"/>
      <point x="650" y="397" type="curve" smooth="yes"/>
      <point x="650" y="237"/>
      <point x="451" y="92"/>
      <point x="308" y="92" type="curve" smooth="yes"/>
      <point x="238" y="92"/>
      <point x="194" y="117"/>
      <point x="194" y="159" type="curve" smooth="yes"/>
      <point x="194" y="216"/>
      <point x="254" y="258"/>
      <point x="373" y="270" type="curve"/>
      <point x="361" y="347" type="line"/>
      <point x="223" y="335"/>
      <point x="119" y="283"/>
      <point x="119" y="198" type="curve" smooth="yes"/>
      <point x="119" y="122"/>
      <point x="209" y="30"/>
      <point x="340" y="30" type="curve" smooth="yes"/>
      <point x="502" y="30"/>
      <point x="710" y="169"/>
      <point x="710" y="361" type="curve" smooth="yes"/>
      <point x="710" y="470"/>
      <point x="640" y="540"/>
      <point x="555" y="540" type="curve" smooth="yes"/>
      <point x="476" y="540"/>
      <point x="418" y="482"/>
      <point x="418" y="411" type="curve" smooth="yes"/>
      <point x="418" y="320"/>
      <point x="479" y="250"/>
      <point x="573" y="194" type="curve" smooth="yes"/>
      <point x="621" y="165"/>
      <point x="652" y="143"/>
      <point x="652" y="99" type="curve" smooth="yes"/>
      <point x="652" y="39"/>
      <point x="608" y="-9"/>
      <point x="542" y="-55" type="curve"/>
      <point x="587" y="-124" type="line"/>
    </contour>
    <contour>
      <point x="209" y="298" type="line"/>
      <point x="181" y="317"/>
      <point x="159" y="345"/>
      <point x="159" y="378" type="curve" smooth="yes"/>
      <point x="159" y="436"/>
      <point x="211" y="460"/>
      <point x="285" y="460" type="curve" smooth="yes"/>
      <point x="310" y="460"/>
      <point x="343" y="456"/>
      <point x="359" y="452" type="curve"/>
      <point x="356" y="485"/>
      <point x="324" y="535"/>
      <point x="248" y="535" type="curve" smooth="yes"/>
      <point x="164" y="535"/>
      <point x="90" y="486"/>
      <point x="90" y="406" type="curve" smooth="yes"/>
      <point x="90" y="356"/>
      <point x="117" y="312"/>
      <point x="171" y="270" type="curve"/>
    </contour>
  </outline>
</glyph>
<glyph name="dGapFiller" format="2">
  <advance width="624"/>
  <unicode hex="A8F9"/>
  <outline>
    <contour>
      <point x="396" y="359" type="line"/>
      <point x="401" y="424"/>
      <point x="432" y="470"/>
      <point x="481" y="470" type="curve" smooth="yes"/>
      <point x="514" y="470"/>
      <point x="544" y="450"/>
      <point x="544" y="397" type="curve" smooth="yes"/>
      <point x="544" y="269"/>
      <point x="365" y="107"/>
      <point x="209" y="107" type="curve" smooth="yes"/>
      <point x="151" y="107"/>
      <point x="110" y="129"/>
      <point x="110" y="181" type="curve" smooth="yes"/>
      <point x="110" y="241"/>
      <point x="165" y="276"/>
      <point x="234" y="276" type="curve" smooth="yes"/>
      <point x="254" y="276"/>
      <point x="272" y="273"/>
      <point x="291" y="269" type="curve"/>
      <point x="288" y="309"/>
      <point x="260" y="349"/>
      <point x="187" y="349" type="curve" smooth="yes"/>
      <point x="88" y="349"/>
      <point x="42" y="276"/>
      <point x="42" y="212" type="curve" smooth="yes"/>
      <point x="42" y="123"/>
      <point x="126" y="45"/>
      <point x="242" y="45" type="curve" smooth="yes"/>
      <point x="397" y="45"/>
      <point x="604" y="183"/>
      <point x="604" y="365" type="curve" smooth="yes"/>
      <point x="604" y="464"/>
      <point x="542" y="527"/>
      <point x="460" y="527" type="curve" smooth="yes"/>
      <point x="381" y="527"/>
      <point x="317" y="468"/>
      <point x="317" y="381" type="curve"/>
      <point x="317" y="380"/>
      <point x="317" y="375"/>
      <point x="317" y="375" type="curve"/>
      <point x="391" y="355" type="line"/>
    </contour>
  </outline>
</glyph>
<glyph name="dSiddhirastu" format="2">
  <advance width="716"/>
  <unicode hex="A8FC"/>
  <outline>
    <contour>
      <point x="469" y="112" type="curve" smooth="yes"/>
      <point x="580" y="112"/>
      <point x="670" y="182"/>
      <point x="670" y="282" type="curve" smooth="yes"/>
      <point x="670" y="368"/>
      <point x="594" y="465"/>
      <point x="497" y="465" type="curve" smooth="yes"/>
      <point x="424" y="465"/>
      <point x="365" y="412"/>
      <point x="365" y="344" type="curve" smooth="yes"/>
      <point x="365" y="300"/>
      <point x="399" y="254"/>
      <point x="453" y="254" type="curve" smooth="yes"/>
      <point x="461" y="254"/>
      <point x="465" y="254"/>
      <point x="474" y="256" type="curve"/>
      <point x="476" y="267" type="line"/>
      <point x="452" y="280"/>
      <point x="438" y="299"/>
      <point x="438" y="321" type="curve" smooth="yes"/>
      <point x="438" y="367"/>
      <point x="490" y="394"/>
      <point x="532" y="394" type="curve" smooth="yes"/>
      <point x="572" y="394"/>
      <point x="610" y="371"/>
      <point x="610" y="319" type="curve" smooth="yes"/>
      <point x="610" y="244"/>
      <point x="542" y="189"/>
      <point x="454" y="189" type="curve" smooth="yes"/>
      <point x="253" y="189"/>
      <point x="226" y="401"/>
      <point x="75" y="430" type="curve"/>
      <point x="58" y="398" type="line"/>
      <point x="206" y="358"/>
      <point x="234" y="112"/>
    </contour>
  </outline>
</glyph>
<glyph name="dAnudatta.W" format="2">
  <outline>
    <contour>
      <point x="-741" y="-77" type="line"/>
      <point x="-751" y="-128" type="line"/>
      <point x="-137" y="-128" type="line"/>
      <point x="-127" y="-77" type="line"/>
    </contour>
  </outline>
</glyph>
<glyph name="dBJYa" format="2">
  <advance width="1380"/>
  <outline>
    <contour>
      <point x="1465" y="545" type="line"/>
      <point x="1467" y="555" type="line"/>
      <point x="1436" y="620" type="line"/>
      <point x="34" y="620" type="line"/>
      <point x="32" y="610" type="line"/>
      <point x="63" y="545" type="line"/>
    </contour>
    <contour>
      <point x="1269" y="571" type="line"/>
      <point x="1165" y="52" type="line"/>
      <point x="1232" y="-10" type="line"/>
      <point x="1242" y="-10" type="line"/>
      <point x="1353" y="571" type="line"/>
    </contour>
    <contour>
      <point x="982" y="331" type="curve" smooth="yes"/>
      <point x="1063" y="331"/>
      <point x="1100" y="379"/>
      <point x="1100" y="444" type="curve" smooth="yes"/>
      <point x="1100" y="481"/>
      <point x="1089" y="519"/>
      <point x="1072" y="560" type="curve"/>
      <point x="1016" y="558" type="line"/>
      <point x="1029" y="534"/>
      <point x="1037" y="504"/>
      <point x="1037" y="479" type="curve" smooth="yes"/>
      <point x="1037" y="434"/>
      <point x="1012" y="405"/>
      <point x="957" y="405" type="curve" smooth="yes"/>
      <point x="938" y="405"/>
      <point x="903" y="409"/>
      <point x="875" y="425" type="curve"/>
      <point x="609" y="425" type="line"/>
      <point x="607" y="414" type="line"/>
      <point x="633" y="356" type="line"/>
      <point x="711" y="350" type="line"/>
      <point x="888" y="350" type="line"/>
      <point x="926" y="335"/>
      <point x="951" y="331"/>
    </contour>
    <contour>
      <point x="1078" y="136" type="curve" smooth="yes"/>
      <point x="1113" y="136"/>
      <point x="1160" y="146"/>
      <point x="1204" y="174" type="curve"/>
      <point x="1226" y="279" type="line"/>
      <point x="1157" y="226"/>
      <point x="1095" y="199"/>
      <point x="1045" y="199" type="curve" smooth="yes"/>
      <point x="986" y="199"/>
      <point x="935" y="229"/>
      <point x="935" y="324" type="curve" smooth="yes"/>
      <point x="935" y="335"/>
      <point x="936" y="347"/>
      <point x="937" y="360" type="curve"/>
      <point x="867" y="370" type="line"/>
      <point x="866" y="223"/>
      <point x="964" y="136"/>
    </contour>
    <contour>
      <point x="638" y="85" type="curve" smooth="yes"/>
      <point x="706" y="85"/>
      <point x="781" y="125"/>
      <point x="781" y="219" type="curve" smooth="yes"/>
      <point x="781" y="274"/>
      <point x="758" y="318"/>
      <point x="707" y="370" type="curve"/>
      <point x="632" y="361" type="line"/>
      <point x="683" y="336"/>
      <point x="709" y="295"/>
      <point x="709" y="254" type="curve" smooth="yes"/>
      <point x="709" y="204"/>
      <point x="676" y="166"/>
      <point x="615" y="166" type="curve" smooth="yes"/>
      <point x="510" y="166"/>
      <point x="445" y="271"/>
      <point x="411" y="471" type="curve"/>
      <point x="368" y="454" type="line"/>
      <point x="388" y="321"/>
      <point x="456" y="85"/>
    </contour>
    <contour>
      <point x="211" y="162" type="curve" smooth="yes"/>
      <point x="152" y="162"/>
      <point x="111" y="196"/>
      <point x="111" y="241" type="curve" smooth="yes"/>
      <point x="111" y="319"/>
      <point x="206" y="364"/>
      <point x="287" y="364" type="curve" smooth="yes"/>
      <point x="345" y="364"/>
      <point x="392" y="346"/>
      <point x="392" y="296" type="curve" smooth="yes"/>
      <point x="392" y="217"/>
      <point x="297" y="162"/>
    </contour>
    <contour>
      <point x="246" y="98" type="curve" smooth="yes"/>
      <point x="341" y="98"/>
      <point x="423" y="145"/>
      <point x="448" y="222" type="curve"/>
      <point x="384" y="399" type="line"/>
      <point x="353" y="421"/>
      <point x="307" y="437"/>
      <point x="250" y="437" type="curve" smooth="yes"/>
      <point x="134" y="437"/>
      <point x="46" y="366"/>
      <point x="46" y="276" type="curve" smooth="yes"/>
      <point x="46" y="202"/>
      <point x="107" y="98"/>
    </contour>
    <contour>
      <point x="341" y="162" type="line"/>
      <point x="202" y="393" type="line"/>
      <point x="164" y="369" type="line"/>
      <point x="298" y="146" type="line"/>
    </contour>
  </outline>
</glyph>
<glyph name="dBJa" format="2">
  <advance width="1058"/>
  <outline>
    <contour>
      <point x="211" y="162" type="curve" smooth="yes"/>
      <point x="152" y="162"/>
      <point x="111" y="196"/>
      <point x="111" y="241" type="curve" smooth="yes"/>
      <point x="111" y="319"/>
      <point x="206" y="364"/>
      <point x="287" y="364" type="curve" smooth="yes"/>
      <point x="345" y="364"/>
      <point x="392" y="346"/>
      <point x="392" y="296" type="curve" smooth="yes"/>
      <point x="392" y="217"/>
      <point x="297" y="162"/>
    </contour>
    <contour>
      <point x="246" y="98" type="curve" smooth="yes"/>
      <point x="341" y="98"/>
      <point x="423" y="145"/>
      <point x="448" y="222" type="curve"/>
      <point x="384" y="399" type="line"/>
      <point x="353" y="421"/>
      <point x="307" y="437"/>
      <point x="250" y="437" type="curve" smooth="yes"/>
      <point x="134" y="437"/>
      <point x="46" y="366"/>
      <point x="46" y="276" type="curve" smooth="yes"/>
      <point x="46" y="202"/>
      <point x="107" y="98"/>
    </contour>
    <contour>
      <point x="341" y="162" type="line"/>
      <point x="202" y="393" type="line"/>
      <point x="164" y="369" type="line"/>
      <point x="298" y="146" type="line"/>
    </contour>
    <contour>
      <point x="1143" y="545" type="line"/>
      <point x="1145" y="555" type="line"/>
      <point x="1114" y="620" type="line"/>
      <point x="34" y="620" type="line"/>
      <point x="32" y="610" type="line"/>
      <point x="63" y="545" type="line"/>
    </contour>
    <contour>
      <point x="949" y="355" type="line"/>
      <point x="965" y="430" type="line"/>
      <point x="608" y="430" type="line"/>
      <point x="606" y="419" type="line"/>
      <point x="632" y="361" type="line"/>
      <point x="710" y="355" type="line"/>
    </contour>
    <contour>
      <point x="920" y="-10" type="line"/>
      <point x="1033" y="581" type="line"/>
      <point x="949" y="581" type="line"/>
      <point x="843" y="52" type="line"/>
      <point x="910" y="-10" type="line"/>
    </contour>
    <contour>
      <point x="638" y="85" type="curve" smooth="yes"/>
      <point x="706" y="85"/>
      <point x="781" y="125"/>
      <point x="781" y="219" type="curve" smooth="yes"/>
      <point x="781" y="274"/>
      <point x="758" y="318"/>
      <point x="707" y="370" type="curve"/>
      <point x="632" y="361" type="line"/>
      <point x="683" y="336"/>
      <point x="709" y="295"/>
      <point x="709" y="254" type="curve" smooth="yes"/>
      <point x="709" y="204"/>
      <point x="676" y="166"/>
      <point x="615" y="166" type="curve" smooth="yes"/>
      <point x="510" y="166"/>
      <point x="445" y="271"/>
      <point x="411" y="471" type="curve"/>
      <point x="368" y="454" type="line"/>
      <point x="388" y="321"/>
      <point x="456" y="85"/>
    </contour>
  </outline>
</glyph>
<glyph name="dBh.half" format="2">
  <advance width="460"/>
  <outline>
    <contour>
      <point x="577" y="545" type="line"/>
      <point x="579" y="555" type="line"/>
      <point x="547" y="620" type="line"/>
      <point x="430" y="620" type="line"/>
      <point x="428" y="610" type="line"/>
      <point x="460" y="545" type="line"/>
    </contour>
    <contour>
      <point x="572" y="235" type="line"/>
      <point x="552" y="310" type="line"/>
      <point x="199" y="310" type="line" smooth="yes"/>
      <point x="177" y="310"/>
      <point x="168" y="299"/>
      <point x="168" y="282" type="curve" smooth="yes"/>
      <point x="168" y="242"/>
      <point x="238" y="138"/>
      <point x="280" y="138" type="curve" smooth="yes"/>
      <point x="307" y="138"/>
      <point x="317" y="172"/>
      <point x="342" y="257" type="curve" smooth="yes"/>
      <point x="368" y="346"/>
      <point x="384" y="400"/>
      <point x="384" y="443" type="curve" smooth="yes"/>
      <point x="384" y="532"/>
      <point x="316" y="633"/>
      <point x="219" y="633" type="curve" smooth="yes"/>
      <point x="154" y="633"/>
      <point x="106" y="597"/>
      <point x="106" y="531" type="curve" smooth="yes"/>
      <point x="106" y="479"/>
      <point x="141" y="422"/>
      <point x="208" y="422" type="curve"/>
      <point x="209" y="422"/>
      <point x="214" y="422"/>
      <point x="228" y="424" type="curve"/>
      <point x="230" y="435" type="line"/>
      <point x="203" y="447"/>
      <point x="179" y="469"/>
      <point x="179" y="499" type="curve" smooth="yes"/>
      <point x="179" y="537"/>
      <point x="208" y="563"/>
      <point x="252" y="563" type="curve" smooth="yes"/>
      <point x="286" y="563"/>
      <point x="311" y="546"/>
      <point x="311" y="485" type="curve" smooth="yes"/>
      <point x="311" y="400"/>
      <point x="280" y="333"/>
      <point x="246" y="235" type="curve"/>
    </contour>
  </outline>
</glyph>
<glyph name="dCCa" format="2">
  <advance width="739"/>
  <outline>
    <contour>
      <point x="565" y="-198" type="line"/>
      <point x="716" y="581" type="line"/>
      <point x="630" y="581" type="line"/>
      <point x="488" y="-137" type="line"/>
      <point x="556" y="-198" type="line"/>
    </contour>
    <contour>
      <point x="316" y="-138" type="curve" smooth="yes"/>
      <point x="368" y="-138"/>
      <point x="437" y="-129"/>
      <point x="560" y="-33" type="curve"/>
      <point x="534" y="40" type="line"/>
      <point x="421" y="-47"/>
      <point x="342" y="-76"/>
      <point x="283" y="-76" type="curve" smooth="yes"/>
      <point x="240" y="-76"/>
      <point x="208" y="-60"/>
      <point x="208" y="-19" type="curve" smooth="yes"/>
      <point x="208" y="53"/>
      <point x="303" y="72"/>
      <point x="420" y="72" type="curve"/>
      <point x="427" y="109" type="line"/>
      <point x="206" y="109" type="line"/>
      <point x="163" y="75"/>
      <point x="144" y="47"/>
      <point x="144" y="7" type="curve" smooth="yes"/>
      <point x="144" y="-61"/>
      <point x="201" y="-138"/>
    </contour>
    <contour>
      <point x="185" y="69" type="line"/>
      <point x="351" y="85" type="line"/>
      <point x="420" y="72" type="line"/>
      <point x="421" y="72"/>
      <point x="427" y="72"/>
      <point x="448" y="71" type="curve"/>
      <point x="450" y="81" type="line"/>
      <point x="420" y="143" type="line"/>
      <point x="37" y="143" type="line"/>
      <point x="35" y="133" type="line"/>
      <point x="67" y="69" type="line"/>
    </contour>
    <contour>
      <point x="380" y="190" type="curve" smooth="yes"/>
      <point x="432" y="190"/>
      <point x="501" y="199"/>
      <point x="624" y="295" type="curve"/>
      <point x="598" y="368" type="line"/>
      <point x="485" y="281"/>
      <point x="406" y="252"/>
      <point x="347" y="252" type="curve" smooth="yes"/>
      <point x="304" y="252"/>
      <point x="272" y="268"/>
      <point x="272" y="309" type="curve" smooth="yes"/>
      <point x="272" y="381"/>
      <point x="367" y="400"/>
      <point x="484" y="400" type="curve"/>
      <point x="491" y="437" type="line"/>
      <point x="270" y="437" type="line"/>
      <point x="227" y="403"/>
      <point x="208" y="375"/>
      <point x="208" y="335" type="curve" smooth="yes"/>
      <point x="208" y="267"/>
      <point x="265" y="190"/>
    </contour>
    <contour>
      <point x="249" y="397" type="line"/>
      <point x="431" y="418" type="line"/>
      <point x="484" y="400" type="line"/>
      <point x="488" y="400"/>
      <point x="494" y="400"/>
      <point x="512" y="399" type="curve"/>
      <point x="514" y="409" type="line"/>
      <point x="484" y="471" type="line"/>
      <point x="101" y="471" type="line"/>
      <point x="99" y="461" type="line"/>
      <point x="131" y="397" type="line"/>
    </contour>
    <contour>
      <point x="824" y="545" type="line"/>
      <point x="826" y="555" type="line"/>
      <point x="795" y="620" type="line"/>
      <point x="34" y="620" type="line"/>
      <point x="32" y="610" type="line"/>
      <point x="63" y="545" type="line"/>
    </contour>
  </outline>
</glyph>
<glyph name="dCChLa" format="2">
  <advance width="1092"/>
  <outline>
    <component base="dCha" xOffset="341"/>
    <contour>
      <point x="352" y="125" type="curve" smooth="yes"/>
      <point x="418" y="125"/>
      <point x="462" y="144"/>
      <point x="552" y="203" type="curve"/>
      <point x="523" y="274" type="line"/>
      <point x="409" y="201"/>
      <point x="348" y="189"/>
      <point x="312" y="189" type="curve" smooth="yes"/>
      <point x="258" y="189"/>
      <point x="224" y="215"/>
      <point x="224" y="265" type="curve" smooth="yes"/>
      <point x="224" y="354"/>
      <point x="324" y="373"/>
      <point x="440" y="373" type="curve"/>
      <point x="447" y="408" type="line"/>
      <point x="203" y="382" type="line"/>
      <point x="172" y="360"/>
      <point x="157" y="327"/>
      <point x="157" y="289" type="curve" smooth="yes"/>
      <point x="157" y="204"/>
      <point x="237" y="125"/>
    </contour>
    <contour>
      <point x="206" y="370" type="line"/>
      <point x="384" y="388" type="line"/>
      <point x="440" y="373" type="line"/>
      <point x="468" y="373" type="line"/>
      <point x="509" y="446" type="line"/>
      <point x="65" y="446" type="line"/>
      <point x="63" y="436" type="line"/>
      <point x="95" y="370" type="line"/>
    </contour>
    <contour>
      <point x="593" y="545" type="line"/>
      <point x="595" y="555" type="line"/>
      <point x="564" y="620" type="line"/>
      <point x="34" y="620" type="line"/>
      <point x="32" y="610" type="line"/>
      <point x="63" y="545" type="line"/>
    </contour>
    <contour>
      <point x="530" y="-362" type="line"/>
      <point x="572" y="-332" type="line"/>
      <point x="505" y="-270"/>
      <point x="482" y="-220"/>
      <point x="482" y="-172" type="curve" smooth="yes"/>
      <point x="482" y="-110"/>
      <point x="519" y="-79"/>
      <point x="565" y="-79" type="curve" smooth="yes"/>
      <point x="598" y="-79"/>
      <point x="628" y="-95"/>
      <point x="646" y="-123" type="curve"/>
      <point x="670" y="-92" type="line"/>
      <point x="641" y="-47"/>
      <point x="600" y="-12"/>
      <point x="541" y="-12" type="curve" smooth="yes"/>
      <point x="467" y="-12"/>
      <point x="415" y="-64"/>
      <point x="415" y="-139" type="curve" smooth="yes"/>
      <point x="415" y="-214"/>
      <point x="466" y="-293"/>
      <point x="520" y="-362" type="curve"/>
    </contour>
    <contour>
      <point x="788" y="-318" type="line"/>
      <point x="858" y="-257"/>
      <point x="893" y="-202"/>
      <point x="893" y="-140" type="curve" smooth="yes"/>
      <point x="893" y="-84"/>
      <point x="854" y="-14"/>
      <point x="780" y="-14" type="curve" smooth="yes"/>
      <point x="710" y="-14"/>
      <point x="652" y="-75"/>
      <point x="594" y="-164" type="curve"/>
      <point x="655" y="-207" type="line"/>
      <point x="711" y="-119"/>
      <point x="758" y="-73"/>
      <point x="799" y="-73" type="curve" smooth="yes"/>
      <point x="824" y="-73"/>
      <point x="841" y="-88"/>
      <point x="841" y="-115" type="curve" smooth="yes"/>
      <point x="841" y="-151"/>
      <point x="812" y="-195"/>
      <point x="726" y="-266" type="curve"/>
      <point x="780" y="-318" type="line"/>
    </contour>
    <contour>
      <point x="720" y="-90" type="line"/>
      <point x="745" y="37" type="line"/>
      <point x="669" y="37" type="line"/>
      <point x="640" y="-108" type="line"/>
    </contour>
  </outline>
  <guideline angle="90" x="759" y="0"/>
  <guideline angle="90" x="830" y="0"/>
</glyph>
<glyph name="dCChMa" format="2">
  <advance width="1092"/>
  <outline>
    <component base="dCha" xOffset="341"/>
    <contour>
      <point x="352" y="125" type="curve" smooth="yes"/>
      <point x="418" y="125"/>
      <point x="462" y="144"/>
      <point x="552" y="203" type="curve"/>
      <point x="523" y="274" type="line"/>
      <point x="409" y="201"/>
      <point x="348" y="189"/>
      <point x="312" y="189" type="curve" smooth="yes"/>
      <point x="258" y="189"/>
      <point x="224" y="215"/>
      <point x="224" y="265" type="curve" smooth="yes"/>
      <point x="224" y="354"/>
      <point x="324" y="373"/>
      <point x="440" y="373" type="curve"/>
      <point x="447" y="408" type="line"/>
      <point x="203" y="382" type="line"/>
      <point x="172" y="360"/>
      <point x="157" y="327"/>
      <point x="157" y="289" type="curve" smooth="yes"/>
      <point x="157" y="204"/>
      <point x="237" y="125"/>
    </contour>
    <contour>
      <point x="206" y="370" type="line"/>
      <point x="384" y="388" type="line"/>
      <point x="440" y="373" type="line"/>
      <point x="468" y="373" type="line"/>
      <point x="509" y="446" type="line"/>
      <point x="65" y="446" type="line"/>
      <point x="63" y="436" type="line"/>
      <point x="95" y="370" type="line"/>
    </contour>
    <contour>
      <point x="593" y="545" type="line"/>
      <point x="595" y="555" type="line"/>
      <point x="564" y="620" type="line"/>
      <point x="34" y="620" type="line"/>
      <point x="32" y="610" type="line"/>
      <point x="63" y="545" type="line"/>
    </contour>
    <contour>
      <point x="522" y="-267" type="curve" smooth="yes"/>
      <point x="535" y="-267"/>
      <point x="547" y="-259"/>
      <point x="550" y="-242" type="curve" smooth="yes"/>
      <point x="604" y="45" type="line"/>
      <point x="539" y="79" type="line"/>
      <point x="488" y="-181" type="line"/>
      <point x="781" y="-181" type="line"/>
      <point x="793" y="-116" type="line"/>
      <point x="456" y="-116" type="line" smooth="yes"/>
      <point x="435" y="-116"/>
      <point x="426" y="-126"/>
      <point x="426" y="-144" type="curve" smooth="yes"/>
      <point x="426" y="-191"/>
      <point x="493" y="-267"/>
    </contour>
    <contour>
      <point x="782" y="-337" type="line"/>
      <point x="862" y="94" type="line"/>
      <point x="782" y="64" type="line"/>
      <point x="713" y="-281" type="line"/>
      <point x="772" y="-337" type="line"/>
    </contour>
  </outline>
</glyph>
<glyph name="dCChYa" format="2">
  <advance width="1575"/>
  <outline>
    <contour>
      <point x="206" y="370" type="line"/>
      <point x="402" y="388" type="line"/>
      <point x="440" y="373" type="line"/>
      <point x="468" y="373" type="line"/>
      <point x="509" y="446" type="line"/>
      <point x="65" y="446" type="line"/>
      <point x="63" y="436" type="line"/>
      <point x="95" y="370" type="line"/>
    </contour>
    <contour>
      <point x="538" y="267" type="line"/>
      <point x="511" y="286"/>
      <point x="487" y="314"/>
      <point x="487" y="345" type="curve" smooth="yes"/>
      <point x="487" y="400"/>
      <point x="546" y="421"/>
      <point x="610" y="421" type="curve" smooth="yes"/>
      <point x="636" y="421"/>
      <point x="670" y="417"/>
      <point x="687" y="413" type="curve"/>
      <point x="680" y="466"/>
      <point x="650" y="496"/>
      <point x="568" y="496" type="curve" smooth="yes"/>
      <point x="482" y="496"/>
      <point x="419" y="452"/>
      <point x="419" y="370" type="curve" smooth="yes"/>
      <point x="419" y="327"/>
      <point x="446" y="280"/>
      <point x="501" y="239" type="curve"/>
    </contour>
    <contour>
      <point x="1660" y="545" type="line"/>
      <point x="1662" y="555" type="line"/>
      <point x="1631" y="620" type="line"/>
      <point x="34" y="620" type="line"/>
      <point x="32" y="610" type="line"/>
      <point x="63" y="545" type="line"/>
    </contour>
    <contour>
      <point x="1261" y="55" type="curve" smooth="yes"/>
      <point x="1298" y="55"/>
      <point x="1329" y="65"/>
      <point x="1365" y="85" type="curve"/>
      <point x="1380" y="77" type="line"/>
      <point x="1403" y="194" type="line"/>
      <point x="1340" y="145"/>
      <point x="1278" y="118"/>
      <point x="1235" y="118" type="curve" smooth="yes"/>
      <point x="1176" y="118"/>
      <point x="1139" y="170"/>
      <point x="1168" y="221" type="curve"/>
      <point x="1118" y="178" type="line"/>
      <point x="1264" y="208"/>
      <point x="1314" y="249"/>
      <point x="1314" y="326" type="curve" smooth="yes"/>
      <point x="1314" y="375"/>
      <point x="1273" y="458"/>
      <point x="1164" y="458" type="curve" smooth="yes"/>
      <point x="983" y="458" type="line"/>
      <point x="1004" y="385" type="line"/>
      <point x="1181" y="385" type="line" smooth="yes"/>
      <point x="1238" y="385"/>
      <point x="1250" y="370"/>
      <point x="1250" y="352" type="curve" smooth="yes"/>
      <point x="1250" y="313"/>
      <point x="1196" y="281"/>
      <point x="1088" y="254" type="curve"/>
      <point x="1086" y="150"/>
      <point x="1160" y="55"/>
    </contour>
    <contour>
      <point x="1431" y="-45" type="line"/>
      <point x="1550" y="581" type="line"/>
      <point x="1466" y="581" type="line"/>
      <point x="1353" y="17" type="line"/>
      <point x="1421" y="-45" type="line"/>
    </contour>
    <contour>
      <point x="352" y="125" type="curve" smooth="yes"/>
      <point x="409" y="125"/>
      <point x="457" y="140"/>
      <point x="519" y="182" type="curve"/>
      <point x="490" y="255" type="line"/>
      <point x="406" y="202"/>
      <point x="344" y="189"/>
      <point x="315" y="189" type="curve" smooth="yes"/>
      <point x="258" y="189"/>
      <point x="224" y="215"/>
      <point x="224" y="265" type="curve" smooth="yes"/>
      <point x="224" y="354"/>
      <point x="324" y="373"/>
      <point x="440" y="373" type="curve"/>
      <point x="447" y="408" type="line"/>
      <point x="203" y="382" type="line"/>
      <point x="172" y="360"/>
      <point x="157" y="327"/>
      <point x="157" y="289" type="curve" smooth="yes"/>
      <point x="157" y="204"/>
      <point x="237" y="125"/>
    </contour>
    <contour>
      <point x="659" y="10" type="curve" smooth="yes"/>
      <point x="838" y="10"/>
      <point x="1049" y="151"/>
      <point x="1049" y="333" type="curve" smooth="yes"/>
      <point x="1049" y="439"/>
      <point x="990" y="501"/>
      <point x="896" y="501" type="curve" smooth="yes"/>
      <point x="817" y="501"/>
      <point x="762" y="451"/>
      <point x="762" y="376" type="curve" smooth="yes"/>
      <point x="762" y="284"/>
      <point x="843" y="218"/>
      <point x="895" y="184" type="curve"/>
      <point x="930" y="214" type="line"/>
      <point x="865" y="250"/>
      <point x="841" y="299"/>
      <point x="841" y="349" type="curve" smooth="yes"/>
      <point x="841" y="405"/>
      <point x="872" y="444"/>
      <point x="918" y="444" type="curve" smooth="yes"/>
      <point x="954" y="444"/>
      <point x="988" y="421"/>
      <point x="988" y="365" type="curve" smooth="yes"/>
      <point x="988" y="229"/>
      <point x="789" y="72"/>
      <point x="642" y="72" type="curve" smooth="yes"/>
      <point x="572" y="72"/>
      <point x="517" y="96"/>
      <point x="517" y="144" type="curve" smooth="yes"/>
      <point x="517" y="192"/>
      <point x="580" y="235"/>
      <point x="701" y="244" type="curve"/>
      <point x="689" y="323" type="line"/>
      <point x="572" y="313"/>
      <point x="450" y="266"/>
      <point x="450" y="174" type="curve" smooth="yes"/>
      <point x="450" y="97"/>
      <point x="533" y="10"/>
    </contour>
  </outline>
</glyph>
<glyph name="dCNyYa" format="2">
  <advance width="991"/>
  <outline>
    <contour>
      <point x="687" y="136" type="curve" smooth="yes"/>
      <point x="732" y="136"/>
      <point x="775" y="151"/>
      <point x="832" y="193" type="curve"/>
      <point x="849" y="296" type="line"/>
      <point x="767" y="231"/>
      <point x="707" y="199"/>
      <point x="653" y="199" type="curve" smooth="yes"/>
      <point x="588" y="199"/>
      <point x="546" y="235"/>
      <point x="546" y="286" type="curve" smooth="yes"/>
      <point x="546" y="292"/>
      <point x="546" y="297"/>
      <point x="547" y="303" type="curve"/>
      <point x="663" y="334"/>
      <point x="708" y="379"/>
      <point x="708" y="441" type="curve" smooth="yes"/>
      <point x="708" y="474"/>
      <point x="696" y="524"/>
      <point x="670" y="572" type="curve"/>
      <point x="613" y="572" type="line"/>
      <point x="636" y="538"/>
      <point x="644" y="499"/>
      <point x="644" y="477" type="curve" smooth="yes"/>
      <point x="644" y="424"/>
      <point x="592" y="399"/>
      <point x="473" y="371" type="curve"/>
      <point x="471" y="239"/>
      <point x="561" y="136"/>
    </contour>
    <contour>
      <point x="270" y="-71" type="curve" smooth="yes"/>
      <point x="357" y="-71"/>
      <point x="448" y="-19"/>
      <point x="448" y="72" type="curve" smooth="yes"/>
      <point x="448" y="138"/>
      <point x="376" y="199"/>
      <point x="308" y="199" type="curve" smooth="yes"/>
      <point x="240" y="199"/>
      <point x="195" y="166"/>
      <point x="152" y="122" type="curve"/>
      <point x="206" y="70" type="line"/>
      <point x="249" y="108"/>
      <point x="282" y="141"/>
      <point x="332" y="141" type="curve" smooth="yes"/>
      <point x="364" y="141"/>
      <point x="384" y="123"/>
      <point x="384" y="95" type="curve" smooth="yes"/>
      <point x="384" y="46"/>
      <point x="323" y="-4"/>
      <point x="241" y="-4" type="curve" smooth="yes"/>
      <point x="185" y="-4"/>
      <point x="125" y="10"/>
      <point x="69" y="50" type="curve"/>
      <point x="42" y="17" type="line"/>
      <point x="117" y="-37"/>
      <point x="192" y="-71"/>
    </contour>
    <contour>
      <point x="448" y="101" type="line"/>
      <point x="460" y="99"/>
      <point x="468" y="98"/>
      <point x="478" y="98" type="curve" smooth="yes"/>
      <point x="520" y="98"/>
      <point x="555" y="113"/>
      <point x="603" y="162" type="curve"/>
      <point x="543" y="213" type="line"/>
      <point x="516" y="164"/>
      <point x="471" y="137"/>
      <point x="409" y="138" type="curve"/>
      <point x="433" y="91" type="line"/>
    </contour>
    <contour>
      <point x="321" y="229" type="curve" smooth="yes"/>
      <point x="364" y="229"/>
      <point x="421" y="236"/>
      <point x="507" y="293" type="curve"/>
      <point x="481" y="361" type="line"/>
      <point x="399" y="307"/>
      <point x="335" y="287"/>
      <point x="294" y="287" type="curve" smooth="yes"/>
      <point x="258" y="287"/>
      <point x="226" y="299"/>
      <point x="226" y="336" type="curve" smooth="yes"/>
      <point x="226" y="398"/>
      <point x="313" y="410"/>
      <point x="398" y="410" type="curve"/>
      <point x="399" y="445" type="line"/>
      <point x="232" y="445" type="line"/>
      <point x="193" y="426"/>
      <point x="163" y="398"/>
      <point x="163" y="353" type="curve" smooth="yes"/>
      <point x="163" y="299"/>
      <point x="212" y="229"/>
    </contour>
    <contour>
      <point x="201" y="407" type="line"/>
      <point x="365" y="427" type="line"/>
      <point x="398" y="410" type="line"/>
      <point x="413" y="410"/>
      <point x="425" y="410"/>
      <point x="441" y="409" type="curve"/>
      <point x="443" y="418" type="line"/>
      <point x="414" y="476" type="line"/>
      <point x="64" y="476" type="line"/>
      <point x="62" y="467" type="line"/>
      <point x="92" y="407" type="line"/>
    </contour>
    <contour>
      <point x="1076" y="545" type="line"/>
      <point x="1078" y="555" type="line"/>
      <point x="1047" y="620" type="line"/>
      <point x="34" y="620" type="line"/>
      <point x="32" y="610" type="line"/>
      <point x="63" y="545" type="line"/>
    </contour>
    <contour>
      <point x="848" y="-40" type="line"/>
      <point x="968" y="591" type="line"/>
      <point x="884" y="591" type="line"/>
      <point x="770" y="22" type="line"/>
      <point x="838" y="-40" type="line"/>
    </contour>
  </outline>
</glyph>
<glyph name="dCRa" format="2">
  <advance width="676"/>
  <outline>
    <contour>
      <point x="538" y="210" type="line"/>
      <point x="559" y="316" type="line"/>
      <point x="425" y="212"/>
      <point x="356" y="192"/>
      <point x="314" y="192" type="curve" smooth="yes"/>
      <point x="263" y="192"/>
      <point x="224" y="210"/>
      <point x="224" y="267" type="curve" smooth="yes"/>
      <point x="224" y="353"/>
      <point x="331" y="373"/>
      <point x="426" y="373" type="curve"/>
      <point x="433" y="409" type="line"/>
      <point x="235" y="409" type="line"/>
      <point x="183" y="376"/>
      <point x="158" y="338"/>
      <point x="158" y="290" type="curve" smooth="yes"/>
      <point x="158" y="206"/>
      <point x="237" y="139"/>
      <point x="321" y="133" type="curve"/>
    </contour>
    <contour>
      <point x="517" y="199" type="line"/>
      <point x="531" y="272" type="line"/>
      <point x="286" y="154" type="line"/>
      <point x="286" y="137" type="line"/>
      <point x="129" y="39" type="line"/>
      <point x="180" y="-22" type="line"/>
    </contour>
    <contour>
      <point x="206" y="370" type="line"/>
      <point x="379" y="393" type="line"/>
      <point x="426" y="373" type="line"/>
      <point x="440" y="373"/>
      <point x="446" y="373"/>
      <point x="468" y="372" type="curve"/>
      <point x="470" y="382" type="line"/>
      <point x="439" y="446" type="line"/>
      <point x="65" y="446" type="line"/>
      <point x="63" y="436" type="line"/>
      <point x="95" y="370" type="line"/>
    </contour>
    <contour>
      <point x="538" y="-10" type="line"/>
      <point x="651" y="581" type="line"/>
      <point x="567" y="581" type="line"/>
      <point x="461" y="52" type="line"/>
      <point x="528" y="-10" type="line"/>
    </contour>
    <contour>
      <point x="761" y="545" type="line"/>
      <point x="763" y="555" type="line"/>
      <point x="732" y="620" type="line"/>
      <point x="34" y="620" type="line"/>
      <point x="32" y="610" type="line"/>
      <point x="63" y="545" type="line"/>
    </contour>
  </outline>
</glyph>
<glyph name="dCh.halfalt" format="2">
  <advance width="588"/>
  <outline>
    <contour>
      <point x="333" y="10" type="curve" smooth="yes"/>
      <point x="507" y="10"/>
      <point x="708" y="148"/>
      <point x="708" y="335" type="curve" smooth="yes"/>
      <point x="708" y="428"/>
      <point x="645" y="501"/>
      <point x="558" y="501" type="curve" smooth="yes"/>
      <point x="474" y="501"/>
      <point x="421" y="447"/>
      <point x="421" y="375" type="curve" smooth="yes"/>
      <point x="421" y="280"/>
      <point x="507" y="218"/>
      <point x="552" y="184" type="curve"/>
      <point x="589" y="214" type="line"/>
      <point x="527" y="251"/>
      <point x="500" y="301"/>
      <point x="500" y="345" type="curve" smooth="yes"/>
      <point x="500" y="407"/>
      <point x="542" y="444"/>
      <point x="582" y="444" type="curve" smooth="yes"/>
      <point x="617" y="444"/>
      <point x="647" y="418"/>
      <point x="647" y="362" type="curve" smooth="yes"/>
      <point x="647" y="227"/>
      <point x="444" y="72"/>
      <point x="287" y="72" type="curve" smooth="yes"/>
      <point x="230" y="72"/>
      <point x="177" y="96"/>
      <point x="177" y="141" type="curve" smooth="yes"/>
      <point x="177" y="188"/>
      <point x="231" y="225"/>
      <point x="362" y="236" type="curve"/>
      <point x="350" y="317" type="line"/>
      <point x="232" y="307"/>
      <point x="109" y="265"/>
      <point x="109" y="178" type="curve" smooth="yes"/>
      <point x="109" y="96"/>
      <point x="194" y="10"/>
    </contour>
    <contour>
      <point x="194" y="267" type="line"/>
      <point x="170" y="286"/>
      <point x="146" y="310"/>
      <point x="146" y="345" type="curve" smooth="yes"/>
      <point x="146" y="398"/>
      <point x="200" y="421"/>
      <point x="272" y="421" type="curve" smooth="yes"/>
      <point x="297" y="421"/>
      <point x="329" y="417"/>
      <point x="346" y="413" type="curve"/>
      <point x="343" y="446"/>
      <point x="322" y="496"/>
      <point x="226" y="496" type="curve" smooth="yes"/>
      <point x="143" y="496"/>
      <point x="78" y="453"/>
      <point x="78" y="371" type="curve" smooth="yes"/>
      <point x="78" y="328"/>
      <point x="105" y="280"/>
      <point x="160" y="239" type="curve"/>
    </contour>
    <contour>
      <point x="745" y="545" type="line"/>
      <point x="747" y="555" type="line"/>
      <point x="716" y="620" type="line"/>
      <point x="34" y="620" type="line"/>
      <point x="32" y="610" type="line"/>
      <point x="63" y="545" type="line"/>
    </contour>
  </outline>
  <guideline angle="133.648" x="588" y="0"/>
</glyph>
<glyph name="dChVa" format="2">
  <advance width="751"/>
  <outline>
    <component base="dCha"/>
    <contour>
      <point x="446" y="-278" type="line"/>
      <point x="520" y="113" type="line"/>
      <point x="439" y="76" type="line"/>
      <point x="378" y="-221" type="line"/>
      <point x="437" y="-278" type="line"/>
    </contour>
    <contour>
      <point x="307" y="-190" type="curve" smooth="yes"/>
      <point x="342" y="-190"/>
      <point x="369" y="-180"/>
      <point x="409" y="-162" type="curve"/>
      <point x="426" y="-73" type="line"/>
      <point x="342" y="-124"/>
      <point x="304" y="-132"/>
      <point x="277" y="-132" type="curve" smooth="yes"/>
      <point x="240" y="-132"/>
      <point x="217" y="-117"/>
      <point x="217" y="-83" type="curve" smooth="yes"/>
      <point x="217" y="-24"/>
      <point x="283" y="12"/>
      <point x="350" y="15" type="curve"/>
      <point x="253" y="63" type="line"/>
      <point x="190" y="34"/>
      <point x="155" y="-4"/>
      <point x="155" y="-59" type="curve" smooth="yes"/>
      <point x="155" y="-134"/>
      <point x="229" y="-190"/>
    </contour>
  </outline>
</glyph>
<glyph name="dDBhYa" format="2">
  <advance width="1155"/>
  <outline>
    <component base="dDBha"/>
    <contour>
      <point x="932" y="17" type="line"/>
      <point x="1000" y="-45" type="line"/>
      <point x="1010" y="-45" type="line"/>
      <point x="1126" y="561" type="line"/>
      <point x="1042" y="561" type="line"/>
    </contour>
    <contour>
      <point x="1242" y="555" type="line"/>
      <point x="1210" y="620" type="line"/>
      <point x="689" y="620" type="line"/>
      <point x="687" y="610" type="line"/>
      <point x="719" y="545" type="line"/>
      <point x="1240" y="545" type="line"/>
    </contour>
    <contour>
      <point x="761" y="376" type="line" smooth="yes"/>
      <point x="815" y="376"/>
      <point x="828" y="365"/>
      <point x="828" y="343" type="curve" smooth="yes"/>
      <point x="828" y="306"/>
      <point x="775" y="270"/>
      <point x="666" y="247" type="curve"/>
      <point x="664" y="146"/>
      <point x="739" y="50"/>
      <point x="839" y="50" type="curve" smooth="yes"/>
      <point x="874" y="50"/>
      <point x="906" y="60"/>
      <point x="942" y="80" type="curve"/>
      <point x="968" y="68" type="line"/>
      <point x="981" y="190" type="line"/>
      <point x="918" y="141"/>
      <point x="863" y="113"/>
      <point x="818" y="113" type="curve" smooth="yes"/>
      <point x="768" y="113"/>
      <point x="737" y="142"/>
      <point x="739" y="182" type="curve"/>
      <point x="847" y="206"/>
      <point x="892" y="251"/>
      <point x="892" y="314" type="curve" smooth="yes"/>
      <point x="892" y="385"/>
      <point x="836" y="449"/>
      <point x="738" y="449" type="curve" smooth="yes"/>
      <point x="526" y="449" type="line"/>
      <point x="526" y="376" type="line"/>
    </contour>
  </outline>
</glyph>
<glyph name="dDBha" format="2">
  <advance width="668"/>
  <outline>
    <contour>
      <point x="570" y="-88" type="line"/>
      <point x="625" y="-57" type="line"/>
      <point x="513" y="159" type="line"/>
      <point x="493" y="165" type="line"/>
      <point x="473" y="141"/>
      <point x="432" y="134"/>
      <point x="400" y="134" type="curve" smooth="yes"/>
      <point x="338" y="134"/>
      <point x="282" y="172"/>
      <point x="282" y="251" type="curve" smooth="yes"/>
      <point x="282" y="336"/>
      <point x="341" y="376"/>
      <point x="438" y="376" type="curve" smooth="yes"/>
      <point x="586" y="376" type="line"/>
      <point x="599" y="384" type="line"/>
      <point x="609" y="436"/>
      <point x="622" y="508"/>
      <point x="635" y="580" type="curve"/>
      <point x="554" y="580" type="line"/>
      <point x="529" y="451" type="line"/>
      <point x="437" y="451" type="line" smooth="yes"/>
      <point x="300" y="451"/>
      <point x="214" y="415"/>
      <point x="214" y="288" type="curve" smooth="yes"/>
      <point x="214" y="167"/>
      <point x="317" y="71"/>
      <point x="443" y="71" type="curve" smooth="yes"/>
      <point x="577" y="71"/>
      <point x="608" y="141"/>
      <point x="608" y="170" type="curve" smooth="yes"/>
      <point x="608" y="214"/>
      <point x="538" y="257"/>
      <point x="500" y="257" type="curve" smooth="yes"/>
      <point x="476" y="257"/>
      <point x="461" y="244"/>
      <point x="461" y="213" type="curve" smooth="yes"/>
      <point x="461" y="184"/>
      <point x="475" y="135"/>
      <point x="496" y="81" type="curve" smooth="yes"/>
      <point x="561" y="-88" type="line"/>
    </contour>
    <contour>
      <point x="287" y="-167" type="curve" smooth="yes"/>
      <point x="311" y="-167"/>
      <point x="333" y="-159"/>
      <point x="333" y="-137" type="curve" smooth="yes"/>
      <point x="333" y="-124"/>
      <point x="324" y="-96"/>
      <point x="305" y="-51" type="curve"/>
      <point x="290" y="-22" type="line"/>
      <point x="239" y="91"/>
      <point x="182" y="157"/>
      <point x="89" y="157" type="curve" smooth="yes"/>
      <point x="11" y="157"/>
      <point x="-35" y="114"/>
      <point x="-35" y="60" type="curve" smooth="yes"/>
      <point x="-35" y="13"/>
      <point x="-3" y="-17"/>
      <point x="45" y="-17" type="curve" smooth="yes"/>
      <point x="81" y="-17"/>
      <point x="112" y="-4"/>
      <point x="137" y="24" type="curve"/>
      <point x="134" y="31" type="line"/>
      <point x="120" y="27"/>
      <point x="106" y="25"/>
      <point x="91" y="25" type="curve" smooth="yes"/>
      <point x="65" y="25"/>
      <point x="39" y="39"/>
      <point x="39" y="65" type="curve" smooth="yes"/>
      <point x="39" y="99"/>
      <point x="67" y="114"/>
      <point x="92" y="114" type="curve" smooth="yes"/>
      <point x="144" y="114"/>
      <point x="178" y="31"/>
      <point x="238" y="-115" type="curve"/>
      <point x="518" y="69" type="line"/>
      <point x="495" y="136" type="line"/>
      <point x="158" y="-85" type="line" smooth="yes"/>
      <point x="147" y="-92"/>
      <point x="143" y="-99"/>
      <point x="143" y="-106" type="curve" smooth="yes"/>
      <point x="143" y="-140"/>
      <point x="232" y="-167"/>
    </contour>
    <contour>
      <point x="752" y="545" type="line"/>
      <point x="754" y="555" type="line"/>
      <point x="723" y="620" type="line"/>
      <point x="33" y="620" type="line"/>
      <point x="31" y="610" type="line"/>
      <point x="62" y="545" type="line"/>
    </contour>
  </outline>
</glyph>
<glyph name="dDDVYa" format="2">
  <advance width="980"/>
  <outline>
    <contour>
      <point x="449" y="-287" type="line"/>
      <point x="506" y="-254" type="line"/>
      <point x="352" y="45" type="line"/>
      <point x="319" y="21"/>
      <point x="274" y="8"/>
      <point x="233" y="8" type="curve" smooth="yes"/>
      <point x="167" y="8"/>
      <point x="139" y="38"/>
      <point x="139" y="74" type="curve" smooth="yes"/>
      <point x="139" y="114"/>
      <point x="165" y="165"/>
      <point x="278" y="186" type="curve"/>
      <point x="242" y="242" type="line"/>
      <point x="195" y="243"/>
      <point x="139" y="273"/>
      <point x="139" y="327" type="curve" smooth="yes"/>
      <point x="139" y="364"/>
      <point x="167" y="380"/>
      <point x="211" y="380" type="curve" smooth="yes"/>
      <point x="477" y="380" type="line"/>
      <point x="477" y="455" type="line"/>
      <point x="199" y="455" type="line" smooth="yes"/>
      <point x="116" y="455"/>
      <point x="74" y="418"/>
      <point x="74" y="360" type="curve" smooth="yes"/>
      <point x="74" y="283"/>
      <point x="141" y="179"/>
      <point x="282" y="179" type="curve" smooth="yes"/>
      <point x="357" y="179"/>
      <point x="372" y="195"/>
      <point x="372" y="212" type="curve" smooth="yes"/>
      <point x="372" y="229"/>
      <point x="360" y="267"/>
      <point x="326" y="267" type="curve" smooth="yes"/>
      <point x="230" y="267"/>
      <point x="72" y="220"/>
      <point x="72" y="116" type="curve" smooth="yes"/>
      <point x="72" y="38"/>
      <point x="142" y="-57"/>
      <point x="264" y="-57" type="curve" smooth="yes"/>
      <point x="392" y="-57"/>
      <point x="444" y="2"/>
      <point x="444" y="48" type="curve" smooth="yes"/>
      <point x="444" y="93"/>
      <point x="383" y="129"/>
      <point x="348" y="129" type="curve" smooth="yes"/>
      <point x="322" y="129"/>
      <point x="307" y="117"/>
      <point x="307" y="82" type="curve" smooth="yes"/>
      <point x="307" y="53"/>
      <point x="319" y="25"/>
      <point x="334" y="-14" type="curve" smooth="yes"/>
      <point x="440" y="-287" type="line"/>
    </contour>
    <contour>
      <point x="204" y="-234" type="curve" smooth="yes"/>
      <point x="256" y="-234"/>
      <point x="332" y="-221"/>
      <point x="392" y="-104" type="curve"/>
      <point x="352" y="-14" type="line"/>
      <point x="302" y="-149"/>
      <point x="222" y="-172"/>
      <point x="173" y="-172" type="curve" smooth="yes"/>
      <point x="148" y="-172"/>
      <point x="124" y="-164"/>
      <point x="124" y="-136" type="curve" smooth="yes"/>
      <point x="124" y="-90"/>
      <point x="169" y="-58"/>
      <point x="215" y="-42" type="curve"/>
      <point x="143" y="5" type="line"/>
      <point x="86" y="-23"/>
      <point x="59" y="-51"/>
      <point x="59" y="-108" type="curve" smooth="yes"/>
      <point x="59" y="-168"/>
      <point x="101" y="-234"/>
    </contour>
    <contour>
      <point x="212" y="-234" type="curve" smooth="yes"/>
      <point x="267" y="-234"/>
      <point x="342" y="-216"/>
      <point x="392" y="-104" type="curve"/>
      <point x="352" y="-14" type="line"/>
      <point x="302" y="-150"/>
      <point x="228" y="-172"/>
      <point x="178" y="-172" type="curve" smooth="yes"/>
      <point x="148" y="-172"/>
      <point x="124" y="-164"/>
      <point x="124" y="-132" type="curve" smooth="yes"/>
      <point x="124" y="-90"/>
      <point x="166" y="-57"/>
      <point x="215" y="-42" type="curve"/>
      <point x="143" y="5" type="line"/>
      <point x="83" y="-23"/>
      <point x="59" y="-52"/>
      <point x="59" y="-100" type="curve" smooth="yes"/>
      <point x="59" y="-168"/>
      <point x="108" y="-234"/>
    </contour>
    <contour>
      <point x="665" y="55" type="curve" smooth="yes"/>
      <point x="700" y="55"/>
      <point x="732" y="65"/>
      <point x="768" y="85" type="curve"/>
      <point x="783" y="77" type="line"/>
      <point x="807" y="195" type="line"/>
      <point x="744" y="146"/>
      <point x="689" y="118"/>
      <point x="644" y="118" type="curve" smooth="yes"/>
      <point x="594" y="118"/>
      <point x="563" y="150"/>
      <point x="565" y="190" type="curve"/>
      <point x="673" y="214"/>
      <point x="718" y="255"/>
      <point x="718" y="318" type="curve" smooth="yes"/>
      <point x="718" y="389"/>
      <point x="668" y="456"/>
      <point x="564" y="456" type="curve" smooth="yes"/>
      <point x="352" y="455" type="line"/>
      <point x="352" y="380" type="line"/>
      <point x="587" y="380" type="line" smooth="yes"/>
      <point x="641" y="380"/>
      <point x="654" y="369"/>
      <point x="654" y="347" type="curve" smooth="yes"/>
      <point x="654" y="310"/>
      <point x="601" y="278"/>
      <point x="492" y="255" type="curve"/>
      <point x="491" y="157"/>
      <point x="565" y="55"/>
    </contour>
    <contour>
      <point x="442" y="420" type="line"/>
      <point x="450" y="464"/>
      <point x="462" y="534"/>
      <point x="471" y="581" type="curve"/>
      <point x="390" y="581" type="line"/>
      <point x="359" y="420" type="line"/>
    </contour>
    <contour>
      <point x="832" y="-65" type="line"/>
      <point x="955" y="581" type="line"/>
      <point x="871" y="581" type="line"/>
      <point x="754" y="-3" type="line"/>
      <point x="822" y="-65" type="line"/>
    </contour>
    <contour>
      <point x="1065" y="545" type="line"/>
      <point x="1067" y="555" type="line"/>
      <point x="1036" y="620" type="line"/>
      <point x="34" y="620" type="line"/>
      <point x="32" y="610" type="line"/>
      <point x="63" y="545" type="line"/>
    </contour>
  </outline>
</glyph>
<glyph name="dDDVa" format="2">
  <advance width="521"/>
  <outline>
    <contour>
      <point x="212" y="-234" type="curve" smooth="yes"/>
      <point x="267" y="-234"/>
      <point x="342" y="-216"/>
      <point x="392" y="-104" type="curve"/>
      <point x="352" y="-14" type="line"/>
      <point x="302" y="-150"/>
      <point x="228" y="-172"/>
      <point x="178" y="-172" type="curve" smooth="yes"/>
      <point x="148" y="-172"/>
      <point x="124" y="-164"/>
      <point x="124" y="-132" type="curve" smooth="yes"/>
      <point x="124" y="-90"/>
      <point x="166" y="-57"/>
      <point x="215" y="-42" type="curve"/>
      <point x="143" y="5" type="line"/>
      <point x="83" y="-23"/>
      <point x="59" y="-52"/>
      <point x="59" y="-100" type="curve" smooth="yes"/>
      <point x="59" y="-168"/>
      <point x="108" y="-234"/>
    </contour>
    <contour>
      <point x="606" y="545" type="line"/>
      <point x="608" y="555" type="line"/>
      <point x="577" y="620" type="line"/>
      <point x="34" y="620" type="line"/>
      <point x="32" y="610" type="line"/>
      <point x="63" y="545" type="line"/>
    </contour>
    <contour>
      <point x="449" y="-287" type="line"/>
      <point x="506" y="-254" type="line"/>
      <point x="352" y="45" type="line"/>
      <point x="319" y="21"/>
      <point x="274" y="8"/>
      <point x="233" y="8" type="curve" smooth="yes"/>
      <point x="167" y="8"/>
      <point x="139" y="38"/>
      <point x="139" y="74" type="curve" smooth="yes"/>
      <point x="139" y="114"/>
      <point x="165" y="165"/>
      <point x="278" y="186" type="curve"/>
      <point x="242" y="242" type="line"/>
      <point x="195" y="243"/>
      <point x="139" y="273"/>
      <point x="139" y="327" type="curve" smooth="yes"/>
      <point x="139" y="364"/>
      <point x="167" y="380"/>
      <point x="211" y="380" type="curve" smooth="yes"/>
      <point x="423" y="380" type="line"/>
      <point x="436" y="388" type="line"/>
      <point x="446" y="440"/>
      <point x="458" y="507"/>
      <point x="468" y="571" type="curve"/>
      <point x="388" y="571" type="line"/>
      <point x="366" y="455" type="line"/>
      <point x="199" y="455" type="line" smooth="yes"/>
      <point x="116" y="455"/>
      <point x="74" y="418"/>
      <point x="74" y="360" type="curve" smooth="yes"/>
      <point x="74" y="283"/>
      <point x="141" y="179"/>
      <point x="282" y="179" type="curve" smooth="yes"/>
      <point x="357" y="179"/>
      <point x="372" y="195"/>
      <point x="372" y="212" type="curve" smooth="yes"/>
      <point x="372" y="229"/>
      <point x="360" y="267"/>
      <point x="326" y="267" type="curve" smooth="yes"/>
      <point x="230" y="267"/>
      <point x="72" y="220"/>
      <point x="72" y="116" type="curve" smooth="yes"/>
      <point x="72" y="38"/>
      <point x="142" y="-57"/>
      <point x="264" y="-57" type="curve" smooth="yes"/>
      <point x="392" y="-57"/>
      <point x="444" y="2"/>
      <point x="444" y="48" type="curve" smooth="yes"/>
      <point x="444" y="93"/>
      <point x="383" y="129"/>
      <point x="348" y="129" type="curve" smooth="yes"/>
      <point x="322" y="129"/>
      <point x="307" y="117"/>
      <point x="307" y="82" type="curve" smooth="yes"/>
      <point x="307" y="53"/>
      <point x="319" y="25"/>
      <point x="334" y="-14" type="curve" smooth="yes"/>
      <point x="440" y="-287" type="line"/>
    </contour>
  </outline>
</glyph>
<glyph name="dDDa" format="2">
  <advance width="521"/>
  <outline>
    <contour>
      <point x="412" y="-206" type="line"/>
      <point x="466" y="-176" type="line"/>
      <point x="352" y="45" type="line"/>
      <point x="319" y="21"/>
      <point x="274" y="8"/>
      <point x="233" y="8" type="curve" smooth="yes"/>
      <point x="167" y="8"/>
      <point x="139" y="38"/>
      <point x="139" y="74" type="curve" smooth="yes"/>
      <point x="139" y="114"/>
      <point x="165" y="165"/>
      <point x="278" y="186" type="curve"/>
      <point x="242" y="242" type="line"/>
      <point x="195" y="243"/>
      <point x="139" y="273"/>
      <point x="139" y="327" type="curve" smooth="yes"/>
      <point x="139" y="364"/>
      <point x="167" y="383"/>
      <point x="211" y="383" type="curve" smooth="yes"/>
      <point x="423" y="383" type="line"/>
      <point x="436" y="391" type="line"/>
      <point x="447" y="443"/>
      <point x="460" y="517"/>
      <point x="468" y="571" type="curve"/>
      <point x="388" y="571" type="line"/>
      <point x="366" y="458" type="line"/>
      <point x="199" y="458" type="line" smooth="yes"/>
      <point x="116" y="458"/>
      <point x="74" y="418"/>
      <point x="74" y="360" type="curve" smooth="yes"/>
      <point x="74" y="283"/>
      <point x="141" y="179"/>
      <point x="282" y="179" type="curve" smooth="yes"/>
      <point x="357" y="179"/>
      <point x="372" y="195"/>
      <point x="372" y="212" type="curve" smooth="yes"/>
      <point x="372" y="229"/>
      <point x="360" y="267"/>
      <point x="326" y="267" type="curve" smooth="yes"/>
      <point x="230" y="267"/>
      <point x="72" y="220"/>
      <point x="72" y="116" type="curve" smooth="yes"/>
      <point x="72" y="38"/>
      <point x="142" y="-57"/>
      <point x="264" y="-57" type="curve" smooth="yes"/>
      <point x="392" y="-57"/>
      <point x="444" y="2"/>
      <point x="444" y="48" type="curve" smooth="yes"/>
      <point x="444" y="93"/>
      <point x="383" y="129"/>
      <point x="348" y="129" type="curve" smooth="yes"/>
      <point x="322" y="129"/>
      <point x="307" y="117"/>
      <point x="307" y="82" type="curve" smooth="yes"/>
      <point x="307" y="54"/>
      <point x="320" y="25"/>
      <point x="334" y="-14" type="curve" smooth="yes"/>
      <point x="404" y="-206" type="line"/>
    </contour>
    <contour>
      <point x="606" y="545" type="line"/>
      <point x="608" y="555" type="line"/>
      <point x="577" y="620" type="line"/>
      <point x="34" y="620" type="line"/>
      <point x="32" y="610" type="line"/>
      <point x="63" y="545" type="line"/>
    </contour>
  </outline>
</glyph>
<glyph name="dDDa_dSignVocalicR" format="2">
  <advance width="499"/>
  <outline>
    <contour>
      <point x="404" y="-47" type="line"/>
      <point x="348" y="-76"/>
      <point x="305" y="-87"/>
      <point x="266" y="-87" type="curve" smooth="yes"/>
      <point x="210" y="-87"/>
      <point x="199" y="-61"/>
      <point x="199" y="-39" type="curve" smooth="yes"/>
      <point x="199" y="-7"/>
      <point x="241" y="43"/>
      <point x="373" y="46" type="curve"/>
      <point x="375" y="52" type="line"/>
      <point x="345" y="113" type="line"/>
      <point x="231" y="111"/>
      <point x="141" y="65"/>
      <point x="141" y="-16" type="curve" smooth="yes"/>
      <point x="141" y="-68"/>
      <point x="176" y="-150"/>
      <point x="298" y="-150" type="curve" smooth="yes"/>
      <point x="358" y="-150"/>
      <point x="409" y="-130"/>
      <point x="439" y="-111" type="curve"/>
    </contour>
    <contour>
      <point x="584" y="545" type="line"/>
      <point x="586" y="555" type="line"/>
      <point x="555" y="620" type="line"/>
      <point x="34" y="620" type="line"/>
      <point x="32" y="610" type="line"/>
      <point x="63" y="545" type="line"/>
    </contour>
    <contour>
      <point x="231" y="268" type="line" smooth="yes"/>
      <point x="191" y="268"/>
      <point x="143" y="298"/>
      <point x="143" y="346" type="curve" smooth="yes"/>
      <point x="143" y="384"/>
      <point x="170" y="403"/>
      <point x="221" y="403" type="curve" smooth="yes"/>
      <point x="415" y="403" type="line"/>
      <point x="428" y="411" type="line"/>
      <point x="437" y="458"/>
      <point x="444" y="495"/>
      <point x="460" y="583" type="curve"/>
      <point x="381" y="583" type="line"/>
      <point x="360" y="478" type="line"/>
      <point x="215" y="478" type="line" smooth="yes"/>
      <point x="118" y="478"/>
      <point x="78" y="442"/>
      <point x="78" y="381" type="curve" smooth="yes"/>
      <point x="78" y="323"/>
      <point x="120" y="229"/>
      <point x="220" y="221" type="curve"/>
      <point x="241" y="214"/>
      <point x="268" y="206"/>
      <point x="302" y="206" type="curve" smooth="yes"/>
      <point x="337" y="206"/>
      <point x="379" y="211"/>
      <point x="379" y="243" type="curve" smooth="yes"/>
      <point x="379" y="272"/>
      <point x="366" y="287"/>
      <point x="333" y="287" type="curve" smooth="yes"/>
      <point x="217" y="287"/>
      <point x="100" y="255"/>
      <point x="100" y="148" type="curve" smooth="yes"/>
      <point x="100" y="96"/>
      <point x="130" y="48"/>
      <point x="171" y="25" type="curve"/>
      <point x="207" y="56" type="line"/>
      <point x="177" y="71"/>
      <point x="160" y="95"/>
      <point x="160" y="123" type="curve" smooth="yes"/>
      <point x="160" y="168"/>
      <point x="209" y="215"/>
      <point x="297" y="215" type="curve"/>
      <point x="287" y="268" type="line"/>
    </contour>
  </outline>
</glyph>
<glyph name="dDDhYa" format="2">
  <advance width="1112"/>
  <outline>
    <component base="dDDha"/>
    <contour>
      <point x="1003" y="581" type="line"/>
      <point x="889" y="17" type="line"/>
      <point x="957" y="-45" type="line"/>
      <point x="967" y="-45" type="line"/>
      <point x="1087" y="581" type="line"/>
    </contour>
    <contour>
      <point x="1197" y="545" type="line"/>
      <point x="1199" y="555" type="line"/>
      <point x="1167" y="620" type="line"/>
      <point x="646" y="620" type="line"/>
      <point x="644" y="610" type="line"/>
      <point x="676" y="545" type="line"/>
    </contour>
    <contour>
      <point x="718" y="376" type="line" smooth="yes"/>
      <point x="772" y="376"/>
      <point x="785" y="365"/>
      <point x="785" y="343" type="curve" smooth="yes"/>
      <point x="785" y="306"/>
      <point x="732" y="270"/>
      <point x="623" y="247" type="curve"/>
      <point x="622" y="149"/>
      <point x="696" y="50"/>
      <point x="796" y="50" type="curve" smooth="yes"/>
      <point x="831" y="50"/>
      <point x="863" y="60"/>
      <point x="899" y="80" type="curve"/>
      <point x="914" y="72" type="line"/>
      <point x="938" y="190" type="line"/>
      <point x="875" y="141"/>
      <point x="820" y="113"/>
      <point x="775" y="113" type="curve" smooth="yes"/>
      <point x="725" y="113"/>
      <point x="695" y="147"/>
      <point x="697" y="187" type="curve"/>
      <point x="805" y="211"/>
      <point x="849" y="251"/>
      <point x="849" y="314" type="curve" smooth="yes"/>
      <point x="849" y="385"/>
      <point x="799" y="449"/>
      <point x="695" y="449" type="curve" smooth="yes"/>
      <point x="483" y="449" type="line"/>
      <point x="483" y="376" type="line"/>
    </contour>
  </outline>
</glyph>
<glyph name="dDGLa" format="2">
  <advance width="532"/>
  <outline>
    <contour>
      <point x="306" y="63" type="curve" smooth="yes"/>
      <point x="377" y="63"/>
      <point x="476" y="100"/>
      <point x="476" y="164" type="curve" smooth="yes"/>
      <point x="476" y="208"/>
      <point x="409" y="252"/>
      <point x="367" y="252" type="curve" smooth="yes"/>
      <point x="342" y="252"/>
      <point x="329" y="239"/>
      <point x="329" y="208" type="curve" smooth="yes"/>
      <point x="329" y="191"/>
      <point x="332" y="162"/>
      <point x="335" y="141" type="curve"/>
      <point x="314" y="132"/>
      <point x="286" y="129"/>
      <point x="265" y="129" type="curve" smooth="yes"/>
      <point x="203" y="129"/>
      <point x="150" y="169"/>
      <point x="150" y="246" type="curve" smooth="yes"/>
      <point x="150" y="334"/>
      <point x="217" y="374"/>
      <point x="311" y="374" type="curve" smooth="yes"/>
      <point x="454" y="374" type="line"/>
      <point x="468" y="382" type="line"/>
      <point x="478" y="434"/>
      <point x="492" y="518"/>
      <point x="503" y="576" type="curve"/>
      <point x="422" y="576" type="line"/>
      <point x="398" y="449" type="line"/>
      <point x="303" y="449" type="line" smooth="yes"/>
      <point x="179" y="449"/>
      <point x="83" y="413"/>
      <point x="83" y="285" type="curve" smooth="yes"/>
      <point x="83" y="163"/>
      <point x="182" y="63"/>
    </contour>
    <contour>
      <point x="105" y="-393" type="line"/>
      <point x="142" y="-367" type="line"/>
      <point x="83" y="-313"/>
      <point x="61" y="-276"/>
      <point x="61" y="-225" type="curve" smooth="yes"/>
      <point x="61" y="-170"/>
      <point x="97" y="-141"/>
      <point x="138" y="-141" type="curve" smooth="yes"/>
      <point x="170" y="-141"/>
      <point x="195" y="-156"/>
      <point x="213" y="-184" type="curve"/>
      <point x="236" y="-158" type="line"/>
      <point x="212" y="-118"/>
      <point x="167" y="-85"/>
      <point x="113" y="-85" type="curve" smooth="yes"/>
      <point x="44" y="-85"/>
      <point x="2" y="-135"/>
      <point x="2" y="-198" type="curve" smooth="yes"/>
      <point x="2" y="-266"/>
      <point x="48" y="-330"/>
      <point x="97" y="-393" type="curve"/>
    </contour>
    <contour>
      <point x="327" y="-350" type="line"/>
      <point x="391" y="-298"/>
      <point x="428" y="-250"/>
      <point x="428" y="-192" type="curve" smooth="yes"/>
      <point x="428" y="-146"/>
      <point x="393" y="-86"/>
      <point x="331" y="-86" type="curve" smooth="yes"/>
      <point x="260" y="-86"/>
      <point x="211" y="-136"/>
      <point x="158" y="-211" type="curve"/>
      <point x="210" y="-246" type="line"/>
      <point x="262" y="-175"/>
      <point x="307" y="-137"/>
      <point x="346" y="-137" type="curve" smooth="yes"/>
      <point x="369" y="-137"/>
      <point x="383" y="-150"/>
      <point x="383" y="-172" type="curve" smooth="yes"/>
      <point x="383" y="-204"/>
      <point x="357" y="-242"/>
      <point x="277" y="-306" type="curve"/>
      <point x="321" y="-350" type="line"/>
    </contour>
    <contour>
      <point x="94" y="-68" type="curve" smooth="yes"/>
      <point x="107" y="-68"/>
      <point x="115" y="-60"/>
      <point x="118" y="-45" type="curve" smooth="yes"/>
      <point x="159" y="171" type="line"/>
      <point x="104" y="226" type="line"/>
      <point x="72" y="68" type="line"/>
      <point x="26" y="68" type="line" smooth="yes"/>
      <point x="7" y="68"/>
      <point x="-1" y="56"/>
      <point x="-1" y="41" type="curve" smooth="yes"/>
      <point x="-1" y="-5"/>
      <point x="61" y="-68"/>
    </contour>
    <contour>
      <point x="270" y="-153" type="line"/>
      <point x="321" y="110" type="line"/>
      <point x="249" y="110" type="line"/>
      <point x="197" y="-153" type="line"/>
    </contour>
    <contour>
      <point x="616" y="545" type="line"/>
      <point x="618" y="555" type="line"/>
      <point x="587" y="620" type="line"/>
      <point x="33" y="620" type="line"/>
      <point x="31" y="610" type="line"/>
      <point x="62" y="545" type="line"/>
    </contour>
  </outline>
</glyph>
<glyph name="dDGa" format="2">
  <advance width="517"/>
  <outline>
    <contour>
      <point x="433" y="-231" type="line"/>
      <point x="372" y="166" type="line"/>
      <point x="314" y="139"/>
      <point x="290" y="129"/>
      <point x="245" y="129" type="curve" smooth="yes"/>
      <point x="184" y="129"/>
      <point x="130" y="169"/>
      <point x="130" y="247" type="curve" smooth="yes"/>
      <point x="130" y="334"/>
      <point x="197" y="374"/>
      <point x="286" y="374" type="curve" smooth="yes"/>
      <point x="435" y="374" type="line"/>
      <point x="448" y="382" type="line"/>
      <point x="457" y="429"/>
      <point x="469" y="495"/>
      <point x="485" y="580" type="curve"/>
      <point x="404" y="580" type="line"/>
      <point x="378" y="449" type="line"/>
      <point x="275" y="449" type="line" smooth="yes"/>
      <point x="149" y="449"/>
      <point x="63" y="413"/>
      <point x="63" y="284" type="curve" smooth="yes"/>
      <point x="63" y="163"/>
      <point x="170" y="62"/>
      <point x="291" y="62" type="curve" smooth="yes"/>
      <point x="389" y="62"/>
      <point x="456" y="116"/>
      <point x="456" y="163" type="curve" smooth="yes"/>
      <point x="456" y="207"/>
      <point x="386" y="252"/>
      <point x="348" y="252" type="curve" smooth="yes"/>
      <point x="323" y="252"/>
      <point x="310" y="239"/>
      <point x="310" y="209" type="curve" smooth="yes"/>
      <point x="310" y="189"/>
      <point x="314" y="143"/>
      <point x="318" y="96" type="curve" smooth="yes"/>
      <point x="345" y="-202" type="line"/>
      <point x="422" y="-234" type="line"/>
    </contour>
    <contour>
      <point x="119" y="-153" type="curve" smooth="yes"/>
      <point x="134" y="-153"/>
      <point x="144" y="-145"/>
      <point x="147" y="-128" type="curve" smooth="yes"/>
      <point x="192" y="109" type="line"/>
      <point x="129" y="154" type="line"/>
      <point x="98" y="8" type="line"/>
      <point x="39" y="8" type="line" smooth="yes"/>
      <point x="18" y="8"/>
      <point x="9" y="-6"/>
      <point x="9" y="-23" type="curve" smooth="yes"/>
      <point x="9" y="-65"/>
      <point x="78" y="-153"/>
    </contour>
    <contour>
      <point x="602" y="545" type="line"/>
      <point x="604" y="555" type="line"/>
      <point x="572" y="620" type="line"/>
      <point x="33" y="620" type="line"/>
      <point x="31" y="610" type="line"/>
      <point x="63" y="545" type="line"/>
    </contour>
  </outline>
</glyph>
<glyph name="dDGhNa" format="2">
  <advance width="630"/>
  <outline>
    <contour>
      <point x="217" y="-284" type="curve" smooth="yes"/>
      <point x="245" y="-284"/>
      <point x="260" y="-274"/>
      <point x="260" y="-258" type="curve" smooth="yes"/>
      <point x="260" y="-238"/>
      <point x="242" y="-207"/>
      <point x="233" y="-190" type="curve"/>
      <point x="495" y="69" type="line"/>
      <point x="419" y="92" type="line"/>
      <point x="131" y="-182" type="line" smooth="yes"/>
      <point x="113" y="-199"/>
      <point x="97" y="-213"/>
      <point x="97" y="-229" type="curve" smooth="yes"/>
      <point x="97" y="-258"/>
      <point x="163" y="-284"/>
    </contour>
    <contour>
      <point x="715" y="545" type="line"/>
      <point x="717" y="555" type="line"/>
      <point x="685" y="620" type="line"/>
      <point x="33" y="620" type="line"/>
      <point x="31" y="610" type="line"/>
      <point x="63" y="545" type="line"/>
    </contour>
    <contour>
      <point x="420" y="20" type="line"/>
      <point x="413" y="92" type="line"/>
      <point x="348" y="12"/>
      <point x="257" y="-55"/>
      <point x="201" y="-55" type="curve" smooth="yes"/>
      <point x="176" y="-55"/>
      <point x="155" y="-44"/>
      <point x="155" y="-17" type="curve" smooth="yes"/>
      <point x="155" y="15"/>
      <point x="182" y="41"/>
      <point x="238" y="61" type="curve"/>
      <point x="190" y="121" type="line"/>
      <point x="128" y="94"/>
      <point x="80" y="66"/>
      <point x="80" y="8" type="curve" smooth="yes"/>
      <point x="80" y="-61"/>
      <point x="164" y="-109"/>
      <point x="234" y="-109" type="curve"/>
    </contour>
    <contour>
      <point x="124" y="63" type="line"/>
      <point x="93" y="80"/>
      <point x="85" y="110"/>
      <point x="85" y="131" type="curve" smooth="yes"/>
      <point x="85" y="170"/>
      <point x="121" y="199"/>
      <point x="186" y="209" type="curve"/>
      <point x="172" y="272" type="line"/>
      <point x="46" y="253"/>
      <point x="0" y="198"/>
      <point x="0" y="142" type="curve" smooth="yes"/>
      <point x="0" y="77"/>
      <point x="54" y="47"/>
      <point x="93" y="29" type="curve"/>
    </contour>
    <contour>
      <point x="552" y="-165" type="line"/>
      <point x="605" y="-134" type="line"/>
      <point x="459" y="167" type="line"/>
      <point x="423" y="144"/>
      <point x="391" y="132"/>
      <point x="346" y="132" type="curve" smooth="yes"/>
      <point x="283" y="132"/>
      <point x="232" y="173"/>
      <point x="232" y="245" type="curve" smooth="yes"/>
      <point x="232" y="338"/>
      <point x="297" y="376"/>
      <point x="396" y="376" type="curve" smooth="yes"/>
      <point x="537" y="376" type="line"/>
      <point x="550" y="384" type="line"/>
      <point x="561" y="436"/>
      <point x="574" y="508"/>
      <point x="587" y="580" type="curve"/>
      <point x="506" y="580" type="line"/>
      <point x="481" y="451" type="line"/>
      <point x="387" y="451" type="line" smooth="yes"/>
      <point x="260" y="451"/>
      <point x="165" y="416"/>
      <point x="165" y="290" type="curve" smooth="yes"/>
      <point x="165" y="166"/>
      <point x="256" y="65"/>
      <point x="399" y="65" type="curve" smooth="yes"/>
      <point x="485" y="65"/>
      <point x="555" y="117"/>
      <point x="555" y="168" type="curve" smooth="yes"/>
      <point x="555" y="212"/>
      <point x="489" y="254"/>
      <point x="447" y="254" type="curve" smooth="yes"/>
      <point x="422" y="254"/>
      <point x="409" y="242"/>
      <point x="409" y="209" type="curve" smooth="yes"/>
      <point x="409" y="189"/>
      <point x="417" y="153"/>
      <point x="445" y="82" type="curve" smooth="yes"/>
      <point x="543" y="-165" type="line"/>
    </contour>
  </outline>
</glyph>
<glyph name="dDMYa" format="2">
  <advance width="992"/>
  <outline>
    <contour>
      <point x="629" y="561" type="line"/>
      <point x="647" y="529"/>
      <point x="650" y="494"/>
      <point x="650" y="472" type="curve" smooth="yes"/>
      <point x="650" y="409"/>
      <point x="596" y="382"/>
      <point x="475" y="352" type="curve"/>
      <point x="470" y="217"/>
      <point x="555" y="100"/>
      <point x="684" y="97" type="curve" smooth="yes"/>
      <point x="719" y="97"/>
      <point x="762" y="106"/>
      <point x="809" y="139" type="curve"/>
      <point x="831" y="240" type="line"/>
      <point x="758" y="183"/>
      <point x="703" y="160"/>
      <point x="650" y="160" type="curve" smooth="yes"/>
      <point x="568" y="160"/>
      <point x="527" y="231"/>
      <point x="558" y="323" type="curve"/>
      <point x="509" y="275" type="line"/>
      <point x="662" y="304"/>
      <point x="714" y="357"/>
      <point x="714" y="434" type="curve" smooth="yes"/>
      <point x="714" y="468"/>
      <point x="705" y="515"/>
      <point x="683" y="561" type="curve"/>
    </contour>
    <contour>
      <point x="883" y="581" type="line"/>
      <point x="769" y="13" type="line"/>
      <point x="837" y="-49" type="line"/>
      <point x="847" y="-49" type="line"/>
      <point x="967" y="581" type="line"/>
    </contour>
    <contour>
      <point x="34" y="620" type="line"/>
      <point x="32" y="610" type="line"/>
      <point x="63" y="545" type="line"/>
      <point x="1077" y="545" type="line"/>
      <point x="1079" y="555" type="line"/>
      <point x="1048" y="620" type="line"/>
    </contour>
    <contour>
      <point x="364" y="581" type="line"/>
      <point x="341" y="460" type="line"/>
      <point x="188" y="460" type="line" smooth="yes"/>
      <point x="98" y="460"/>
      <point x="63" y="422"/>
      <point x="63" y="366" type="curve" smooth="yes"/>
      <point x="63" y="293"/>
      <point x="128" y="214"/>
      <point x="190" y="214" type="curve" smooth="yes"/>
      <point x="220" y="214"/>
      <point x="295" y="223"/>
      <point x="316" y="223" type="curve" smooth="yes"/>
      <point x="331" y="223"/>
      <point x="338" y="218"/>
      <point x="338" y="199" type="curve" smooth="yes"/>
      <point x="338" y="161"/>
      <point x="327" y="153"/>
      <point x="296" y="97" type="curve"/>
      <point x="684" y="97" type="line"/>
      <point x="566" y="161" type="line"/>
      <point x="467" y="163"/>
      <point x="318" y="166"/>
      <point x="270" y="166" type="curve" smooth="yes"/>
      <point x="248" y="166"/>
      <point x="239" y="155"/>
      <point x="239" y="139" type="curve" smooth="yes"/>
      <point x="239" y="91"/>
      <point x="316" y="2"/>
      <point x="349" y="2" type="curve" smooth="yes"/>
      <point x="361" y="2"/>
      <point x="372" y="10"/>
      <point x="375" y="27" type="curve" smooth="yes"/>
      <point x="398" y="150" type="line" smooth="yes"/>
      <point x="410" y="213"/>
      <point x="360" y="297"/>
      <point x="297" y="297" type="curve" smooth="yes"/>
      <point x="277" y="297"/>
      <point x="193" y="287"/>
      <point x="164" y="287" type="curve" smooth="yes"/>
      <point x="141" y="287"/>
      <point x="128" y="306"/>
      <point x="128" y="329" type="curve" smooth="yes"/>
      <point x="128" y="368"/>
      <point x="146" y="385"/>
      <point x="198" y="385" type="curve" smooth="yes"/>
      <point x="397" y="385" type="line"/>
      <point x="411" y="393" type="line"/>
      <point x="421" y="445"/>
      <point x="436" y="527"/>
      <point x="445" y="581" type="curve"/>
    </contour>
  </outline>
</glyph>
<glyph name="dDVRa" format="2">
  <advance width="522"/>
  <outline>
    <contour>
      <point x="317" y="-94" type="line" smooth="yes"/>
      <point x="344" y="-71"/>
      <point x="369" y="-41"/>
      <point x="393" y="7" type="curve"/>
      <point x="349" y="92" type="line"/>
      <point x="308" y="-40"/>
      <point x="227" y="-67"/>
      <point x="169" y="-67" type="curve" smooth="yes"/>
      <point x="144" y="-67"/>
      <point x="115" y="-59"/>
      <point x="115" y="-28" type="curve" smooth="yes"/>
      <point x="115" y="26"/>
      <point x="188" y="64"/>
      <point x="248" y="75" type="curve"/>
      <point x="158" y="124" type="line"/>
      <point x="94" y="98"/>
      <point x="51" y="67"/>
      <point x="51" y="2" type="curve" smooth="yes"/>
      <point x="51" y="-49"/>
      <point x="92" y="-128"/>
      <point x="189" y="-128" type="curve"/>
      <point x="175" y="-85" type="line"/>
      <point x="166" y="-129" type="line"/>
      <point x="61" y="-211" type="line"/>
      <point x="118" y="-263" type="line"/>
    </contour>
    <contour>
      <point x="607" y="545" type="line"/>
      <point x="609" y="555" type="line"/>
      <point x="578" y="620" type="line"/>
      <point x="34" y="620" type="line"/>
      <point x="32" y="610" type="line"/>
      <point x="63" y="545" type="line"/>
    </contour>
    <contour>
      <point x="453" y="-170" type="line"/>
      <point x="509" y="-137" type="line"/>
      <point x="356" y="169" type="line"/>
      <point x="328" y="141"/>
      <point x="281" y="133"/>
      <point x="249" y="133" type="curve" smooth="yes"/>
      <point x="185" y="133"/>
      <point x="131" y="168"/>
      <point x="131" y="247" type="curve" smooth="yes"/>
      <point x="131" y="334"/>
      <point x="198" y="379"/>
      <point x="286" y="379" type="curve" smooth="yes"/>
      <point x="436" y="379" type="line"/>
      <point x="450" y="387" type="line"/>
      <point x="460" y="439"/>
      <point x="477" y="534"/>
      <point x="485" y="581" type="curve"/>
      <point x="404" y="581" type="line"/>
      <point x="380" y="454" type="line"/>
      <point x="288" y="454" type="line" smooth="yes"/>
      <point x="144" y="454"/>
      <point x="64" y="413"/>
      <point x="64" y="289" type="curve" smooth="yes"/>
      <point x="64" y="172"/>
      <point x="146" y="66"/>
      <point x="302" y="66" type="curve" smooth="yes"/>
      <point x="418" y="66"/>
      <point x="458" y="140"/>
      <point x="458" y="169" type="curve" smooth="yes"/>
      <point x="458" y="213"/>
      <point x="384" y="257"/>
      <point x="344" y="257" type="curve" smooth="yes"/>
      <point x="319" y="257"/>
      <point x="308" y="245"/>
      <point x="308" y="215" type="curve" smooth="yes"/>
      <point x="308" y="191"/>
      <point x="319" y="142"/>
      <point x="339" y="93" type="curve" smooth="yes"/>
      <point x="445" y="-170" type="line"/>
    </contour>
  </outline>
</glyph>
<glyph name="dDa_dSignVocalicR" format="2">
  <advance width="511"/>
  <outline>
    <contour>
      <point x="265" y="-59" type="curve" smooth="yes"/>
      <point x="330" y="-59"/>
      <point x="395" y="-41"/>
      <point x="446" y="-7" type="curve"/>
      <point x="405" y="63" type="line"/>
      <point x="357" y="32"/>
      <point x="298" y="6"/>
      <point x="237" y="6" type="curve" smooth="yes"/>
      <point x="169" y="6"/>
      <point x="146" y="37"/>
      <point x="146" y="76" type="curve" smooth="yes"/>
      <point x="146" y="116"/>
      <point x="171" y="163"/>
      <point x="281" y="184" type="curve"/>
      <point x="285" y="241" type="line"/>
      <point x="225" y="241" type="line" smooth="yes"/>
      <point x="177" y="241"/>
      <point x="140" y="278"/>
      <point x="140" y="320" type="curve" smooth="yes"/>
      <point x="140" y="354"/>
      <point x="163" y="381"/>
      <point x="219" y="381" type="curve" smooth="yes"/>
      <point x="428" y="381" type="line"/>
      <point x="442" y="389" type="line"/>
      <point x="451" y="434"/>
      <point x="463" y="502"/>
      <point x="476" y="573" type="curve"/>
      <point x="395" y="573" type="line"/>
      <point x="372" y="456" type="line"/>
      <point x="215" y="456" type="line" smooth="yes"/>
      <point x="112" y="456"/>
      <point x="76" y="416"/>
      <point x="76" y="357" type="curve" smooth="yes"/>
      <point x="76" y="295"/>
      <point x="115" y="176"/>
      <point x="297" y="176" type="curve" smooth="yes"/>
      <point x="340" y="176"/>
      <point x="381" y="186"/>
      <point x="381" y="218" type="curve" smooth="yes"/>
      <point x="381" y="230"/>
      <point x="373" y="264"/>
      <point x="327" y="264" type="curve" smooth="yes"/>
      <point x="223" y="264"/>
      <point x="79" y="220"/>
      <point x="79" y="113" type="curve" smooth="yes"/>
      <point x="79" y="29"/>
      <point x="136" y="-59"/>
    </contour>
    <contour>
      <point x="596" y="545" type="line"/>
      <point x="598" y="555" type="line"/>
      <point x="567" y="620" type="line"/>
      <point x="34" y="620" type="line"/>
      <point x="32" y="610" type="line"/>
      <point x="63" y="545" type="line"/>
    </contour>
  </outline>
  <guideline angle="117.447" x="491" y="0"/>
</glyph>
<glyph name="dDa_dSignVocalicRr" format="2">
  <advance width="527"/>
  <outline>
    <contour>
      <point x="404" y="581" type="line"/>
      <point x="382" y="464" type="line"/>
      <point x="297" y="464" type="line" smooth="yes"/>
      <point x="147" y="464"/>
      <point x="67" y="427"/>
      <point x="67" y="311" type="curve" smooth="yes"/>
      <point x="67" y="192"/>
      <point x="168" y="93"/>
      <point x="294" y="93" type="curve" smooth="yes"/>
      <point x="406" y="93"/>
      <point x="453" y="165"/>
      <point x="453" y="203" type="curve" smooth="yes"/>
      <point x="453" y="244"/>
      <point x="385" y="279"/>
      <point x="344" y="279" type="curve" smooth="yes"/>
      <point x="319" y="279"/>
      <point x="309" y="266"/>
      <point x="309" y="239" type="curve" smooth="yes"/>
      <point x="309" y="212"/>
      <point x="322" y="176"/>
      <point x="333" y="151" type="curve"/>
      <point x="342" y="189" type="line"/>
      <point x="323" y="170"/>
      <point x="279" y="159"/>
      <point x="248" y="159" type="curve" smooth="yes"/>
      <point x="189" y="159"/>
      <point x="135" y="198"/>
      <point x="135" y="275" type="curve" smooth="yes"/>
      <point x="135" y="349"/>
      <point x="201" y="389"/>
      <point x="297" y="389" type="curve" smooth="yes"/>
      <point x="438" y="389" type="line"/>
      <point x="452" y="397" type="line"/>
      <point x="461" y="444"/>
      <point x="470" y="495"/>
      <point x="485" y="581" type="curve"/>
    </contour>
    <contour>
      <point x="426" y="-283" type="curve" smooth="yes"/>
      <point x="481" y="-283"/>
      <point x="545" y="-261"/>
      <point x="571" y="-244" type="curve"/>
      <point x="536" y="-183" type="line"/>
      <point x="495" y="-207"/>
      <point x="448" y="-224"/>
      <point x="404" y="-224" type="curve" smooth="yes"/>
      <point x="372" y="-224"/>
      <point x="347" y="-212"/>
      <point x="347" y="-189" type="curve" smooth="yes"/>
      <point x="347" y="-155"/>
      <point x="392" y="-134"/>
      <point x="507" y="-120" type="curve"/>
      <point x="508" y="-114" type="line"/>
      <point x="474" y="-57" type="line"/>
      <point x="379" y="-67"/>
      <point x="290" y="-92"/>
      <point x="290" y="-170" type="curve" smooth="yes"/>
      <point x="290" y="-235"/>
      <point x="355" y="-283"/>
    </contour>
    <contour>
      <point x="350" y="-103" type="line"/>
      <point x="309" y="-101"/>
      <point x="299" y="-79"/>
      <point x="299" y="-62" type="curve" smooth="yes"/>
      <point x="299" y="-33"/>
      <point x="333" y="3"/>
      <point x="444" y="12" type="curve"/>
      <point x="445" y="18" type="line"/>
      <point x="409" y="84" type="line"/>
      <point x="299" y="72"/>
      <point x="241" y="36"/>
      <point x="241" y="-35" type="curve" smooth="yes"/>
      <point x="241" y="-73"/>
      <point x="259" y="-119"/>
      <point x="316" y="-137" type="curve"/>
    </contour>
    <contour>
      <point x="445" y="18" type="line"/>
      <point x="391" y="133" type="line"/>
      <point x="347" y="112" type="line"/>
      <point x="381" y="13" type="line"/>
    </contour>
    <contour>
      <point x="612" y="545" type="line"/>
      <point x="614" y="555" type="line"/>
      <point x="583" y="620" type="line"/>
      <point x="34" y="620" type="line"/>
      <point x="32" y="610" type="line"/>
      <point x="63" y="545" type="line"/>
    </contour>
  </outline>
  <guideline angle="119.31" x="443" y="0"/>
</glyph>
<glyph name="dDdBRa" format="2">
  <advance width="545"/>
  <outline>
    <contour>
      <point x="312" y="80" type="curve" smooth="yes"/>
      <point x="441" y="80"/>
      <point x="489" y="139"/>
      <point x="489" y="202" type="curve" smooth="yes"/>
      <point x="489" y="268"/>
      <point x="426" y="335"/>
      <point x="377" y="335" type="curve" smooth="yes"/>
      <point x="345" y="335"/>
      <point x="253" y="313"/>
      <point x="229" y="313" type="curve" smooth="yes"/>
      <point x="211" y="313"/>
      <point x="194" y="331"/>
      <point x="194" y="357" type="curve" smooth="yes"/>
      <point x="194" y="395"/>
      <point x="220" y="410"/>
      <point x="268" y="410" type="curve" smooth="yes"/>
      <point x="459" y="410" type="line"/>
      <point x="473" y="418" type="line"/>
      <point x="483" y="469"/>
      <point x="493" y="523"/>
      <point x="504" y="583" type="curve"/>
      <point x="424" y="583" type="line"/>
      <point x="404" y="482" type="line"/>
      <point x="257" y="482" type="line" smooth="yes"/>
      <point x="163" y="482"/>
      <point x="129" y="447"/>
      <point x="129" y="388" type="curve" smooth="yes"/>
      <point x="129" y="319"/>
      <point x="202" y="243"/>
      <point x="260" y="243" type="curve" smooth="yes"/>
      <point x="294" y="243"/>
      <point x="363" y="264"/>
      <point x="399" y="264" type="curve" smooth="yes"/>
      <point x="418" y="264"/>
      <point x="427" y="255"/>
      <point x="427" y="237" type="curve" smooth="yes"/>
      <point x="427" y="201"/>
      <point x="395" y="152"/>
      <point x="297" y="152" type="curve" smooth="yes"/>
      <point x="164" y="152"/>
      <point x="118" y="214"/>
      <point x="78" y="306" type="curve"/>
      <point x="42" y="289" type="line"/>
      <point x="89" y="155"/>
      <point x="172" y="80"/>
    </contour>
    <contour>
      <point x="361" y="-141" type="line"/>
      <point x="355" y="-80" type="line"/>
      <point x="1" y="-292" type="line"/>
      <point x="40" y="-341" type="line"/>
    </contour>
    <contour>
      <point x="346" y="-335" type="line"/>
      <point x="437" y="144" type="line"/>
      <point x="365" y="144" type="line"/>
      <point x="329" y="-40" type="line"/>
      <point x="312" y="-40" type="line"/>
      <point x="285" y="-171" type="line"/>
      <point x="302" y="-171" type="line"/>
      <point x="279" y="-282" type="line"/>
      <point x="337" y="-335" type="line"/>
    </contour>
    <contour>
      <point x="630" y="545" type="line"/>
      <point x="632" y="555" type="line"/>
      <point x="600" y="620" type="line"/>
      <point x="33" y="620" type="line"/>
      <point x="31" y="610" type="line"/>
      <point x="63" y="545" type="line"/>
    </contour>
    <contour>
      <point x="336" y="-96" type="line"/>
      <point x="336" y="-11"/>
      <point x="268" y="52"/>
      <point x="172" y="52" type="curve" smooth="yes"/>
      <point x="83" y="52"/>
      <point x="10" y="-2"/>
      <point x="10" y="-83" type="curve" smooth="yes"/>
      <point x="10" y="-150"/>
      <point x="69" y="-230"/>
      <point x="167" y="-230" type="curve"/>
    </contour>
    <contour>
      <point x="148" y="-179" type="curve" smooth="yes"/>
      <point x="102" y="-179"/>
      <point x="64" y="-152"/>
      <point x="64" y="-109" type="curve" smooth="yes"/>
      <point x="64" y="-48"/>
      <point x="143" y="-9"/>
      <point x="204" y="-9" type="curve" smooth="yes"/>
      <point x="256" y="-9"/>
      <point x="286" y="-33"/>
      <point x="286" y="-70" type="curve" smooth="yes"/>
      <point x="286" y="-134"/>
      <point x="207" y="-179"/>
    </contour>
    <contour>
      <point x="249" y="-170" type="line"/>
      <point x="150" y="-7" type="line"/>
      <point x="114" y="-19" type="line"/>
      <point x="215" y="-186" type="line"/>
    </contour>
  </outline>
</glyph>
<glyph name="dDdBa" format="2">
  <advance width="545"/>
  <outline>
    <contour>
      <point x="171" y="-238" type="curve" smooth="yes"/>
      <point x="248" y="-238"/>
      <point x="330" y="-198"/>
      <point x="330" y="-101" type="curve" smooth="yes"/>
      <point x="330" y="-11"/>
      <point x="259" y="47"/>
      <point x="171" y="47" type="curve" smooth="yes"/>
      <point x="84" y="47"/>
      <point x="9" y="-9"/>
      <point x="9" y="-91" type="curve" smooth="yes"/>
      <point x="9" y="-159"/>
      <point x="61" y="-238"/>
    </contour>
    <contour>
      <point x="147" y="-184" type="curve" smooth="yes"/>
      <point x="96" y="-184"/>
      <point x="64" y="-157"/>
      <point x="64" y="-116" type="curve" smooth="yes"/>
      <point x="64" y="-55"/>
      <point x="137" y="-14"/>
      <point x="204" y="-14" type="curve" smooth="yes"/>
      <point x="250" y="-14"/>
      <point x="285" y="-33"/>
      <point x="285" y="-76" type="curve" smooth="yes"/>
      <point x="285" y="-138"/>
      <point x="215" y="-184"/>
    </contour>
    <contour>
      <point x="243" y="-175" type="line"/>
      <point x="144" y="-12" type="line"/>
      <point x="108" y="-24" type="line"/>
      <point x="209" y="-191" type="line"/>
    </contour>
    <contour>
      <point x="348" y="-325" type="line"/>
      <point x="439" y="155" type="line"/>
      <point x="368" y="155" type="line"/>
      <point x="326" y="-53" type="line"/>
      <point x="309" y="-53" type="line"/>
      <point x="281" y="-191" type="line"/>
      <point x="298" y="-191" type="line"/>
      <point x="281" y="-272" type="line"/>
      <point x="339" y="-325" type="line"/>
    </contour>
    <contour>
      <point x="630" y="545" type="line"/>
      <point x="632" y="555" type="line"/>
      <point x="600" y="620" type="line"/>
      <point x="33" y="620" type="line"/>
      <point x="32" y="610" type="line"/>
      <point x="63" y="545" type="line"/>
    </contour>
    <contour>
      <point x="312" y="80" type="curve" smooth="yes"/>
      <point x="441" y="80"/>
      <point x="489" y="139"/>
      <point x="489" y="202" type="curve" smooth="yes"/>
      <point x="489" y="268"/>
      <point x="426" y="335"/>
      <point x="377" y="335" type="curve" smooth="yes"/>
      <point x="345" y="335"/>
      <point x="253" y="313"/>
      <point x="229" y="313" type="curve" smooth="yes"/>
      <point x="211" y="313"/>
      <point x="194" y="331"/>
      <point x="194" y="357" type="curve" smooth="yes"/>
      <point x="194" y="395"/>
      <point x="220" y="410"/>
      <point x="268" y="410" type="curve" smooth="yes"/>
      <point x="459" y="410" type="line"/>
      <point x="473" y="418" type="line"/>
      <point x="483" y="469"/>
      <point x="493" y="523"/>
      <point x="504" y="583" type="curve"/>
      <point x="424" y="583" type="line"/>
      <point x="404" y="482" type="line"/>
      <point x="257" y="482" type="line" smooth="yes"/>
      <point x="163" y="482"/>
      <point x="129" y="447"/>
      <point x="129" y="388" type="curve" smooth="yes"/>
      <point x="129" y="319"/>
      <point x="202" y="243"/>
      <point x="260" y="243" type="curve" smooth="yes"/>
      <point x="294" y="243"/>
      <point x="363" y="264"/>
      <point x="399" y="264" type="curve" smooth="yes"/>
      <point x="418" y="264"/>
      <point x="427" y="255"/>
      <point x="427" y="237" type="curve" smooth="yes"/>
      <point x="427" y="201"/>
      <point x="395" y="152"/>
      <point x="297" y="152" type="curve" smooth="yes"/>
      <point x="164" y="152"/>
      <point x="118" y="214"/>
      <point x="78" y="306" type="curve"/>
      <point x="42" y="289" type="line"/>
      <point x="89" y="155"/>
      <point x="172" y="80"/>
    </contour>
  </outline>
</glyph>
<glyph name="dDdBhRa" format="2">
  <advance width="561"/>
  <outline>
    <contour>
      <point x="371" y="-164" type="line"/>
      <point x="346" y="-106" type="line"/>
      <point x="87" y="-300" type="line"/>
      <point x="135" y="-345" type="line"/>
    </contour>
    <contour>
      <point x="365" y="-340" type="line"/>
      <point x="458" y="155" type="line"/>
      <point x="378" y="124" type="line"/>
      <point x="296" y="-285" type="line"/>
      <point x="356" y="-340" type="line"/>
    </contour>
    <contour>
      <point x="645" y="545" type="line"/>
      <point x="647" y="555" type="line"/>
      <point x="616" y="620" type="line"/>
      <point x="33" y="620" type="line"/>
      <point x="31" y="610" type="line"/>
      <point x="62" y="545" type="line"/>
    </contour>
    <contour>
      <point x="118" y="-236" type="curve" smooth="yes"/>
      <point x="136" y="-236"/>
      <point x="148" y="-221"/>
      <point x="166" y="-159" type="curve" smooth="yes"/>
      <point x="182" y="-103"/>
      <point x="200" y="-52"/>
      <point x="200" y="-20" type="curve" smooth="yes"/>
      <point x="200" y="56"/>
      <point x="141" y="120"/>
      <point x="78" y="120" type="curve" smooth="yes"/>
      <point x="41" y="120"/>
      <point x="-5" y="98"/>
      <point x="-5" y="45" type="curve" smooth="yes"/>
      <point x="-5" y="-3"/>
      <point x="34" y="-31"/>
      <point x="71" y="-31" type="curve" smooth="yes"/>
      <point x="76" y="-31"/>
      <point x="79" y="-31"/>
      <point x="86" y="-30" type="curve"/>
      <point x="87" y="-22" type="line"/>
      <point x="63" y="-12"/>
      <point x="55" y="9"/>
      <point x="55" y="22" type="curve" smooth="yes"/>
      <point x="55" y="47"/>
      <point x="73" y="63"/>
      <point x="98" y="63" type="curve" smooth="yes"/>
      <point x="123" y="63"/>
      <point x="133" y="40"/>
      <point x="133" y="14" type="curve" smooth="yes"/>
      <point x="133" y="-36"/>
      <point x="119" y="-70"/>
      <point x="90" y="-149" type="curve"/>
      <point x="360" y="-149" type="line"/>
      <point x="373" y="-83" type="line"/>
      <point x="52" y="-83" type="line" smooth="yes"/>
      <point x="31" y="-83"/>
      <point x="21" y="-95"/>
      <point x="21" y="-110" type="curve" smooth="yes"/>
      <point x="21" y="-147"/>
      <point x="81" y="-236"/>
    </contour>
    <contour>
      <point x="328" y="80" type="curve" smooth="yes"/>
      <point x="457" y="80"/>
      <point x="505" y="139"/>
      <point x="505" y="202" type="curve" smooth="yes"/>
      <point x="505" y="268"/>
      <point x="442" y="335"/>
      <point x="393" y="335" type="curve" smooth="yes"/>
      <point x="361" y="335"/>
      <point x="269" y="313"/>
      <point x="245" y="313" type="curve" smooth="yes"/>
      <point x="227" y="313"/>
      <point x="210" y="331"/>
      <point x="210" y="357" type="curve" smooth="yes"/>
      <point x="210" y="395"/>
      <point x="236" y="410"/>
      <point x="284" y="410" type="curve" smooth="yes"/>
      <point x="475" y="410" type="line"/>
      <point x="489" y="418" type="line"/>
      <point x="499" y="469"/>
      <point x="509" y="523"/>
      <point x="520" y="583" type="curve"/>
      <point x="440" y="583" type="line"/>
      <point x="420" y="482" type="line"/>
      <point x="273" y="482" type="line" smooth="yes"/>
      <point x="179" y="482"/>
      <point x="145" y="447"/>
      <point x="145" y="388" type="curve" smooth="yes"/>
      <point x="145" y="319"/>
      <point x="218" y="243"/>
      <point x="276" y="243" type="curve" smooth="yes"/>
      <point x="310" y="243"/>
      <point x="379" y="264"/>
      <point x="415" y="264" type="curve" smooth="yes"/>
      <point x="434" y="264"/>
      <point x="443" y="255"/>
      <point x="443" y="237" type="curve" smooth="yes"/>
      <point x="443" y="201"/>
      <point x="411" y="152"/>
      <point x="313" y="152" type="curve" smooth="yes"/>
      <point x="180" y="152"/>
      <point x="131" y="212"/>
      <point x="95" y="304" type="curve"/>
      <point x="58" y="286" type="line"/>
      <point x="105" y="155"/>
      <point x="190" y="80"/>
    </contour>
  </outline>
</glyph>
<glyph name="dDdBha" format="2">
  <advance width="555"/>
  <outline>
    <contour>
      <point x="322" y="80" type="curve" smooth="yes"/>
      <point x="451" y="80"/>
      <point x="499" y="139"/>
      <point x="499" y="202" type="curve" smooth="yes"/>
      <point x="499" y="268"/>
      <point x="436" y="335"/>
      <point x="387" y="335" type="curve" smooth="yes"/>
      <point x="355" y="335"/>
      <point x="263" y="313"/>
      <point x="239" y="313" type="curve" smooth="yes"/>
      <point x="221" y="313"/>
      <point x="204" y="331"/>
      <point x="204" y="357" type="curve" smooth="yes"/>
      <point x="204" y="395"/>
      <point x="230" y="410"/>
      <point x="278" y="410" type="curve" smooth="yes"/>
      <point x="469" y="410" type="line"/>
      <point x="483" y="418" type="line"/>
      <point x="493" y="469"/>
      <point x="503" y="523"/>
      <point x="514" y="583" type="curve"/>
      <point x="434" y="583" type="line"/>
      <point x="414" y="482" type="line"/>
      <point x="267" y="482" type="line" smooth="yes"/>
      <point x="173" y="482"/>
      <point x="139" y="447"/>
      <point x="139" y="388" type="curve" smooth="yes"/>
      <point x="139" y="319"/>
      <point x="212" y="243"/>
      <point x="270" y="243" type="curve" smooth="yes"/>
      <point x="304" y="243"/>
      <point x="373" y="264"/>
      <point x="409" y="264" type="curve" smooth="yes"/>
      <point x="428" y="264"/>
      <point x="437" y="255"/>
      <point x="437" y="237" type="curve" smooth="yes"/>
      <point x="437" y="201"/>
      <point x="405" y="152"/>
      <point x="307" y="152" type="curve" smooth="yes"/>
      <point x="174" y="152"/>
      <point x="125" y="212"/>
      <point x="89" y="304" type="curve"/>
      <point x="52" y="286" type="line"/>
      <point x="99" y="155"/>
      <point x="184" y="80"/>
    </contour>
    <contour>
      <point x="111" y="-246" type="curve" smooth="yes"/>
      <point x="129" y="-246"/>
      <point x="141" y="-231"/>
      <point x="159" y="-169" type="curve" smooth="yes"/>
      <point x="175" y="-113"/>
      <point x="193" y="-58"/>
      <point x="193" y="-26" type="curve" smooth="yes"/>
      <point x="193" y="50"/>
      <point x="134" y="114"/>
      <point x="71" y="114" type="curve" smooth="yes"/>
      <point x="34" y="114"/>
      <point x="-12" y="92"/>
      <point x="-12" y="39" type="curve" smooth="yes"/>
      <point x="-12" y="-9"/>
      <point x="27" y="-37"/>
      <point x="64" y="-37" type="curve" smooth="yes"/>
      <point x="69" y="-37"/>
      <point x="72" y="-37"/>
      <point x="79" y="-36" type="curve"/>
      <point x="80" y="-28" type="line"/>
      <point x="56" y="-18"/>
      <point x="48" y="3"/>
      <point x="48" y="16" type="curve" smooth="yes"/>
      <point x="48" y="41"/>
      <point x="66" y="57"/>
      <point x="91" y="57" type="curve" smooth="yes"/>
      <point x="116" y="57"/>
      <point x="126" y="34"/>
      <point x="126" y="8" type="curve" smooth="yes"/>
      <point x="126" y="-42"/>
      <point x="112" y="-80"/>
      <point x="83" y="-159" type="curve"/>
      <point x="353" y="-159" type="line"/>
      <point x="366" y="-93" type="line"/>
      <point x="45" y="-93" type="line" smooth="yes"/>
      <point x="24" y="-93"/>
      <point x="14" y="-105"/>
      <point x="14" y="-120" type="curve" smooth="yes"/>
      <point x="14" y="-157"/>
      <point x="74" y="-246"/>
    </contour>
    <contour>
      <point x="360" y="-340" type="line"/>
      <point x="452" y="156" type="line"/>
      <point x="378" y="156" type="line"/>
      <point x="290" y="-285" type="line"/>
      <point x="351" y="-340" type="line"/>
    </contour>
    <contour>
      <point x="640" y="545" type="line"/>
      <point x="642" y="555" type="line"/>
      <point x="610" y="620" type="line"/>
      <point x="33" y="620" type="line"/>
      <point x="31" y="610" type="line"/>
      <point x="63" y="545" type="line"/>
    </contour>
  </outline>
  <guideline angle="90" x="461" y="0"/>
</glyph>
<glyph name="dDdDVa" format="2">
  <advance width="538"/>
  <outline>
    <contour>
      <point x="314" y="104" type="curve" smooth="yes"/>
      <point x="432" y="104"/>
      <point x="486" y="156"/>
      <point x="486" y="219" type="curve" smooth="yes"/>
      <point x="486" y="280"/>
      <point x="425" y="351"/>
      <point x="375" y="351" type="curve" smooth="yes"/>
      <point x="343" y="351"/>
      <point x="255" y="329"/>
      <point x="231" y="329" type="curve" smooth="yes"/>
      <point x="212" y="329"/>
      <point x="192" y="344"/>
      <point x="192" y="371" type="curve" smooth="yes"/>
      <point x="192" y="400"/>
      <point x="218" y="415"/>
      <point x="265" y="415" type="curve" smooth="yes"/>
      <point x="453" y="415" type="line"/>
      <point x="467" y="423" type="line"/>
      <point x="476" y="472"/>
      <point x="487" y="525"/>
      <point x="497" y="583" type="curve"/>
      <point x="417" y="583" type="line"/>
      <point x="398" y="487" type="line"/>
      <point x="254" y="487" type="line" smooth="yes"/>
      <point x="161" y="487"/>
      <point x="126" y="450"/>
      <point x="126" y="398" type="curve" smooth="yes"/>
      <point x="126" y="329"/>
      <point x="201" y="259"/>
      <point x="259" y="259" type="curve" smooth="yes"/>
      <point x="293" y="259"/>
      <point x="359" y="280"/>
      <point x="393" y="280" type="curve" smooth="yes"/>
      <point x="415" y="280"/>
      <point x="424" y="272"/>
      <point x="424" y="250" type="curve" smooth="yes"/>
      <point x="424" y="209"/>
      <point x="382" y="176"/>
      <point x="291" y="176" type="curve" smooth="yes"/>
      <point x="168" y="176"/>
      <point x="119" y="232"/>
      <point x="83" y="316" type="curve"/>
      <point x="46" y="298" type="line"/>
      <point x="90" y="178"/>
      <point x="176" y="104"/>
    </contour>
    <contour>
      <point x="176" y="-439" type="curve" smooth="yes"/>
      <point x="237" y="-439"/>
      <point x="294" y="-401"/>
      <point x="335" y="-314" type="curve"/>
      <point x="315" y="-235" type="line"/>
      <point x="273" y="-238" type="line"/>
      <point x="282" y="-266" type="line"/>
      <point x="240" y="-365"/>
      <point x="180" y="-385"/>
      <point x="141" y="-385" type="curve" smooth="yes"/>
      <point x="118" y="-385"/>
      <point x="94" y="-375"/>
      <point x="94" y="-348" type="curve" smooth="yes"/>
      <point x="94" y="-308"/>
      <point x="141" y="-276"/>
      <point x="205" y="-259" type="curve"/>
      <point x="109" y="-220" type="line"/>
      <point x="62" y="-254"/>
      <point x="40" y="-281"/>
      <point x="40" y="-321" type="curve" smooth="yes"/>
      <point x="40" y="-384"/>
      <point x="95" y="-439"/>
    </contour>
    <contour>
      <point x="363" y="-441" type="line"/>
      <point x="411" y="-413" type="line"/>
      <point x="308" y="-222" type="line"/>
      <point x="270" y="-221" type="line"/>
      <point x="355" y="-441" type="line"/>
    </contour>
    <contour>
      <point x="227" y="-266" type="curve" smooth="yes"/>
      <point x="329" y="-266"/>
      <point x="372" y="-211"/>
      <point x="372" y="-171" type="curve" smooth="yes"/>
      <point x="372" y="-132"/>
      <point x="312" y="-97"/>
      <point x="279" y="-97" type="curve" smooth="yes"/>
      <point x="260" y="-97"/>
      <point x="246" y="-109"/>
      <point x="246" y="-138" type="curve" smooth="yes"/>
      <point x="246" y="-153"/>
      <point x="252" y="-170"/>
      <point x="257" y="-189" type="curve"/>
      <point x="237" y="-199"/>
      <point x="203" y="-203"/>
      <point x="184" y="-203" type="curve" smooth="yes"/>
      <point x="120" y="-203"/>
      <point x="66" y="-162"/>
      <point x="66" y="-103" type="curve" smooth="yes"/>
      <point x="66" y="-41"/>
      <point x="123" y="-10"/>
      <point x="210" y="-10" type="curve" smooth="yes"/>
      <point x="354" y="-10" type="line"/>
      <point x="365" y="-3" type="line"/>
      <point x="373" y="39"/>
      <point x="384" y="98"/>
      <point x="391" y="142" type="curve"/>
      <point x="318" y="142" type="line"/>
      <point x="303" y="63" type="line"/>
      <point x="209" y="63" type="line" smooth="yes"/>
      <point x="81" y="63"/>
      <point x="7" y="31"/>
      <point x="7" y="-66" type="curve" smooth="yes"/>
      <point x="7" y="-182"/>
      <point x="105" y="-266"/>
    </contour>
    <contour>
      <point x="623" y="545" type="line"/>
      <point x="625" y="555" type="line"/>
      <point x="593" y="620" type="line"/>
      <point x="33" y="620" type="line"/>
      <point x="31" y="610" type="line"/>
      <point x="63" y="545" type="line"/>
    </contour>
  </outline>
</glyph>
<glyph name="dDdDdhVa" format="2">
  <advance width="538"/>
  <outline>
    <contour>
      <point x="323" y="104" type="curve" smooth="yes"/>
      <point x="452" y="104"/>
      <point x="487" y="179"/>
      <point x="487" y="224" type="curve" smooth="yes"/>
      <point x="487" y="281"/>
      <point x="426" y="351"/>
      <point x="375" y="351" type="curve" smooth="yes"/>
      <point x="344" y="351"/>
      <point x="253" y="329"/>
      <point x="230" y="329" type="curve" smooth="yes"/>
      <point x="211" y="329"/>
      <point x="192" y="344"/>
      <point x="192" y="368" type="curve" smooth="yes"/>
      <point x="192" y="400"/>
      <point x="218" y="415"/>
      <point x="261" y="415" type="curve" smooth="yes"/>
      <point x="454" y="415" type="line"/>
      <point x="467" y="423" type="line"/>
      <point x="477" y="472"/>
      <point x="487" y="525"/>
      <point x="497" y="583" type="curve"/>
      <point x="417" y="583" type="line"/>
      <point x="399" y="487" type="line"/>
      <point x="255" y="487" type="line" smooth="yes"/>
      <point x="154" y="487"/>
      <point x="126" y="450"/>
      <point x="126" y="400" type="curve" smooth="yes"/>
      <point x="126" y="329"/>
      <point x="198" y="259"/>
      <point x="255" y="259" type="curve" smooth="yes"/>
      <point x="288" y="259"/>
      <point x="357" y="280"/>
      <point x="392" y="280" type="curve" smooth="yes"/>
      <point x="412" y="280"/>
      <point x="424" y="268"/>
      <point x="424" y="251" type="curve" smooth="yes"/>
      <point x="424" y="217"/>
      <point x="394" y="176"/>
      <point x="298" y="176" type="curve" smooth="yes"/>
      <point x="165" y="176"/>
      <point x="119" y="232"/>
      <point x="83" y="316" type="curve"/>
      <point x="46" y="297" type="line"/>
      <point x="91" y="173"/>
      <point x="177" y="104"/>
    </contour>
    <contour>
      <point x="132" y="-475" type="curve" smooth="yes"/>
      <point x="166" y="-475"/>
      <point x="193" y="-466"/>
      <point x="225" y="-450" type="curve"/>
      <point x="243" y="-364" type="line"/>
      <point x="188" y="-398"/>
      <point x="146" y="-421"/>
      <point x="100" y="-421" type="curve" smooth="yes"/>
      <point x="64" y="-421"/>
      <point x="39" y="-405"/>
      <point x="39" y="-373" type="curve" smooth="yes"/>
      <point x="39" y="-325"/>
      <point x="88" y="-287"/>
      <point x="171" y="-277" type="curve"/>
      <point x="69" y="-232" type="line"/>
      <point x="12" y="-264"/>
      <point x="-19" y="-296"/>
      <point x="-19" y="-347" type="curve" smooth="yes"/>
      <point x="-19" y="-424"/>
      <point x="51" y="-475"/>
    </contour>
    <contour>
      <point x="263" y="-545" type="line"/>
      <point x="320" y="-242" type="line"/>
      <point x="252" y="-242" type="line"/>
      <point x="200" y="-495" type="line"/>
      <point x="254" y="-545" type="line"/>
    </contour>
    <contour>
      <point x="238" y="-294" type="curve" smooth="yes"/>
      <point x="331" y="-294"/>
      <point x="398" y="-251"/>
      <point x="398" y="-172" type="curve" smooth="yes"/>
      <point x="398" y="-102"/>
      <point x="340" y="-56"/>
      <point x="279" y="-56" type="curve" smooth="yes"/>
      <point x="211" y="-56"/>
      <point x="174" y="-106"/>
      <point x="174" y="-178" type="curve" smooth="yes"/>
      <point x="174" y="-197"/>
      <point x="176" y="-223"/>
      <point x="180" y="-237" type="curve"/>
      <point x="217" y="-241" type="line"/>
      <point x="209" y="-169"/>
      <point x="249" y="-116"/>
      <point x="304" y="-116" type="curve" smooth="yes"/>
      <point x="330" y="-116"/>
      <point x="351" y="-131"/>
      <point x="351" y="-154" type="curve" smooth="yes"/>
      <point x="351" y="-189"/>
      <point x="307" y="-228"/>
      <point x="211" y="-228" type="curve" smooth="yes"/>
      <point x="112" y="-228"/>
      <point x="56" y="-186"/>
      <point x="56" y="-112" type="curve" smooth="yes"/>
      <point x="56" y="-47"/>
      <point x="100" y="-5"/>
      <point x="193" y="-5" type="curve" smooth="yes"/>
      <point x="351" y="-5" type="line"/>
      <point x="364" y="3" type="line"/>
      <point x="372" y="46"/>
      <point x="381" y="98"/>
      <point x="389" y="144" type="curve"/>
      <point x="315" y="144" type="line"/>
      <point x="299" y="64" type="line"/>
      <point x="180" y="64" type="line" smooth="yes"/>
      <point x="62" y="64"/>
      <point x="-7" y="28"/>
      <point x="-7" y="-78" type="curve" smooth="yes"/>
      <point x="-7" y="-201"/>
      <point x="107" y="-294"/>
    </contour>
    <contour>
      <point x="623" y="545" type="line"/>
      <point x="625" y="555" type="line"/>
      <point x="594" y="620" type="line"/>
      <point x="34" y="620" type="line"/>
      <point x="32" y="610" type="line"/>
      <point x="63" y="545" type="line"/>
    </contour>
  </outline>
</glyph>
<glyph name="dDdGRa" format="2">
  <advance width="545"/>
  <outline>
    <contour>
      <point x="629" y="545" type="line"/>
      <point x="631" y="555" type="line"/>
      <point x="600" y="620" type="line"/>
      <point x="33" y="620" type="line"/>
      <point x="31" y="610" type="line"/>
      <point x="62" y="545" type="line"/>
    </contour>
    <contour>
      <point x="348" y="-102" type="line"/>
      <point x="365" y="-8" type="line"/>
      <point x="84" y="-215" type="line"/>
      <point x="134" y="-265" type="line"/>
    </contour>
    <contour>
      <point x="126" y="-132" type="curve" smooth="yes"/>
      <point x="141" y="-132"/>
      <point x="149" y="-124"/>
      <point x="152" y="-107" type="curve" smooth="yes"/>
      <point x="197" y="129" type="line"/>
      <point x="134" y="169" type="line"/>
      <point x="104" y="23" type="line"/>
      <point x="50" y="23" type="line" smooth="yes"/>
      <point x="28" y="23"/>
      <point x="21" y="14"/>
      <point x="21" y="-2" type="curve" smooth="yes"/>
      <point x="21" y="-52"/>
      <point x="93" y="-132"/>
    </contour>
    <contour>
      <point x="360" y="-272" type="line"/>
      <point x="440" y="160" type="line"/>
      <point x="360" y="131" type="line"/>
      <point x="291" y="-217" type="line"/>
      <point x="351" y="-272" type="line"/>
    </contour>
    <contour>
      <point x="313" y="80" type="curve" smooth="yes"/>
      <point x="442" y="80"/>
      <point x="490" y="139"/>
      <point x="490" y="202" type="curve" smooth="yes"/>
      <point x="490" y="268"/>
      <point x="427" y="335"/>
      <point x="378" y="335" type="curve" smooth="yes"/>
      <point x="346" y="335"/>
      <point x="254" y="313"/>
      <point x="230" y="313" type="curve" smooth="yes"/>
      <point x="212" y="313"/>
      <point x="195" y="331"/>
      <point x="195" y="357" type="curve" smooth="yes"/>
      <point x="195" y="395"/>
      <point x="221" y="410"/>
      <point x="269" y="410" type="curve" smooth="yes"/>
      <point x="460" y="410" type="line"/>
      <point x="474" y="418" type="line"/>
      <point x="484" y="469"/>
      <point x="494" y="523"/>
      <point x="505" y="583" type="curve"/>
      <point x="425" y="583" type="line"/>
      <point x="405" y="482" type="line"/>
      <point x="258" y="482" type="line" smooth="yes"/>
      <point x="164" y="482"/>
      <point x="130" y="447"/>
      <point x="130" y="388" type="curve" smooth="yes"/>
      <point x="130" y="319"/>
      <point x="203" y="243"/>
      <point x="261" y="243" type="curve" smooth="yes"/>
      <point x="295" y="243"/>
      <point x="364" y="264"/>
      <point x="400" y="264" type="curve" smooth="yes"/>
      <point x="419" y="264"/>
      <point x="428" y="255"/>
      <point x="428" y="237" type="curve" smooth="yes"/>
      <point x="428" y="201"/>
      <point x="399" y="152"/>
      <point x="295" y="152" type="curve" smooth="yes"/>
      <point x="169" y="152"/>
      <point x="120" y="210"/>
      <point x="85" y="298" type="curve"/>
      <point x="49" y="280" type="line"/>
      <point x="86" y="162"/>
      <point x="185" y="80"/>
    </contour>
  </outline>
</glyph>
